<svg width="18" height="18" viewBox="0 0 18 18" fill="none" xmlns="http://www.w3.org/2000/svg">
<path d="M16.7743 12.1962L15.2618 10.6837C14.811 10.2365 14.2024 9.98431 13.5674 9.98161C12.9323 9.97891 12.3216 10.2259 11.867 10.6693C11.6244 10.9133 11.3043 11.0651 10.9619 11.0986C10.6195 11.1321 10.2761 11.0452 9.99077 10.8528C8.86478 10.1014 7.89747 9.13593 7.14383 8.0114C6.95488 7.72293 6.87113 7.37816 6.9067 7.03516C6.94226 6.69216 7.09497 6.3719 7.33908 6.12833C7.77846 5.67326 8.02225 5.06427 8.01826 4.43171C8.01428 3.79915 7.76284 3.19328 7.31777 2.74377L5.80527 1.23127C5.35245 0.780002 4.73922 0.526611 4.09993 0.526611C3.46063 0.526611 2.84741 0.780002 2.39458 1.23127L1.95939 1.66715C-0.309356 3.9359 -0.139544 8.70577 4.58083 13.4234C7.42708 16.2703 10.2919 17.4625 12.615 17.4625C13.2988 17.4852 13.9803 17.3717 14.6198 17.1284C15.2593 16.8851 15.844 16.517 16.3398 16.0455L16.7757 15.6096C17.2278 15.1566 17.4816 14.5427 17.4813 13.9026C17.4811 13.2626 17.2268 12.6489 16.7743 12.1962ZM15.8022 14.6375L15.3663 15.0734C13.5788 16.8609 9.63327 16.5343 5.55158 12.452C1.46989 8.36958 1.14264 4.42127 2.93014 2.63377L3.36258 2.19858C3.55729 2.00458 3.82094 1.89565 4.0958 1.89565C4.37066 1.89565 4.63431 2.00458 4.82902 2.19858L6.34152 3.71108C6.53269 3.90321 6.6412 4.16244 6.6439 4.43346C6.64659 4.70448 6.54326 4.96582 6.35596 5.16171C5.8914 5.62923 5.60161 6.2422 5.53515 6.89792C5.46869 7.55365 5.62959 8.2123 5.99089 8.76352C6.84721 10.045 7.94837 11.1445 9.23108 11.9989C9.78066 12.3603 10.4376 12.5221 11.0921 12.4574C11.7467 12.3927 12.3592 12.1054 12.8274 11.6435C13.0229 11.4539 13.285 11.3487 13.5573 11.3504C13.8296 11.352 14.0903 11.4605 14.2835 11.6524L15.796 13.1649C15.8935 13.261 15.971 13.3754 16.0241 13.5015C16.0772 13.6277 16.1049 13.7631 16.1054 13.8999C16.106 14.0368 16.0795 14.1724 16.0275 14.299C15.9754 14.4256 15.8989 14.5406 15.8022 14.6375Z" fill="#DAE3FF"/>
</svg>
