<svg width="40" height="40" viewBox="0 0 40 40" fill="none" xmlns="http://www.w3.org/2000/svg">
<circle cx="20" cy="20" r="20" fill="url(#paint0_linear_82_3)"/>
<path d="M30.063 13.7088C30.4581 14.3931 30.4051 15.2078 29.9243 15.8349L19.3678 29.6104C18.9325 30.1785 18.2156 30.4681 17.4826 30.3274C16.7648 30.1893 16.1957 29.6661 15.9982 28.9623L14.4362 23.4031L14.2735 22.8249L13.8541 22.3949L9.82068 18.2626C9.30997 17.7397 9.1414 16.9852 9.38075 16.2945C9.61763 15.6118 10.2118 15.1164 10.9443 15.0204L28.1524 12.766C28.9359 12.6631 29.668 13.0246 30.063 13.7088Z" fill="white"/>
<path d="M14.4361 23.4031L15.9981 28.9623C16.1956 29.6661 16.7647 30.1893 17.4825 30.3274C18.2156 30.4681 18.9324 30.1785 19.3677 29.6104L29.9242 15.8349C30.405 15.2078 30.458 14.3931 30.0629 13.7088L14.2734 22.8249L14.4361 23.4031Z" fill="white"/>
<path d="M20.6992 19.1151C20.8599 19.3934 20.7648 19.7494 20.4861 19.9103L14.4366 23.403L14.2739 22.8248L13.8545 22.3948L19.904 18.9021C20.1827 18.7413 20.5386 18.8369 20.6992 19.1151Z" fill="url(#paint1_linear_82_3)"/>
<path d="M14.4366 23.4032L20.4861 19.9105C20.7647 19.7496 20.8598 19.3936 20.6992 19.1153L14.2739 22.8249L14.4366 23.4032Z" fill="url(#paint2_linear_82_3)"/>
<defs>
<linearGradient id="paint0_linear_82_3" x1="1.64251e-07" y1="-8.63637" x2="43.5091" y2="-5.67664" gradientUnits="userSpaceOnUse">
<stop stop-color="#F71B2C"/>
<stop offset="0.461458" stop-color="#ED1B8D"/>
<stop offset="1" stop-color="#FF7027"/>
</linearGradient>
<linearGradient id="paint1_linear_82_3" x1="13.7288" y1="22.1771" x2="21.2485" y2="21.3673" gradientUnits="userSpaceOnUse">
<stop stop-color="#F71B2C"/>
<stop offset="0.461458" stop-color="#ED1B8D"/>
<stop offset="1" stop-color="#FF7027"/>
</linearGradient>
<linearGradient id="paint2_linear_82_3" x1="14.0827" y1="22.7902" x2="20.1532" y2="24.0239" gradientUnits="userSpaceOnUse">
<stop stop-color="#F71B2C"/>
<stop offset="0.461458" stop-color="#ED1B8D"/>
<stop offset="1" stop-color="#FF7027"/>
</linearGradient>
</defs>
</svg>
