<svg width="187" height="497" viewBox="0 0 187 497" fill="none" xmlns="http://www.w3.org/2000/svg">
<path d="M184.19 14.5271C178.994 53.459 151.409 90.5623 122.683 124.96C93.9569 159.358 62.6697 193.738 47.9076 232.206C35.471 264.633 35.8179 298.733 48.9049 327.967C62.379 358.08 88.3785 382.146 110.647 407.875C132.916 433.605 152.3 463.223 149.949 496.954M182.357 14.4587C177.995 53.025 151.336 90.118 123.185 124.508C95.0326 158.897 64.0983 193.253 49.2234 231.542C37.2921 262.133 36.3306 294.154 46.6664 322.378C47.3307 324.172 48.0168 325.942 48.769 327.703C55.2665 343.007 65.0118 356.837 76.2697 369.87C87.3265 382.712 99.6746 394.72 111.037 407.286C134.073 432.615 153.683 462.593 151.048 496.576M180.523 14.3689C177.017 52.5667 151.242 89.6549 123.686 124.055C96.1304 158.455 65.5488 192.766 50.539 230.877C38.3658 261.543 36.8313 293.636 46.6401 322.079C47.2604 323.879 47.9247 325.673 48.6551 327.459C54.8679 342.928 64.4177 356.999 75.8955 369.961C87.1056 382.718 99.7586 394.407 111.426 406.696C135.142 431.68 155.065 461.985 152.168 496.196M178.69 14.3005C176.04 52.13 151.17 89.2106 124.21 123.621C97.2508 158.031 67.0218 192.297 51.8552 230.234C39.4401 260.974 37.3326 293.14 46.5924 321.805C47.1909 323.629 47.8114 325.45 48.4978 327.241C54.4257 342.876 63.8018 357.164 75.478 370.1C86.8415 382.774 99.821 394.118 111.772 406.155C136.211 430.766 156.404 461.403 153.246 495.864M176.857 14.2322C175.041 51.6745 151.076 88.7691 124.712 123.168C98.3485 157.567 68.5613 191.841 53.1711 229.569C40.5808 260.418 37.8335 292.623 46.5664 321.506C47.1208 323.335 47.7196 325.181 48.3618 326.978C54.0047 342.757 63.1853 357.286 75.0596 370.175C86.5765 382.764 99.8826 393.765 112.117 405.55C137.28 429.787 157.743 460.757 154.3 495.449M175.023 14.1638C174.063 51.2377 151.003 88.3248 125.214 122.737C99.4246 157.149 70.0123 191.397 54.4652 228.951C41.6554 259.892 38.313 292.173 46.5186 321.253C47.0293 323.109 47.606 324.958 48.2266 326.779C53.5846 342.725 62.6133 357.445 74.6638 370.312C86.356 382.793 99.9886 393.449 112.507 405.003C138.394 428.867 159.125 460.171 155.421 495.111M173.189 14.0739C173.064 50.7822 150.909 87.8617 125.716 122.284C100.523 156.706 71.485 190.907 55.7811 228.286C42.7517 259.32 38.814 291.656 46.4927 320.954C46.9813 322.813 47.5142 324.689 48.0909 326.537C53.1642 342.649 61.9971 357.589 74.2681 370.427C86.1136 382.823 100.073 393.136 112.875 404.438C139.485 427.907 160.486 459.565 156.52 494.755M171.356 14.0056C172.086 50.3454 150.837 87.4174 126.239 121.828C101.642 156.239 72.9577 190.416 57.1189 227.618C43.8697 258.724 39.3368 291.135 46.4666 320.654C46.9113 322.541 47.4223 324.42 47.977 326.271C52.7654 342.548 61.4246 357.705 73.8937 370.497C85.8923 382.787 100.178 392.777 113.264 403.805C140.619 426.899 161.846 458.895 157.619 494.334M169.523 13.9372C171.109 49.9086 150.742 86.9544 126.742 121.397C102.741 155.84 74.409 189.972 58.413 226.978C44.9222 258.179 39.816 290.642 46.4188 320.38C46.8416 322.27 47.3087 324.175 47.8196 326.054C52.3233 342.497 60.787 357.894 73.4761 370.636C85.6282 382.842 100.263 392.485 113.61 403.264C141.711 425.982 163.185 458.335 158.696 494.002M167.689 13.8689C170.11 49.4747 150.67 86.5101 127.244 120.966C103.817 155.422 75.8818 189.503 59.729 226.335C46.0187 257.629 40.3171 290.146 46.3929 320.102C46.7719 322.019 47.217 323.928 47.7061 325.831C51.9247 342.418 60.193 358.057 73.1023 370.749C85.4078 382.87 100.369 392.148 114.022 402.693C142.868 425.013 164.59 457.724 159.817 493.621M165.856 13.8006C169.132 49.0379 150.575 86.0686 127.767 120.532C104.959 154.995 77.3547 189.034 61.0452 225.713C47.093 257.081 40.8184 289.672 46.3453 319.849C46.7022 321.769 47.1035 323.705 47.5485 325.613C51.5044 342.364 59.5769 358.222 72.6845 370.889C85.1434 382.926 100.453 391.856 114.368 402.153C143.959 424.075 165.929 457.143 160.894 493.29M164.022 13.7107C168.133 48.5824 150.503 85.6027 128.269 120.058C106.035 154.513 78.8051 188.525 62.3608 225.027C48.1891 256.488 41.3412 289.13 46.319 319.529C46.6321 321.476 47.0114 323.414 47.4347 325.347C51.1058 342.263 58.9825 358.341 72.3102 370.958C84.9226 382.911 100.58 391.473 114.757 401.541C145.094 423.088 167.311 456.491 162.015 492.887M162.189 13.6423C167.155 48.1241 150.409 85.1612 128.771 119.626C107.133 154.092 80.2561 188.059 63.6769 224.384C49.2637 255.94 41.8423 288.634 46.2932 319.251C46.5843 321.201 46.8978 323.169 47.2993 325.127C50.6856 342.209 58.3886 358.503 71.9144 371.073C84.6802 382.942 100.687 391.157 115.125 400.976C146.229 422.123 168.672 455.885 163.092 492.534M160.355 13.574C166.178 47.6873 150.337 84.7169 129.295 119.192C108.253 153.668 81.7292 187.612 64.9929 223.741C50.3598 255.369 42.3434 288.138 46.2454 318.977C46.4927 320.954 46.784 322.925 47.1415 324.888C50.243 342.136 57.7502 358.649 71.4965 371.191C84.4156 382.975 100.77 390.822 115.493 400.411C147.342 421.16 170.033 455.28 164.191 492.178M158.522 13.5056C165.178 47.2534 150.242 84.2754 129.797 118.74C109.351 153.204 83.1798 187.125 66.3086 223.076C51.434 254.8 42.8445 287.642 46.2192 318.678C46.4224 320.66 46.6921 322.656 47.0278 324.643C49.8442 342.036 57.156 358.79 71.1223 371.282C84.1949 382.982 100.876 390.485 115.882 399.821C148.499 420.148 171.415 454.671 165.312 491.797M156.688 13.4373C164.201 46.8166 150.17 83.8311 130.299 118.308C110.427 152.786 84.6306 186.659 67.6029 222.458C52.4864 254.255 43.3239 287.171 46.1716 318.425C46.3531 320.431 46.5786 322.433 46.8706 324.447C49.4022 342.006 56.5405 358.998 70.7049 371.444C83.9309 383.059 100.961 390.193 116.228 399.302C149.591 419.231 172.755 454.112 166.367 491.468M154.855 13.3474C163.202 46.3611 150.098 83.3652 130.801 117.856C111.503 152.346 86.0593 186.174 68.9187 221.793C53.5607 253.686 43.8248 286.653 46.1456 318.125C46.283 320.138 46.4868 322.164 46.7567 324.181C49.0036 341.905 55.9461 359.117 70.3307 371.513C83.7101 383.044 101.088 389.81 116.618 398.691C150.747 418.22 174.137 453.46 167.488 491.066M153.022 13.2791C162.224 45.9243 150.004 82.9237 131.324 117.4C112.645 151.876 87.532 185.684 70.2566 221.126C54.6567 253.092 44.3478 286.133 46.1196 317.826C46.2353 319.863 46.395 321.895 46.6211 323.939C48.5831 341.83 55.3299 359.26 69.9349 371.628C83.4677 383.075 101.194 389.472 117.007 398.123C151.904 417.23 175.52 452.852 168.609 490.707M151.188 13.2107C161.247 45.4876 149.931 82.4579 131.826 116.969C113.721 151.48 88.9828 185.218 71.5505 220.485C55.7089 252.548 44.8267 285.64 46.0716 317.552C46.1431 319.594 46.2811 321.65 46.4852 323.697C48.1624 341.754 54.7135 359.404 69.5385 371.722C83.2027 383.087 101.321 389.111 117.375 397.536C153.039 416.221 176.88 452.225 169.686 490.332M149.333 13.1452C160.226 45.0564 149.815 82.0192 132.306 116.54C114.798 151.062 90.3897 184.758 72.8446 219.845C56.7832 251.979 45.3059 285.147 46.0239 317.277C46.0737 319.344 46.1675 321.405 46.3278 323.48C47.72 341.681 54.0979 359.59 69.1207 371.84C82.9384 383.121 101.405 388.776 117.72 396.973C154.151 415.237 178.197 451.625 170.763 489.978M147.499 13.0769C159.248 44.6197 149.743 81.5749 132.83 116.106C115.918 150.638 91.8626 184.289 74.1608 219.223C57.8359 251.456 45.8073 284.673 45.9762 317.024C45.9819 319.097 46.0541 321.182 46.1706 323.284C47.2779 341.651 53.4601 359.78 68.6813 372.004C82.6523 383.2 101.467 388.487 118.045 396.457C155.243 414.299 179.514 451.089 171.819 489.671M145.666 12.987C158.248 44.1426 149.648 81.1118 133.332 115.632C117.015 150.152 93.2909 183.783 75.4764 218.537C58.9096 250.843 46.3079 284.134 45.9499 316.704C45.9118 318.803 45.9619 320.892 46.0564 322.996C46.879 341.529 52.8654 359.877 68.3067 372.052C82.4314 383.185 101.595 388.082 118.456 395.821C156.421 413.241 180.918 450.413 172.939 489.225M143.832 12.9186C157.271 43.7058 149.576 80.6675 133.834 115.201C118.092 149.734 94.7418 183.317 76.7924 217.894C59.9837 250.274 46.809 283.638 45.9241 316.426C45.8639 318.529 45.8705 320.666 45.9209 322.776C46.4587 341.474 52.2496 360.064 67.9111 372.189C82.1892 383.238 101.701 387.766 118.824 395.278C157.578 412.273 182.279 449.829 174.038 488.891M141.999 12.8503C156.294 43.269 149.482 80.226 134.336 114.77C119.19 149.313 96.1705 182.832 78.0866 217.254C61.0363 249.73 47.2885 283.166 45.8546 316.176C45.7507 318.305 45.7352 320.445 45.7639 322.58C46.0169 341.444 51.612 360.253 67.4936 372.329C81.9031 383.296 101.785 387.453 119.17 394.737C158.691 411.289 183.618 449.248 175.115 488.559M140.165 12.782C155.294 42.8351 149.409 79.7817 134.859 114.314C120.309 148.846 97.6209 182.344 79.4242 216.586C62.11 249.139 47.8113 282.646 45.8504 315.874C45.7245 318.007 45.6432 320.177 45.6498 322.314C45.6397 341.32 51.0397 360.391 67.1193 372.42C81.6823 383.303 101.912 387.091 119.559 394.147C159.847 410.277 185 448.618 176.214 488.181M138.332 12.7136C154.317 42.3983 149.315 79.3402 135.361 113.883C121.408 148.426 99.0719 181.878 80.7186 215.968C63.1625 248.595 48.2907 282.175 45.8029 315.621C45.6332 317.781 45.5299 319.953 45.5147 322.115C45.2199 341.287 50.3803 360.605 66.7238 372.557C81.4187 383.401 102.04 386.751 119.949 393.601C161.026 409.285 186.384 448.031 177.336 487.844M136.498 12.6237C153.317 41.9428 149.243 78.8744 135.863 113.43C122.484 147.986 100.5 181.394 82.0343 215.303C64.2364 248.004 48.7915 281.657 45.7547 315.325C45.5629 317.487 45.4158 319.687 45.3568 321.876C44.7772 341.214 49.7642 360.77 66.3058 372.675C81.1321 383.438 102.124 386.417 120.295 393.038C162.139 408.279 187.723 447.45 178.413 487.49M134.665 12.5554C152.34 41.5061 149.148 78.4329 136.387 112.975C123.625 147.516 101.951 180.885 83.3721 214.636C65.3102 247.413 49.3144 281.137 45.7507 315.023C45.5151 317.213 45.3459 319.415 45.2429 321.61C44.3785 341.114 49.1697 360.889 65.9314 372.744C80.9111 383.423 102.251 386.012 120.684 392.427C163.294 407.224 189.105 446.798 179.511 487.069M132.832 12.487C151.363 41.0693 149.076 77.967 136.889 112.543C124.702 147.12 103.335 180.384 84.6663 213.995C66.2962 246.834 49.7937 280.644 45.703 314.748C45.4454 316.941 45.2324 319.171 45.1076 321.389C43.9584 341.059 48.5539 361.054 65.5357 372.859C80.6688 383.454 102.357 385.674 121.052 391.862C164.451 406.213 190.466 446.193 180.61 486.713M130.998 12.4187C150.364 40.6354 148.982 77.5255 137.391 112.112C125.8 146.699 104.764 179.921 85.9822 213.352C67.3922 246.262 50.2946 280.148 45.677 314.471C45.3756 316.69 45.1406 318.923 44.972 321.169C43.5378 340.983 47.9598 361.216 65.14 372.996C80.4265 383.506 102.485 385.312 121.442 391.294C165.65 405.088 191.848 445.584 181.709 486.357M129.164 12.3288C149.386 40.1554 148.909 77.0596 137.915 111.657C126.92 146.253 106.237 179.431 87.2983 212.709C68.4668 245.715 50.8179 279.649 45.6293 314.196C45.2838 316.421 45.0271 318.679 44.8364 320.927C43.1174 340.907 47.3439 361.381 64.744 373.09C80.1839 383.516 102.59 384.953 121.809 390.707C166.763 404.103 193.187 444.96 182.808 485.979M127.331 12.2605C148.386 39.7215 148.815 76.6181 138.416 111.204C128.018 145.789 107.687 178.965 88.614 212.044C69.5407 245.124 51.3187 279.132 45.6031 313.897C41.9702 336.043 44.7449 360.201 64.348 373.205C79.9413 383.547 102.696 384.616 122.177 390.142C167.898 403.116 194.547 444.354 183.907 485.623M126.31 11.894C146.525 39.2248 147.368 75.7446 137.778 109.666C128.229 143.43 108.169 175.383 90.7668 207.947C86.6534 215.664 82.8306 223.646 78.6997 231.71C72.7609 243.245 66.6013 254.786 61.2793 266.22C55.3355 279.029 50.429 291.814 47.2257 304.835C46.8275 306.42 46.4736 308.02 46.1418 309.617C42.921 324.627 42.74 340.761 49.0093 353.869C51.9172 359.977 56.2517 365.449 62.3372 369.791C68.4898 374.188 75.8809 377.111 83.8809 379.329C95.7587 382.607 108.853 384.392 120.776 387.772C130.838 390.613 139.99 394.779 147.899 400.119C157.012 406.298 164.356 413.956 169.901 422.449C175.941 431.612 179.941 441.791 181.808 452.546C183.696 463.297 183.473 474.642 181.105 485.786M125.312 11.5247C144.664 38.7496 145.943 74.8467 137.161 108.103C128.44 141.071 108.673 171.82 92.9416 203.825C89.1805 211.475 86 219.613 81.9817 227.836C76.2221 239.563 69.5567 251.255 63.7478 262.601C57.2718 275.24 51.8094 287.729 48.0299 300.586C47.5652 302.157 47.1447 303.723 46.7244 305.31C42.8178 320.213 41.9091 336.418 47.6086 349.837C50.2761 356.126 54.3928 361.82 60.3489 366.395C66.3724 371.046 73.7671 374.227 81.8578 376.629C93.8493 380.152 107.231 381.985 119.376 385.424C129.659 388.323 139.032 392.525 146.945 398.102C156.105 404.535 163.058 412.61 168.209 421.369C173.767 430.831 177.262 441.205 178.867 452.187C180.449 463.172 180.207 474.778 178.326 485.989M124.292 11.1583C142.781 38.2557 144.496 73.93 136.522 106.565C128.673 138.665 109.179 168.322 95.0941 199.706C91.6857 207.311 89.1253 215.586 85.2197 223.989C79.6176 235.934 72.4682 247.752 66.1721 258.987C59.1863 271.476 53.1457 283.65 48.7679 296.346C48.2368 297.904 47.7278 299.459 47.2408 301.011C42.604 315.792 41.0118 332.063 46.1414 345.791C48.5461 352.244 52.4893 358.176 58.3162 362.983C64.2323 367.864 71.5867 371.331 79.7899 373.891C91.8727 377.64 105.543 379.545 117.953 383.036C128.458 385.993 138.031 390.256 145.99 396.043C155.176 402.753 161.781 411.218 166.516 420.267C171.615 430.005 174.605 440.594 175.925 451.785C177.223 462.979 176.941 474.871 175.525 486.153M123.271 10.7918C140.898 37.7618 143.049 73.0348 135.883 105.027C128.884 136.306 109.684 164.888 97.2471 195.609C94.1698 203.215 92.2952 211.596 88.4799 220.139C83.0572 232.298 75.4015 244.225 68.6185 255.37C61.1006 267.69 54.5263 279.586 49.5499 292.099C48.9522 293.623 48.3767 295.165 47.8013 296.707C42.4566 311.383 40.1368 327.725 44.7183 341.74C46.8826 348.374 50.608 354.529 56.3275 359.565C62.1367 364.698 69.4724 368.426 77.7885 371.166C89.985 375.159 103.92 377.117 116.597 380.682C127.323 383.697 137.095 388.022 145.08 394.021C154.314 401.006 160.548 409.864 164.868 419.204C169.485 429.218 171.991 439.999 173.028 451.42C174.042 462.845 173.719 475.002 172.79 486.351M122.251 10.4253C139.015 37.2679 141.602 72.1182 135.244 103.467C129.073 133.885 110.213 161.495 99.3996 191.49C96.6756 199.094 95.4425 207.566 91.7399 216.289C86.4965 228.642 78.3568 240.695 71.0651 251.776C63.0373 263.944 55.8848 275.525 50.3102 287.877C49.624 289.39 48.9821 290.919 48.3623 292.445C42.2876 307.021 39.2843 323.428 43.2957 337.732C45.1975 344.551 48.7272 350.925 54.3174 356.193C60.0195 361.577 67.3146 365.57 75.7431 368.468C88.031 372.688 102.276 374.713 115.174 378.337C126.122 381.41 136.116 385.771 144.103 392.008C153.363 399.248 159.25 408.518 163.132 418.151C167.288 428.44 169.29 439.436 170.02 451.07C170.751 462.704 170.388 475.146 169.945 486.562M121.23 10.0589C137.131 36.774 140.154 71.18 134.605 101.929C129.283 131.504 110.764 158.163 101.552 187.393C99.1598 195.019 98.5899 203.558 94.9999 212.439C89.9139 225.009 81.2902 237.189 73.4892 248.162C64.9734 260.155 57.2209 271.446 51.07 283.634C50.3171 285.112 49.6089 286.628 48.9006 288.144C42.118 302.615 38.3868 319.073 41.8503 333.683C43.5117 340.684 46.8456 347.278 52.3065 352.779C57.9016 358.414 65.1782 362.668 73.6975 365.749C86.099 370.213 100.61 372.291 113.774 375.967C124.943 379.098 135.136 383.52 143.149 389.97C152.456 397.485 157.972 407.126 161.44 417.071C165.136 427.635 166.633 438.847 167.079 450.711C167.525 462.575 167.122 475.282 167.165 486.766M120.209 9.69242C135.248 36.2801 138.684 70.2661 133.966 100.369C129.472 129.083 111.382 154.867 103.705 183.274C101.644 190.923 101.715 199.531 98.238 208.592C93.3315 221.377 84.2234 233.661 75.9136 244.548C66.8876 256.369 58.5574 267.388 51.808 279.393C50.9887 280.858 50.1917 282.342 49.417 283.845C41.9045 298.215 37.468 314.763 40.3831 329.638C41.7818 336.802 44.9202 343.636 50.2737 349.367C55.7398 355.256 62.9978 359.772 71.6296 363.011C84.1445 367.698 98.9212 369.829 112.329 373.603C123.72 376.793 134.112 381.254 142.15 387.938C151.483 395.731 156.652 405.761 159.703 415.976C162.939 426.814 163.931 438.22 164.093 450.315C164.256 462.41 163.811 475.381 164.319 486.935M119.189 9.32596C133.365 35.8078 137.236 69.3063 133.327 98.8307C129.66 126.683 116.983 152.662 105.858 179.177C105.564 186.924 104.863 195.522 101.498 204.742C96.7488 217.723 87.1791 230.153 78.3602 240.953C68.8245 252.623 59.916 263.327 52.5904 275.168C51.7047 276.62 50.8413 278.091 49.9779 279.562C41.7351 293.809 36.5933 310.447 38.9603 325.608C40.0965 332.957 43.0392 340.01 48.2634 345.974C53.6221 352.093 60.8618 356.891 69.5841 360.292C82.2124 365.202 97.255 367.407 110.929 371.234C122.563 374.478 133.155 379 141.217 385.876C150.598 393.922 155.397 404.366 158.032 414.871C160.809 425.985 161.296 437.606 161.174 449.91C161.03 462.217 160.567 475.471 161.562 487.093M118.19 8.95671C131.504 35.3111 135.789 68.3681 132.71 97.2682C129.848 124.24 118.153 149.359 108.054 175.031C108.29 182.775 108.054 191.465 104.802 200.865C100.232 214.06 90.1783 226.617 80.8502 237.31C70.8267 248.826 61.318 259.218 53.394 270.898C52.4196 272.318 51.5118 273.773 50.582 275.23C41.5873 289.38 35.7399 306.086 37.5808 321.53C38.4766 329.06 41.2235 336.333 46.3183 342.529C51.57 348.899 58.7691 353.962 67.6042 357.543C80.3241 362.7 95.6765 364.952 109.594 368.834C121.45 372.137 132.241 376.698 140.328 383.808C149.735 392.131 154.185 402.945 156.406 413.762C158.722 425.128 158.704 436.987 158.276 449.524C157.848 462.061 157.345 475.58 158.827 487.269M117.17 8.59025C129.62 34.8172 134.318 67.3895 132.071 95.73C130.015 121.822 119.323 146.078 110.207 170.933C110.973 178.653 111.201 187.457 108.04 197.017C103.627 210.409 93.1115 223.089 83.2745 233.696C72.7409 245.04 62.6762 255.136 54.1543 266.676C53.1134 268.083 52.1172 269.527 51.121 270.972C41.3963 285.02 34.8433 301.794 36.1141 317.527C36.7474 325.242 39.2986 332.735 44.264 339.163C49.3867 345.787 56.5893 351.109 65.5369 354.848C78.3702 360.229 93.9885 362.554 108.149 366.513C120.227 369.874 131.218 374.497 139.33 381.819C148.785 390.417 152.887 401.62 154.648 412.733C156.504 424.375 155.981 436.427 155.269 449.195C154.557 461.941 154.013 475.746 155.982 487.502M116.15 8.22376C127.737 34.3233 132.826 66.4138 131.432 94.1918C130.159 119.406 120.471 142.8 112.36 166.836C113.656 174.553 114.349 183.449 111.3 193.189C107.067 206.795 96.0675 219.602 85.7215 230.123C74.7 241.312 64.0354 251.118 54.9149 262.475C53.8076 263.869 52.7227 265.282 51.6601 266.713C41.1831 280.641 33.9248 297.506 34.6695 313.522C35.0404 321.422 37.3958 329.133 42.254 335.791C47.2696 342.667 54.4536 348.25 63.492 352.172C76.4387 357.776 92.3229 360.175 106.75 364.187C119.049 367.606 130.261 372.286 138.376 379.824C147.856 388.7 151.61 400.271 152.956 411.675C154.374 423.588 153.324 435.859 152.328 448.836C151.332 461.813 150.748 475.882 153.18 487.687M115.129 7.85731C125.854 33.8294 134.975 65.3188 130.793 92.632C127.058 117.038 121.641 139.498 114.512 162.717C116.316 170.434 117.474 179.422 114.56 189.318C110.484 203.12 99.0447 216.069 88.1674 226.485C76.6582 237.521 65.3933 247.014 55.6966 258.208C54.5226 259.567 53.3715 260.988 52.2201 262.387C41.0133 276.214 33.5787 293.101 33.246 309.449C33.09 317.567 35.5364 325.483 40.2649 332.352C45.1735 339.479 52.3169 345.327 61.4678 349.407C74.5058 355.236 90.678 357.707 105.348 361.774C117.869 365.251 129.28 369.971 137.421 377.743C146.949 386.872 150.355 398.855 151.263 410.552C152.221 422.74 150.666 435.227 149.386 448.413C148.106 461.62 147.481 475.954 150.4 487.826M114.108 7.46928C123.992 33.3111 133.702 64.2072 130.176 91.0695C127.071 114.66 122.811 136.196 116.687 158.595C119.02 166.31 120.643 175.389 117.82 185.468C113.901 199.466 102 212.56 90.6141 222.89C78.6171 233.772 66.7518 242.953 56.4569 253.986C55.1944 255.335 53.9766 256.721 52.7589 258.107C40.7998 271.814 32.1309 288.859 31.8011 305.422C31.6471 313.692 33.6333 321.861 38.2324 328.962C43.012 336.342 50.1588 342.449 59.4005 346.712C72.5522 352.786 89.012 355.307 103.926 359.429C116.668 362.964 128.279 367.745 136.445 375.73C145.998 385.136 149.056 397.487 149.548 409.497C150.046 421.938 147.987 434.64 146.423 448.078C144.859 461.495 144.194 476.114 147.599 488.054M113.088 7.10282C122.109 32.8172 132.406 63.0983 129.537 89.5097C127.061 112.308 123.981 132.893 118.84 154.476C121.703 162.188 123.791 171.359 121.08 181.596C117.341 195.809 104.956 209.03 93.0381 219.254C80.5533 229.983 68.0878 238.852 57.2166 249.721C55.8875 251.035 54.6033 252.408 53.3194 253.803C40.6303 267.409 31.2338 284.524 30.378 301.371C29.9615 309.825 31.7519 318.213 36.2438 325.544C40.9163 333.176 48.0226 339.547 57.3767 343.968C70.6418 350.266 87.3673 352.839 102.547 357.056C115.511 360.65 127.343 365.467 135.534 373.686C145.136 383.367 147.559 396.145 147.9 408.412C148.247 421.088 145.374 434.045 143.504 447.695C141.655 461.342 140.928 476.229 144.842 488.233M112.067 6.73638C120.226 32.3449 131.066 61.952 128.898 87.9716C127.074 109.974 125.129 129.615 120.992 150.379C124.385 158.088 126.916 167.354 124.34 177.768C120.758 192.176 107.933 205.54 95.4846 215.66C82.49 226.237 69.4465 234.813 57.9767 245.499C56.5812 246.8 55.2086 248.163 53.858 249.523C40.4167 263.009 30.3149 280.214 28.9329 297.344C28.2319 305.986 29.8707 314.588 34.2332 322.151C38.7767 330.037 45.8861 336.645 55.3313 341.271C68.7098 347.791 85.7012 350.438 101.125 354.711C114.31 358.362 126.342 363.241 134.558 371.673C144.185 381.61 146.546 394.741 146.186 407.356C145.786 420.343 142.695 433.48 140.54 447.339C138.386 461.198 137.64 476.367 142.019 488.442M111.069 6.3671C118.365 31.8481 125.275 61.4171 128.281 86.409C130.766 107.083 126.322 126.31 123.167 146.236C127.068 153.944 130.085 163.299 127.622 173.872C124.197 188.498 110.911 201.985 97.9528 212.019C84.4704 222.443 70.8487 230.704 58.7806 241.228C57.2966 242.519 55.8793 243.844 54.4403 245.194C40.2467 258.56 29.44 275.877 27.5316 293.268C26.5682 302.095 28.0112 310.916 32.2443 318.712C36.6808 326.849 43.7716 333.719 53.3294 338.503C66.8212 345.246 84.1006 347.965 99.7679 352.293C113.175 356.002 125.406 360.942 133.647 369.587C143.299 379.801 145.335 393.319 144.515 406.209C143.677 419.468 140.058 432.801 137.62 446.913C135.182 461.002 134.395 476.436 139.261 488.578M110.048 6.00061C116.482 31.3542 123.716 60.4066 127.643 84.8708C130.822 104.636 127.47 123.032 125.32 142.138C129.75 149.844 133.233 159.291 130.86 170.046C127.593 184.868 113.866 198.498 100.377 208.427C86.4073 218.697 72.1852 226.646 59.5189 237.009C57.9682 238.265 56.4628 239.602 54.957 240.917C40.0112 254.163 28.4771 271.573 26.0647 289.244C24.8388 298.255 26.0864 307.318 30.2119 315.322C34.5193 323.713 41.5916 330.844 51.2621 335.808C64.8453 342.777 82.4127 345.567 98.3238 349.972C111.952 353.739 124.405 358.715 132.649 367.597C142.349 378.086 144.037 391.973 142.779 405.178C141.503 418.687 137.358 432.261 134.635 446.581C131.913 460.901 131.086 476.599 136.438 488.809M109.028 5.63417C114.599 30.8603 122.112 59.3803 127.003 83.311C130.855 102.17 128.64 119.73 127.472 138.02C132.432 145.701 136.38 155.261 134.12 166.175C131.032 181.211 116.822 194.99 102.823 204.788C88.3658 214.927 73.5431 222.542 60.3006 232.741C58.6835 233.984 57.1113 235.286 55.5392 236.588C39.8411 249.714 27.6017 267.214 24.6632 285.169C23.1528 294.367 24.2266 303.646 28.2449 311.88C32.4452 320.522 39.499 327.915 49.26 333.04C62.9565 340.232 80.7899 343.096 96.9666 347.554C110.839 351.376 123.469 356.416 131.737 365.489C141.463 376.234 142.825 390.53 141.13 404.028C139.394 417.812 134.743 431.601 131.737 446.13C128.731 460.659 127.863 476.643 133.702 488.921M108.007 5.26772C112.715 30.3664 120.509 58.3755 126.365 81.7729C130.844 99.7092 129.788 116.452 129.625 133.922C135.115 141.601 139.506 151.256 137.38 162.347C134.45 177.579 119.778 191.502 105.27 201.215C90.3469 211.197 74.9022 218.524 61.0611 228.541C59.3776 229.771 57.7167 231.041 56.0784 232.351C39.6281 245.357 26.6614 262.95 23.2189 281.185C21.446 290.568 22.3241 300.066 26.213 308.533C30.2843 317.429 37.3414 325.08 47.1929 330.367C61.0032 337.804 79.1021 340.72 95.5225 345.233C109.616 349.114 122.445 354.193 130.761 363.498C140.535 374.517 141.549 389.202 139.416 402.994C137.242 417.05 132.064 431.036 128.752 445.798C125.462 460.558 124.554 476.807 130.857 489.154M106.987 4.90125C110.832 29.8725 118.862 57.3764 125.726 80.2347C130.833 97.2701 130.958 113.171 131.778 129.825C137.776 137.503 142.653 147.247 140.618 158.499C137.845 173.949 122.734 188.015 107.694 197.601C92.2833 207.43 76.2383 214.445 61.821 224.297C60.0488 225.495 58.3217 226.774 56.6168 228.05C39.4141 240.936 25.7421 258.619 21.7735 277.137C19.7162 286.707 20.4205 296.422 24.2021 305.118C28.1664 314.265 35.1827 322.16 45.1472 327.647C59.0709 335.308 77.4578 338.295 94.1221 342.885C108.437 346.824 121.488 351.961 129.807 361.481C139.606 372.778 140.294 387.829 137.723 401.936C135.112 416.264 129.407 430.468 125.811 445.461C122.237 460.452 121.288 476.964 128.078 489.379M105.966 4.53478C108.949 29.3786 117.193 56.38 125.087 78.6749C130.801 94.8339 132.106 109.871 133.931 125.706C140.458 133.382 145.778 143.22 143.878 154.65C141.262 170.295 125.689 184.506 110.119 193.988C94.2202 203.684 77.5967 210.362 62.5591 220.056C60.7204 221.241 58.9267 222.485 57.1332 223.751C39.2004 236.514 24.779 254.293 20.3064 273.091C17.9863 282.825 18.5175 292.799 22.1694 301.706C26.0046 311.107 33.0244 319.26 43.0795 324.909C57.1165 332.793 75.7693 335.854 92.6992 340.496C107.236 344.494 120.486 349.67 128.83 359.425C138.677 370.974 139.017 386.437 135.986 400.819C132.937 415.418 126.706 429.841 122.825 445.043C118.944 460.246 117.977 477.041 125.254 489.524M104.946 4.16834C107.066 28.9063 115.48 55.4109 124.448 77.1368C130.746 92.4005 133.277 106.59 136.083 121.609C143.141 129.282 148.926 139.212 147.138 150.8C144.68 166.663 128.667 181.017 112.565 190.393C96.1792 199.957 78.9551 206.302 63.3413 215.832C61.4362 217.003 59.5537 218.216 57.7159 219.465C39.0308 232.108 23.9042 249.977 18.9055 269.058C16.3009 278.98 16.6584 289.171 20.1809 298.31C23.9091 307.963 30.9103 316.377 41.0782 322.206C55.2286 330.313 74.1471 333.427 91.3209 338.145C106.079 342.201 119.529 347.438 127.898 357.406C137.771 369.233 137.784 385.061 134.316 399.757C130.829 414.629 124.07 429.249 119.906 444.682C115.741 460.115 114.734 477.175 122.497 489.703M103.947 3.79906C105.205 28.4096 113.767 54.4633 123.831 75.5742C130.691 89.9671 134.447 103.288 138.258 117.465C145.845 125.135 152.095 135.158 150.42 146.925C148.141 162.982 131.644 177.483 115.034 186.752C98.1596 196.162 80.3355 202.217 64.1231 211.564C62.1513 212.701 60.2027 213.921 58.2765 215.161C38.8388 227.662 22.9851 245.646 17.4824 265.007C14.6153 275.113 14.777 285.524 18.1923 294.892C21.7914 304.799 28.7958 313.451 39.0544 319.463C53.3179 327.771 72.5247 330.977 89.9424 335.773C104.922 339.886 118.593 345.182 126.965 355.365C136.886 367.467 136.551 383.685 132.646 398.675C128.721 413.818 121.435 428.656 116.986 444.298C112.538 459.94 111.49 477.286 119.717 489.885M102.927 3.4326C103.321 27.9157 111.988 53.5457 123.192 74.036C130.593 87.5825 135.617 100.007 140.41 113.368C148.506 121.038 155.198 131.155 153.658 143.078C151.492 159.336 134.6 173.996 117.458 183.16C100.097 192.438 81.6718 198.159 64.8832 207.342C62.823 208.469 60.8077 209.655 58.815 210.881C38.6251 223.262 22.0438 241.317 16.0373 260.98C12.8857 271.274 12.8737 281.901 16.1597 291.502C19.6518 301.66 26.6376 310.573 36.987 316.768C51.3638 325.299 70.8365 328.58 88.4978 333.431C103.699 337.602 117.57 342.937 125.967 353.354C135.913 365.712 135.253 382.339 130.91 397.622C126.546 413.016 118.712 428.097 113.979 443.969C109.247 459.842 108.158 477.452 116.872 490.119M101.906 3.06611C101.46 27.4189 110.188 52.6524 122.553 72.4762C130.495 85.1978 136.765 96.7074 142.585 109.246C151.21 116.892 158.368 127.122 156.941 139.225C154.954 155.698 137.578 170.506 119.927 179.541C102.078 188.686 83.0524 194.073 65.6655 203.096C63.5385 204.188 61.4568 205.36 59.3757 206.576C38.4336 218.838 21.1249 236.985 14.6144 256.929C11.2001 267.386 10.9926 278.253 14.1712 288.084C17.5343 298.497 24.5015 307.671 34.9634 314.024C49.4536 322.778 69.1922 326.133 87.1192 331.037C102.542 335.266 116.612 340.662 125.056 351.289C135.05 363.922 134.042 380.939 129.261 396.494C124.46 412.181 116.098 427.437 111.081 443.54C106.065 459.643 104.936 477.518 114.137 490.252M100.886 2.69968C99.5768 26.9251 108.344 51.808 121.914 70.9381C130.375 82.8591 136.033 94.814 144.738 105.149C152.411 114.255 161.515 123.114 160.201 135.376C158.371 152.044 140.556 167.016 122.373 175.924C104.036 184.916 84.4107 190.013 66.4473 198.849C64.254 199.928 62.0838 201.091 59.958 202.269C38.2633 214.389 20.2276 232.651 13.2131 252.875C9.51423 263.519 9.11128 274.628 12.2043 284.664C15.4383 295.33 22.4088 304.742 32.9617 311.299C47.5653 320.277 67.5699 323.706 85.7624 328.662C101.407 332.949 115.698 338.381 124.145 349.246C134.165 362.156 132.831 379.56 127.612 395.408C122.351 411.37 113.485 426.842 108.184 443.154C102.883 459.467 101.714 477.627 111.401 490.428M99.8651 2.3332C97.6935 26.4311 106.501 51.0282 121.275 69.3999C130.234 80.5447 137.642 91.3475 146.891 101.052C155.378 109.946 164.641 119.108 163.439 131.55C161.767 148.436 143.49 163.532 124.798 172.354C105.973 181.214 85.7695 185.974 67.1858 194.652C64.9261 195.718 62.6892 196.845 60.475 198.013C38.028 210.014 19.287 228.365 11.7464 248.873C7.76307 259.704 7.20841 271.027 10.1501 281.298C13.255 292.218 20.2289 301.889 30.8724 308.607C45.5894 317.808 65.8819 321.308 84.2963 326.343C100.162 330.689 114.653 336.182 123.125 347.238C133.192 360.401 131.51 378.195 125.832 394.361C120.133 410.595 110.739 426.285 105.155 442.828C99.5701 459.371 98.3601 477.796 108.512 490.667M98.8446 1.96675C95.8105 25.9588 104.615 50.2756 120.636 67.8401C130.114 78.2276 139.229 87.8192 149.043 96.9328C158.366 105.569 167.788 115.078 166.699 127.678C165.184 144.76 146.467 160.021 127.244 168.716C107.932 177.443 87.1275 181.87 67.9675 190.384C65.619 191.418 63.3158 192.532 61.0354 193.709C37.8579 205.565 18.3675 224.012 10.3012 244.824C6.05508 255.819 5.30494 267.382 8.13931 277.883C11.1372 289.055 18.0705 298.99 28.8485 305.864C43.6571 315.312 64.2373 318.861 82.9174 323.95C99.0051 328.353 113.695 333.908 122.192 345.176C132.285 358.617 130.277 376.798 124.162 393.257C118.024 409.763 108.104 425.65 102.235 442.423C96.3664 459.197 95.1158 477.886 105.754 490.825M97.8238 1.57875C93.927 25.4434 102.728 49.5445 119.997 66.2804C129.974 75.9564 140.77 84.2318 151.196 92.8139C161.331 101.152 170.935 111.048 169.959 123.829C168.623 141.125 149.446 156.574 129.668 165.102C109.869 173.741 88.4637 177.79 68.7054 186.143C66.2905 187.164 63.8986 188.247 61.5518 189.41C37.5994 201.106 17.4043 219.686 8.83391 240.779C4.30334 251.961 3.37948 263.741 6.10653 274.471C8.97537 285.897 15.9122 296.09 26.7809 303.147C41.7029 312.818 62.5487 316.421 81.4727 321.586C97.8037 326.023 112.693 331.638 121.193 343.144C131.334 356.859 129.001 375.449 122.425 392.183C115.872 408.958 105.402 425.066 99.2274 442.051C93.0526 459.037 91.7616 478.012 102.909 491.016M96.8254 1.20944C92.0658 24.9466 100.865 48.8969 119.38 64.7178C129.877 73.6795 142.289 80.6041 153.371 88.6921C164.34 96.6864 174.105 107.016 173.241 119.954C172.062 137.447 152.423 153.041 132.136 161.483C111.85 169.968 89.8443 173.727 69.5096 181.894C67.0283 182.902 64.5699 183.971 62.1344 185.103C37.4518 196.676 16.485 215.333 7.43286 236.725C2.61749 248.073 1.52022 260.091 4.11793 271.054C6.87974 282.731 13.7979 293.186 24.7571 300.404C39.7925 310.298 60.9043 313.974 80.0942 319.213C96.6468 323.709 111.736 329.385 120.283 341.101C130.449 355.072 127.79 374.049 120.776 391.076C113.786 408.123 102.789 424.449 96.3298 441.644C89.871 458.86 88.5395 478.099 100.173 491.17M95.8049 0.842995C90.1826 24.4527 98.9583 48.298 118.741 63.1796C129.781 71.4673 143.742 76.9633 155.523 84.5732C167.304 92.1832 177.23 102.989 176.478 116.086C175.457 133.795 155.356 149.513 134.56 157.847C113.764 166.182 91.1802 169.626 70.2472 177.632C41.6043 188.587 16.4864 208.854 5.98761 232.676C-4.51115 256.498 1.23595 283.343 22.7116 297.685C50.9153 316.545 100.834 313.283 119.306 339.066C129.521 353.311 126.491 372.681 119.062 389.999C111.611 407.32 100.109 423.841 93.3666 441.288C86.6239 458.734 85.2517 478.238 97.3501 491.379" stroke="url(#paint0_linear_85_332)" stroke-width="0.5" stroke-miterlimit="10"/>
<defs>
<linearGradient id="paint0_linear_85_332" x1="154.715" y1="77.3567" x2="210.12" y2="498.053" gradientUnits="userSpaceOnUse">
<stop stop-color="#2973FF"/>
<stop offset="0.48974" stop-color="#8846D3" stop-opacity="0.12"/>
<stop offset="1" stop-color="#FF22AC" stop-opacity="0.11"/>
</linearGradient>
</defs>
</svg>
