<svg width="39" height="40" viewBox="0 0 39 40" fill="none" xmlns="http://www.w3.org/2000/svg">
<g clip-path="url(#clip0_46_36)">
<path d="M33.317 5.81282C29.6507 2.06655 24.7758 0.00228568 19.5818 0C8.87883 0 0.168769 8.89125 0.164484 19.8199C0.163237 23.3132 1.05712 26.7233 2.75616 29.7291L0.00146484 40L10.2948 37.2439C13.1308 38.8233 16.324 39.6555 19.5734 39.6568H19.5817H19.5818C30.283 39.6568 38.9944 30.764 38.9989 19.8359C39.0007 14.5394 36.9827 9.55935 33.317 5.81282ZM19.5818 36.3092H19.5755C16.6791 36.3076 13.8388 35.5136 11.3613 34.0124L10.7717 33.6555L4.66343 35.2909L6.29425 29.2117L5.91011 28.5885C4.29448 25.9653 3.44155 22.9339 3.44277 19.8211C3.44632 10.7376 10.6858 3.34778 19.5879 3.34778C23.8988 3.34961 27.9505 5.06544 30.9977 8.17922C34.0448 11.293 35.7216 15.4323 35.7204 19.8345C35.7166 28.9183 28.4769 36.3092 19.5818 36.3092Z" fill="#E0E0E0"/>
<path d="M0.892578 38.8604L3.52144 29.0587C1.8996 26.1901 1.04671 22.9356 1.04773 19.6024C1.05198 9.17324 9.36425 0.688385 19.5774 0.688385C24.5344 0.690671 29.1868 2.66054 32.6847 6.23577C36.1835 9.81098 38.1091 14.5632 38.1071 19.6172C38.1028 30.0467 29.7901 38.5323 19.5782 38.5323C19.5774 38.5323 19.5787 38.5323 19.5782 38.5323H19.5699C16.4689 38.5312 13.4218 37.7364 10.7155 36.2303L0.892578 38.8604Z" fill="url(#paint0_linear_46_36)"/>
<path fill-rule="evenodd" clip-rule="evenodd" d="M14.7836 11.4054C14.4243 10.5898 14.0461 10.5735 13.7043 10.5592C13.4248 10.547 13.1048 10.5477 12.7853 10.5477C12.4655 10.5477 11.9459 10.6704 11.5064 11.1605C11.0667 11.6505 9.82764 12.8352 9.82764 15.2446C9.82764 17.6543 11.5464 19.9826 11.786 20.3096C12.0258 20.6361 15.1038 25.7386 19.9786 27.7016C24.0299 29.3329 24.8543 29.0084 25.7337 28.9268C26.6131 28.8452 28.5712 27.7424 28.9709 26.5988C29.3706 25.4554 29.3706 24.4753 29.2507 24.2705C29.1308 24.0664 28.811 23.9439 28.3313 23.699C27.8517 23.4542 25.4939 22.2692 25.0542 22.106C24.6145 21.9427 24.2947 21.8611 23.975 22.3514C23.6552 22.8412 22.7366 23.9439 22.4568 24.2705C22.177 24.5977 21.8972 24.6386 21.4175 24.3937C20.9379 24.148 19.3932 23.6314 17.5608 21.9631C16.1351 20.6651 15.1725 19.0621 14.8927 18.5718C14.6129 18.082 14.8627 17.8167 15.1033 17.5726C15.3187 17.3532 15.583 17.0009 15.8228 16.7149C16.0621 16.4289 16.1421 16.2249 16.302 15.8983C16.4618 15.5713 16.3819 15.2853 16.262 15.0404C16.1421 14.7956 15.21 12.3737 14.7836 11.4054Z" fill="white"/>
<path d="M33.1582 5.74984C29.534 2.04657 24.715 0.00604148 19.5807 0.00372314C9.00055 0.00372314 0.390483 8.7929 0.38623 19.5961C0.384983 23.0494 1.2686 26.4202 2.94813 29.3916L0.225098 39.5445L10.4003 36.8201C13.2038 38.3812 16.3603 39.204 19.5724 39.2052H19.5806H19.5807C30.1591 39.2052 38.7704 30.4145 38.7749 19.6119C38.7767 14.3762 36.7818 9.45336 33.1582 5.74984ZM19.5807 35.8961H19.5745C16.7113 35.8946 13.9035 35.1096 11.4545 33.6257L10.8717 33.2729L4.83353 34.8895L6.44562 28.8801L6.06589 28.2641C4.4688 25.671 3.62566 22.6743 3.62691 19.5974C3.63039 10.6181 10.7868 3.31313 19.5867 3.31313C23.8482 3.31493 27.8533 5.01107 30.8656 8.0891C33.8777 11.1671 35.5352 15.2589 35.534 19.6106C35.5302 28.5901 28.3736 35.8961 19.5807 35.8961Z" fill="white"/>
</g>
<defs>
<linearGradient id="paint0_linear_46_36" x1="19.4998" y1="38.8604" x2="19.4998" y2="0.688449" gradientUnits="userSpaceOnUse">
<stop stop-color="#20B038"/>
<stop offset="1" stop-color="#60D66A"/>
</linearGradient>
<clipPath id="clip0_46_36">
<rect width="39" height="40" fill="white"/>
</clipPath>
</defs>
</svg>
