<svg width="38" height="37" viewBox="0 0 38 37" fill="none" xmlns="http://www.w3.org/2000/svg">
<g filter="url(#filter0_ii_85_136)">
<path d="M18.3013 32.0399C18.7446 32.2785 19.3023 32.2794 19.7476 32.0445C31.883 25.6041 32.7967 12.9244 32.8014 9.31801C32.8015 9.02815 32.7169 8.74456 32.558 8.50197C32.399 8.25938 32.1726 8.06832 31.9065 7.95218L19.7642 2.52188C19.5709 2.43588 19.3618 2.39113 19.1502 2.39049C18.9387 2.38985 18.7293 2.43334 18.5355 2.51817L6.43209 7.84549C6.16895 7.95944 5.94417 8.14649 5.78454 8.38435C5.62492 8.62221 5.53716 8.90086 5.53174 9.18711C5.46512 12.7752 6.135 25.4888 18.3013 32.0399Z" fill="url(#paint0_linear_85_136)"/>
</g>
<g filter="url(#filter1_dii_85_136)">
<path fill-rule="evenodd" clip-rule="evenodd" d="M26.6837 11.0367C27.4226 11.7715 27.426 12.9661 26.6913 13.7051L18.8033 21.6384C18.0896 22.3561 16.9366 22.3829 16.1904 21.699L12.5282 18.3425C11.7599 17.6384 11.7079 16.4449 12.412 15.6767C13.1161 14.9084 14.3097 14.8564 15.0779 15.5605L17.4046 17.6929L24.0153 11.0443C24.75 10.3054 25.9447 10.302 26.6837 11.0367Z" fill="white"/>
</g>
<g filter="url(#filter2_dii_85_136)">
<path fill-rule="evenodd" clip-rule="evenodd" d="M26.6842 11.0367C27.4231 11.7715 27.4265 12.9661 26.6918 13.7051L18.8038 21.6384C18.0901 22.3561 16.9371 22.3829 16.1909 21.699L12.5287 18.3425C11.7604 17.6384 11.7084 16.4449 12.4125 15.6767C13.1166 14.9084 14.3101 14.8564 15.0784 15.5605L17.4051 17.6929L24.0158 11.0443C24.7505 10.3054 25.9452 10.302 26.6842 11.0367Z" fill="white"/>
</g>
<defs>
<filter id="filter0_ii_85_136" x="5.52783" y="-9.11518" width="27.2734" height="41.3349" filterUnits="userSpaceOnUse" color-interpolation-filters="sRGB">
<feFlood flood-opacity="0" result="BackgroundImageFix"/>
<feBlend mode="normal" in="SourceGraphic" in2="BackgroundImageFix" result="shape"/>
<feColorMatrix in="SourceAlpha" type="matrix" values="0 0 0 0 0 0 0 0 0 0 0 0 0 0 0 0 0 0 127 0" result="hardAlpha"/>
<feOffset dy="-11.5056"/>
<feGaussianBlur stdDeviation="18.902"/>
<feComposite in2="hardAlpha" operator="arithmetic" k2="-1" k3="1"/>
<feColorMatrix type="matrix" values="0 0 0 0 0 0 0 0 0 0 0 0 0 0 0 0 0 0 0.25 0"/>
<feBlend mode="normal" in2="shape" result="effect1_innerShadow_85_136"/>
<feColorMatrix in="SourceAlpha" type="matrix" values="0 0 0 0 0 0 0 0 0 0 0 0 0 0 0 0 0 0 127 0" result="hardAlpha"/>
<feOffset dy="-1"/>
<feGaussianBlur stdDeviation="2.5"/>
<feComposite in2="hardAlpha" operator="arithmetic" k2="-1" k3="1"/>
<feColorMatrix type="matrix" values="0 0 0 0 0.974333 0 0 0 0 1 0 0 0 0 0.954167 0 0 0 0.67 0"/>
<feBlend mode="normal" in2="effect1_innerShadow_85_136" result="effect2_innerShadow_85_136"/>
</filter>
<filter id="filter1_dii_85_136" x="5.91602" y="5.48779" width="27.3242" height="25.707" filterUnits="userSpaceOnUse" color-interpolation-filters="sRGB">
<feFlood flood-opacity="0" result="BackgroundImageFix"/>
<feColorMatrix in="SourceAlpha" type="matrix" values="0 0 0 0 0 0 0 0 0 0 0 0 0 0 0 0 0 0 127 0" result="hardAlpha"/>
<feOffset dy="3"/>
<feGaussianBlur stdDeviation="3"/>
<feColorMatrix type="matrix" values="0 0 0 0 0 0 0 0 0 0 0 0 0 0 0 0 0 0 0.15 0"/>
<feBlend mode="normal" in2="BackgroundImageFix" result="effect1_dropShadow_85_136"/>
<feBlend mode="normal" in="SourceGraphic" in2="effect1_dropShadow_85_136" result="shape"/>
<feColorMatrix in="SourceAlpha" type="matrix" values="0 0 0 0 0 0 0 0 0 0 0 0 0 0 0 0 0 0 127 0" result="hardAlpha"/>
<feOffset dy="-5"/>
<feGaussianBlur stdDeviation="2.5"/>
<feComposite in2="hardAlpha" operator="arithmetic" k2="-1" k3="1"/>
<feColorMatrix type="matrix" values="0 0 0 0 0 0 0 0 0 0 0 0 0 0 0 0 0 0 0.25 0"/>
<feBlend mode="normal" in2="shape" result="effect2_innerShadow_85_136"/>
<feColorMatrix in="SourceAlpha" type="matrix" values="0 0 0 0 0 0 0 0 0 0 0 0 0 0 0 0 0 0 127 0" result="hardAlpha"/>
<feOffset dy="-2"/>
<feGaussianBlur stdDeviation="3"/>
<feComposite in2="hardAlpha" operator="arithmetic" k2="-1" k3="1"/>
<feColorMatrix type="matrix" values="0 0 0 0 1 0 0 0 0 1 0 0 0 0 1 0 0 0 0.85 0"/>
<feBlend mode="normal" in2="effect2_innerShadow_85_136" result="effect3_innerShadow_85_136"/>
</filter>
<filter id="filter2_dii_85_136" x="5.9165" y="7.48779" width="27.3242" height="23.707" filterUnits="userSpaceOnUse" color-interpolation-filters="sRGB">
<feFlood flood-opacity="0" result="BackgroundImageFix"/>
<feColorMatrix in="SourceAlpha" type="matrix" values="0 0 0 0 0 0 0 0 0 0 0 0 0 0 0 0 0 0 127 0" result="hardAlpha"/>
<feOffset dy="3"/>
<feGaussianBlur stdDeviation="3"/>
<feColorMatrix type="matrix" values="0 0 0 0 0 0 0 0 0 0 0 0 0 0 0 0 0 0 0.15 0"/>
<feBlend mode="normal" in2="BackgroundImageFix" result="effect1_dropShadow_85_136"/>
<feBlend mode="normal" in="SourceGraphic" in2="effect1_dropShadow_85_136" result="shape"/>
<feColorMatrix in="SourceAlpha" type="matrix" values="0 0 0 0 0 0 0 0 0 0 0 0 0 0 0 0 0 0 127 0" result="hardAlpha"/>
<feOffset dy="-2"/>
<feGaussianBlur stdDeviation="2.5"/>
<feComposite in2="hardAlpha" operator="arithmetic" k2="-1" k3="1"/>
<feColorMatrix type="matrix" values="0 0 0 0 0 0 0 0 0 0 0 0 0 0 0 0 0 0 0.25 0"/>
<feBlend mode="normal" in2="shape" result="effect2_innerShadow_85_136"/>
<feColorMatrix in="SourceAlpha" type="matrix" values="0 0 0 0 0 0 0 0 0 0 0 0 0 0 0 0 0 0 127 0" result="hardAlpha"/>
<feOffset dy="-1"/>
<feGaussianBlur stdDeviation="1"/>
<feComposite in2="hardAlpha" operator="arithmetic" k2="-1" k3="1"/>
<feColorMatrix type="matrix" values="0 0 0 0 1 0 0 0 0 1 0 0 0 0 1 0 0 0 0.85 0"/>
<feBlend mode="normal" in2="effect2_innerShadow_85_136" result="effect3_innerShadow_85_136"/>
</filter>
<linearGradient id="paint0_linear_85_136" x1="5.58595" y1="-4.10765" x2="35.2652" y2="-2.13521" gradientUnits="userSpaceOnUse">
<stop stop-color="#F71B2C"/>
<stop offset="0.461458" stop-color="#ED1B8D"/>
<stop offset="1" stop-color="#FF7027"/>
</linearGradient>
</defs>
</svg>
