<svg width="40" height="40" viewBox="0 0 40 40" fill="none" xmlns="http://www.w3.org/2000/svg">
<rect x="0.5" y="0.5" width="39" height="39" rx="19.5" stroke="url(#paint0_linear_73_75)"/>
<path d="M15.7439 20.5868H17.717V28.7097C17.717 28.8701 17.847 29 18.0073 29H21.3528C21.5132 29 21.6431 28.8701 21.6431 28.7097V20.6251H23.9114C24.0588 20.6251 24.1829 20.5144 24.1998 20.3679L24.5443 17.3775C24.5537 17.2952 24.5276 17.2128 24.4726 17.1511C24.4175 17.0893 24.3386 17.0539 24.2559 17.0539H21.6432V15.1794C21.6432 14.6143 21.9475 14.3277 22.5476 14.3277C22.6332 14.3277 24.2559 14.3277 24.2559 14.3277C24.4163 14.3277 24.5462 14.1977 24.5462 14.0374V11.2925C24.5462 11.1321 24.4163 11.0021 24.2559 11.0021H21.9017C21.8851 11.0013 21.8482 11 21.7939 11C21.3854 11 19.9655 11.0802 18.8439 12.112C17.6012 13.2554 17.774 14.6244 17.8153 14.8618V17.0539H15.7439C15.5836 17.0539 15.4536 17.1838 15.4536 17.3442V20.2964C15.4536 20.4568 15.5836 20.5868 15.7439 20.5868Z" fill="white"/>
<defs>
<linearGradient id="paint0_linear_73_75" x1="1.64251e-07" y1="-8.63637" x2="43.5091" y2="-5.67664" gradientUnits="userSpaceOnUse">
<stop stop-color="#F71B2C"/>
<stop offset="0.461458" stop-color="#ED1B8D"/>
<stop offset="1" stop-color="#FF7027"/>
</linearGradient>
</defs>
</svg>
