<svg width="21" height="21" viewBox="0 0 21 21" fill="none" xmlns="http://www.w3.org/2000/svg">
<path d="M17.2116 0.919699C16.4518 0.917433 15.7222 1.21714 15.1833 1.75281L14.0785 2.8322H3.57822C2.87363 2.83694 2.19924 3.11888 1.701 3.61711C1.20277 4.11535 0.920761 4.78975 0.916016 5.49435V17.4217C0.920761 18.1263 1.20277 18.8007 1.701 19.299C2.19924 19.7972 2.87363 20.0793 3.57822 20.084H15.5056C16.2102 20.0793 16.8846 19.7972 17.3828 19.299C17.8811 18.8007 18.1631 18.1263 18.1678 17.4217V6.92148L19.2472 5.82032C19.6513 5.41908 19.9268 4.90666 20.0387 4.34831C20.1506 3.78995 20.0938 3.21091 19.8754 2.68496C19.6571 2.15901 19.2872 1.71002 18.8129 1.395C18.3385 1.07999 17.7811 0.913204 17.2116 0.916051V0.919699ZM17.2152 2.81407C17.4579 2.81407 17.7006 2.91181 17.8962 3.10378C17.9877 3.19166 18.0604 3.29713 18.1102 3.41384C18.1599 3.53054 18.1855 3.65606 18.1855 3.78292C18.1855 3.90977 18.1599 4.03529 18.1102 4.152C18.0604 4.2687 17.9877 4.37417 17.8962 4.46205L17.8889 4.46935L10.1015 12.4161H8.58389V10.9021L16.5307 3.11473L16.5379 3.10743C16.6262 3.0169 16.7314 2.94471 16.8477 2.89498C16.9639 2.84525 17.0888 2.81903 17.2152 2.81771V2.81407ZM3.57822 4.74823H12.1263L6.95035 9.81907C6.77017 9.99851 6.66856 10.2422 6.66783 10.4964V13.3759C6.66783 13.9047 7.09523 14.3285 7.62405 14.3322H10.5036C10.7571 14.3322 11.0034 14.2307 11.1809 14.0496L16.2518 8.87742V17.4217C16.2548 17.5205 16.2375 17.6189 16.2011 17.7108C16.1647 17.8027 16.1098 17.8862 16.0399 17.9561C15.97 18.026 15.8866 18.0808 15.7947 18.1172C15.7028 18.1537 15.6044 18.1709 15.5056 18.1679H3.57822C3.47942 18.1709 3.38105 18.1537 3.28916 18.1172C3.19727 18.0808 3.11381 18.026 3.04392 17.9561C2.97402 17.8862 2.91917 17.8027 2.88274 17.7108C2.84631 17.6189 2.82907 17.5205 2.83208 17.4217V5.49435C2.82957 5.39585 2.84718 5.29786 2.88384 5.2064C2.92049 5.11494 2.97542 5.03195 3.04527 4.96245C3.11511 4.89294 3.1984 4.83838 3.29003 4.80217C3.38167 4.76596 3.47973 4.74889 3.57822 4.75188V4.74823Z" fill="white"/>
</svg>
