<svg width="40" height="40" viewBox="0 0 40 40" fill="none" xmlns="http://www.w3.org/2000/svg">
<rect x="0.5" y="0.5" width="39" height="39" rx="19.5" stroke="url(#paint0_linear_73_77)"/>
<g clip-path="url(#clip0_73_77)">
<path d="M26.3633 11H13.6367C12.183 11 11 12.183 11 13.6367V26.3633C11 27.817 12.183 29 13.6367 29H26.3633C27.817 29 29 27.817 29 26.3633V13.6367C29 12.183 27.817 11 26.3633 11ZM20.0352 24.7109C17.4181 24.7109 15.2891 22.5819 15.2891 19.9648C15.2891 17.3478 17.4181 15.2188 20.0352 15.2188C22.6522 15.2188 24.7812 17.3478 24.7812 19.9648C24.7812 22.5819 22.6522 24.7109 20.0352 24.7109ZM25.3086 16.2734C24.4363 16.2734 23.7266 15.5637 23.7266 14.6914C23.7266 13.8191 24.4363 13.1094 25.3086 13.1094C26.1809 13.1094 26.8906 13.8191 26.8906 14.6914C26.8906 15.5637 26.1809 16.2734 25.3086 16.2734Z" fill="white"/>
<path d="M25.3086 14.1641C25.0176 14.1641 24.7812 14.4004 24.7812 14.6914C24.7812 14.9824 25.0176 15.2188 25.3086 15.2188C25.5996 15.2188 25.8359 14.9824 25.8359 14.6914C25.8359 14.4004 25.5996 14.1641 25.3086 14.1641Z" fill="white"/>
<path d="M20.0352 16.2734C17.9999 16.2734 16.3438 17.9296 16.3438 19.9648C16.3438 22.0001 17.9999 23.6562 20.0352 23.6562C22.0704 23.6562 23.7266 22.0001 23.7266 19.9648C23.7266 17.9296 22.0704 16.2734 20.0352 16.2734Z" fill="white"/>
</g>
<defs>
<linearGradient id="paint0_linear_73_77" x1="1.64251e-07" y1="-8.63637" x2="43.5091" y2="-5.67664" gradientUnits="userSpaceOnUse">
<stop stop-color="#F71B2C"/>
<stop offset="0.461458" stop-color="#ED1B8D"/>
<stop offset="1" stop-color="#FF7027"/>
</linearGradient>
<clipPath id="clip0_73_77">
<rect width="18" height="18" fill="white" transform="translate(11 11)"/>
</clipPath>
</defs>
</svg>
