<svg width="40" height="40" viewBox="0 0 40 40" fill="none" xmlns="http://www.w3.org/2000/svg">
<rect x="0.5" y="0.5" width="39" height="39" rx="19.5" stroke="url(#paint0_linear_73_78)"/>
<g clip-path="url(#clip0_73_78)">
<path d="M15.8628 17.6558H12.2104V28.6237H15.8628V17.6558Z" fill="white"/>
<path d="M27.8491 18.6577C27.0819 17.8202 26.0672 17.4014 24.8056 17.4014C24.3408 17.4014 23.9182 17.4585 23.5382 17.573C23.1582 17.6873 22.8373 17.8478 22.5753 18.0544C22.3135 18.261 22.1049 18.4528 21.9501 18.6298C21.8028 18.798 21.6589 18.9938 21.5184 19.2154V17.6557H17.877L17.8881 18.1871C17.8956 18.5413 17.8993 19.6333 17.8993 21.4631C17.8993 23.293 17.8919 25.6798 17.8771 28.6239H21.5184V22.5033C21.5184 22.1271 21.5587 21.8283 21.6401 21.6068C21.7951 21.2303 22.0291 20.9151 22.3429 20.6606C22.6566 20.4059 23.0457 20.2786 23.5107 20.2786C24.1451 20.2786 24.6119 20.4981 24.9108 20.9371C25.2096 21.3761 25.359 21.983 25.359 22.7578V28.6235H29.0002V22.3375C29 20.7214 28.6166 19.4949 27.8491 18.6577Z" fill="white"/>
<path d="M14.0586 12.3765C13.4462 12.3765 12.9501 12.5555 12.57 12.9133C12.1899 13.2711 12 13.7229 12 14.269C12 14.8075 12.1844 15.2577 12.5534 15.6192C12.9222 15.9807 13.4092 16.1615 14.0142 16.1615H14.0364C14.6562 16.1615 15.1562 15.9808 15.5361 15.6192C15.9161 15.2577 16.1023 14.8077 16.095 14.269C16.0877 13.7229 15.8994 13.2711 15.5306 12.9133C15.1618 12.5554 14.6709 12.3765 14.0586 12.3765Z" fill="white"/>
</g>
<defs>
<linearGradient id="paint0_linear_73_78" x1="1.64251e-07" y1="-8.63637" x2="43.5091" y2="-5.67664" gradientUnits="userSpaceOnUse">
<stop stop-color="#F71B2C"/>
<stop offset="0.461458" stop-color="#ED1B8D"/>
<stop offset="1" stop-color="#FF7027"/>
</linearGradient>
<clipPath id="clip0_73_78">
<rect width="17" height="17" fill="white" transform="translate(12 12)"/>
</clipPath>
</defs>
</svg>
