<svg width="20" height="20" viewBox="0 0 20 20" fill="none" xmlns="http://www.w3.org/2000/svg">
<g clip-path="url(#clip0_80_447)">
<path d="M9.99951 1.25C8.17681 1.25216 6.42939 1.97719 5.14054 3.26603C3.8517 4.55487 3.12667 6.3023 3.12451 8.125C3.12451 14.0076 9.37451 18.4509 9.64062 18.6371C9.74587 18.7106 9.87114 18.75 9.99951 18.75C10.1279 18.75 10.2532 18.7106 10.3584 18.6371C10.6245 18.4509 16.8745 14.0076 16.8745 8.125C16.8723 6.3023 16.1473 4.55487 14.8585 3.26603C13.5696 1.97719 11.8222 1.25216 9.99951 1.25ZM9.99997 5.62523C10.4944 5.62523 10.9778 5.77185 11.3889 6.04655C11.8 6.32126 12.1204 6.7117 12.3097 7.16852C12.4989 7.62533 12.5484 8.128 12.4519 8.61295C12.3555 9.0979 12.1174 9.54336 11.7677 9.89299C11.4181 10.2426 10.9726 10.4807 10.4877 10.5772C10.0027 10.6737 9.50008 10.6241 9.04326 10.4349C8.58645 10.2457 8.196 9.92527 7.9213 9.51415C7.64659 9.10303 7.49997 8.61968 7.49997 8.12523C7.49996 7.79692 7.56462 7.47183 7.69025 7.16851C7.81588 6.86519 8.00003 6.58959 8.23218 6.35744C8.46433 6.12529 8.73993 5.94114 9.04325 5.81551C9.34657 5.68988 9.67166 5.62522 9.99997 5.62523Z" fill="#ECE9FF"/>
</g>
<defs>
<clipPath id="clip0_80_447">
<rect width="20" height="20" fill="white"/>
</clipPath>
</defs>
</svg>
