<svg width="40" height="40" viewBox="0 0 40 40" fill="none" xmlns="http://www.w3.org/2000/svg">
<rect x="0.5" y="0.5" width="39" height="39" rx="19.5" stroke="url(#paint0_linear_73_76)"/>
<g clip-path="url(#clip0_73_76)">
<path d="M19.9999 20.1238C22.7881 20.1238 25.0496 17.8576 25.0496 15.0624C25.0496 12.2662 22.7881 10 19.9999 10C17.2117 10 14.9512 12.2662 14.9512 15.0614C14.9512 17.8576 17.2117 20.1238 19.9999 20.1238ZM19.9999 12.5718C21.3718 12.5718 22.4842 13.687 22.4842 15.0624C22.4842 16.4378 21.3718 17.553 19.9999 17.553C18.628 17.553 17.5156 16.4368 17.5156 15.0614C17.5156 13.686 18.628 12.5718 19.9999 12.5718ZM25.8204 20.7409C25.5349 20.1664 24.7457 19.6895 23.697 20.5184C22.2787 21.6385 20.0009 21.6385 20.0009 21.6385C20.0009 21.6385 17.723 21.6385 16.3048 20.5184C15.2551 19.6895 14.4659 20.1673 14.1813 20.7409C13.6844 21.7419 14.2459 22.2256 15.5127 23.0409C16.5952 23.7373 18.0819 23.9975 19.0428 24.0952L18.2411 24.8989C17.1123 26.0306 16.0221 27.1235 15.2657 27.8818C14.8132 28.3354 14.8132 29.0695 15.2657 29.5232L15.4017 29.6595C15.8542 30.1132 16.5865 30.1132 17.039 29.6595L20.0144 26.6767C21.1432 27.8083 22.2334 28.9012 22.9898 29.6595C23.4422 30.1132 24.1745 30.1132 24.627 29.6595L24.763 29.5232C25.2155 29.0695 25.2155 28.3354 24.763 27.8818L21.7876 24.8989L20.984 24.0932C21.9449 23.9936 23.4162 23.7325 24.49 23.0419C25.7558 22.2256 26.3173 21.7419 25.8204 20.7409Z" fill="white"/>
</g>
<defs>
<linearGradient id="paint0_linear_73_76" x1="1.64251e-07" y1="-8.63637" x2="43.5091" y2="-5.67664" gradientUnits="userSpaceOnUse">
<stop stop-color="#F71B2C"/>
<stop offset="0.461458" stop-color="#ED1B8D"/>
<stop offset="1" stop-color="#FF7027"/>
</linearGradient>
<clipPath id="clip0_73_76">
<rect width="12" height="20" fill="white" transform="translate(14 10)"/>
</clipPath>
</defs>
</svg>
