<svg width="40" height="40" viewBox="0 0 40 40" fill="none" xmlns="http://www.w3.org/2000/svg">
<rect x="0.5" y="0.5" width="39" height="39" rx="19.5" stroke="url(#paint0_linear_73_74)"/>
<g clip-path="url(#clip0_73_74)">
<path fill-rule="evenodd" clip-rule="evenodd" d="M27.2129 21.5374C27.8763 22.1852 28.5765 22.7946 29.1715 23.5076C29.4344 23.8245 29.6832 24.1514 29.8736 24.5192C30.1433 25.0419 29.899 25.6171 29.4303 25.6484L26.5166 25.647C25.7652 25.7094 25.1657 25.4069 24.6616 24.8931C24.2582 24.4822 23.8846 24.0449 23.4967 23.6201C23.3377 23.4465 23.1713 23.2831 22.9724 23.154C22.5747 22.8958 22.2294 22.9749 22.0021 23.3897C21.7706 23.8116 21.7181 24.2789 21.6954 24.7491C21.6642 25.4352 21.4568 25.6156 20.7676 25.647C19.2947 25.7164 17.8969 25.4936 16.5984 24.7506C15.4536 24.0956 14.5658 23.1709 13.7931 22.124C12.2886 20.0856 11.1365 17.8457 10.101 15.543C9.86793 15.0242 10.0384 14.7457 10.6108 14.7359C11.5613 14.7174 12.5117 14.7187 13.4633 14.7346C13.8497 14.7402 14.1054 14.9618 14.2546 15.3268C14.7688 16.5912 15.3981 17.7943 16.1879 18.9094C16.3983 19.2063 16.6128 19.5032 16.9182 19.7122C17.2561 19.9435 17.5133 19.8668 17.6723 19.4904C17.7732 19.2518 17.8173 18.9947 17.8401 18.7391C17.9154 17.8597 17.9253 16.9818 17.7932 16.1054C17.7121 15.5585 17.4041 15.2045 16.8583 15.101C16.5798 15.0482 16.6213 14.9446 16.7562 14.7856C16.9903 14.5115 17.2106 14.3408 17.6497 14.3408H20.9426C21.461 14.4431 21.5761 14.676 21.6471 15.1976L21.6499 18.8553C21.6442 19.0573 21.7508 19.6565 22.1145 19.7902C22.4056 19.8853 22.5975 19.6524 22.7721 19.4678C23.5605 18.6311 24.1232 17.6422 24.6259 16.6182C24.849 16.1679 25.0408 15.7003 25.2267 15.2331C25.3644 14.8864 25.5806 14.7158 25.9711 14.7234L29.1403 14.7262C29.2343 14.7262 29.3294 14.7276 29.4204 14.7432C29.9544 14.8342 30.1007 15.0639 29.9358 15.5854C29.6759 16.4036 29.1703 17.0854 28.6759 17.7704C28.1473 18.5017 27.5821 19.208 27.058 19.9436C26.5764 20.6154 26.6147 20.954 27.2129 21.5374Z" fill="white"/>
</g>
<defs>
<linearGradient id="paint0_linear_73_74" x1="1.64251e-07" y1="-8.63637" x2="43.5091" y2="-5.67664" gradientUnits="userSpaceOnUse">
<stop stop-color="#F71B2C"/>
<stop offset="0.461458" stop-color="#ED1B8D"/>
<stop offset="1" stop-color="#FF7027"/>
</linearGradient>
<clipPath id="clip0_73_74">
<rect width="20" height="20" fill="white" transform="translate(10 10)"/>
</clipPath>
</defs>
</svg>
