<svg width="210" height="48" viewBox="0 0 210 48" fill="none" xmlns="http://www.w3.org/2000/svg">
<g clip-path="url(#clip0_46_292)">
<path d="M76.8292 32.2354V9.88114C76.8292 9.04971 77.145 8.33829 77.775 7.74686C78.405 7.15371 79.1614 6.85714 80.044 6.85714C80.9267 6.85714 81.6745 7.15371 82.2857 7.74686C82.9174 8.33829 83.2316 9.04971 83.2316 9.87943V32.2337C83.2316 35.2851 82.0877 37.8909 79.7999 40.0594C77.495 42.2109 74.7223 43.2857 71.4801 43.2857C70.5975 43.2857 69.8496 42.9891 69.2384 42.396C68.9374 42.1349 68.6967 41.8109 68.5333 41.4466C68.3699 41.0825 68.2878 40.6869 68.2926 40.2874C68.2926 39.4577 68.6084 38.7463 69.2384 38.1549C69.5343 37.8641 69.885 37.6358 70.27 37.483C70.6548 37.3303 71.0663 37.2561 71.4801 37.2651C72.957 37.2651 74.217 36.7731 75.2618 35.7909C76.3067 34.8086 76.8292 33.624 76.8292 32.2354ZM120.608 37.9337C117.055 41.5011 112.777 43.2857 107.774 43.2857C102.772 43.2857 98.5035 41.5029 94.9643 37.9337C91.4114 34.3817 89.634 30.0943 89.634 25.0714C89.634 20.0486 91.4096 15.7526 94.9643 12.1851C98.5018 8.63314 102.772 6.85714 107.774 6.85714C112.777 6.85714 117.055 8.63314 120.608 12.1851C124.146 15.7526 125.915 20.0486 125.915 25.0714C125.915 30.0943 124.146 34.38 120.608 37.9337ZM116.08 16.7314C113.775 14.4343 111.006 13.284 107.776 13.284C104.546 13.284 101.785 14.4326 99.4955 16.7314C97.1906 19.0457 96.0382 21.8263 96.0382 25.0697C96.0382 28.3131 97.1906 31.0851 99.4955 33.384C101.785 35.6983 104.546 36.8554 107.776 36.8554C111.006 36.8554 113.775 35.6983 116.08 33.384C118.368 31.0851 119.514 28.3131 119.514 25.0697C119.514 21.8263 118.37 19.0457 116.08 16.7314ZM161.159 37.932C157.606 41.4994 153.327 43.284 148.325 43.284C143.322 43.284 139.054 41.5011 135.515 37.932C131.962 34.38 130.185 30.0926 130.185 25.0697C130.185 20.0469 131.96 15.7509 135.515 12.1834C139.051 8.63314 143.321 6.85714 148.323 6.85714C153.326 6.85714 157.604 8.63314 161.157 12.1851C164.695 15.7526 166.463 20.0486 166.463 25.0714C166.463 30.0943 164.695 34.38 161.157 37.9337L161.159 37.932ZM156.629 16.7314C154.324 14.4343 151.555 13.284 148.325 13.284C145.095 13.284 142.334 14.4326 140.044 16.7314C137.738 19.0474 136.585 21.828 136.585 25.0714C136.585 28.3149 137.738 31.0869 140.043 33.3857C142.332 35.7 145.093 36.8571 148.323 36.8571C151.553 36.8571 154.323 35.7 156.627 33.3857C158.915 31.0869 160.061 28.3149 160.061 25.0714C160.061 21.828 158.917 19.0474 156.627 16.7331L156.629 16.7314ZM188.394 36.2126C188.155 35.784 184.991 30.576 178.91 20.5886V40.2943C178.91 41.1223 178.613 41.8234 178.018 42.3977C177.74 42.6837 177.406 42.9096 177.038 43.062C176.67 43.2144 176.274 43.29 175.876 43.284C175.481 43.2915 175.089 43.2166 174.725 43.0641C174.36 42.9115 174.032 42.6845 173.759 42.3977C173.472 42.1296 173.243 41.8037 173.089 41.4413C172.936 41.0789 172.861 40.6881 172.867 40.2943V9.85029C172.867 9.17486 173.072 8.57486 173.479 8.05029C173.888 7.512 174.423 7.14857 175.085 6.96343C175.719 6.78758 176.393 6.82342 177.004 7.06555C177.616 7.30767 178.133 7.74295 178.476 8.30571L191.02 28.8977L203.565 8.30571C203.905 7.73143 204.388 7.31657 205.016 7.06457C205.636 6.82774 206.314 6.79178 206.956 6.96171C207.601 7.14857 208.129 7.51029 208.537 8.052C208.945 8.57486 209.148 9.17486 209.148 9.85029V40.296C209.148 41.124 208.858 41.8251 208.281 42.3994C208.002 42.6852 207.669 42.9111 207.301 43.0634C206.934 43.2158 206.537 43.2914 206.14 43.2857C205.742 43.2917 205.346 43.2161 204.977 43.0637C204.61 42.9115 204.275 42.6854 203.997 42.3994C203.717 42.1275 203.495 41.8003 203.345 41.4384C203.196 41.0765 203.125 40.6875 203.131 40.296V20.5903C197.108 30.5777 193.937 35.7789 193.622 36.1937C193.147 36.816 192.288 37.9286 191.008 37.9286C189.727 37.9286 188.756 36.8571 188.395 36.2143L188.394 36.2126ZM32.0121 33.1423C32.0121 40.8737 25.8009 47.1429 18.1401 47.1429V14.0006C18.1401 6.26914 24.3514 0 32.0121 0V33.1423Z" fill="white"/>
<path d="M6.93683 47.1446C10.7679 47.1446 13.8737 44.0262 13.8737 40.1795C13.8737 36.3328 10.7679 33.2144 6.93683 33.2144C3.10573 33.2144 0 36.3328 0 40.1795C0 44.0262 3.10573 47.1446 6.93683 47.1446Z" fill="#F64343"/>
</g>
<defs>
<clipPath id="clip0_46_292">
<rect width="210" height="48" fill="white"/>
</clipPath>
</defs>
</svg>
