<svg width="229" height="52" viewBox="0 0 229 52" fill="none" xmlns="http://www.w3.org/2000/svg">
<g clip-path="url(#clip0_46_309)">
<path d="M17.5598 26.9658H13.7537L32.0609 8.76579L42.7139 19.35C42.05 14.0568 39.5519 9.15873 35.6488 5.49722C34.384 4.37996 29.2205 0.020874 21.372 7.40325e-05C12.3634 -0.0236974 6.72142 5.68442 5.74969 6.68579C3.78434 8.78955 2.26511 11.2649 1.28247 13.9643C0.299828 16.6638 -0.126117 19.5322 0.0300017 22.3987C0.249138 24.4636 0.713823 26.4954 1.41433 28.4515C2.79268 32.2846 4.87963 35.1907 11.1315 41.7843C13.8015 44.6012 17.2309 48.0956 21.372 52.0001L32.2911 41.3772H17.5598V26.9658Z" fill="#1DB5E2"/>
<path d="M21.5273 24.6806V37.4042H35.4872C39.0261 33.9886 41.3372 29.5117 42.065 24.6627L31.8007 14.4856L21.5273 24.6806Z" fill="#1DB5E2"/>
<path d="M60.3962 20.0838C60.3962 13.0742 65.6824 8.17139 72.7266 8.17139C79.7708 8.17139 85.0151 13.0742 85.0151 20.0838C85.0151 27.0934 79.7679 31.9963 72.7266 31.9963C65.6854 31.9963 60.3962 27.0934 60.3962 20.0838ZM78.9695 20.0838C78.9695 16.319 76.5178 13.4189 72.7206 13.4189C68.9235 13.4189 66.4418 16.319 66.4418 20.0838C66.4418 23.8486 68.8936 26.7488 72.7206 26.7488C76.5477 26.7488 78.9755 23.813 78.9755 20.0838H78.9695Z" fill="white"/>
<path d="M106.282 31.5833L96.5471 18.2535V31.5833H90.5942V8.55176H96.7056L106.025 21.2249V8.55176H112.005V31.5833H106.282Z" fill="white"/>
<path d="M131.586 31.5833L127.72 23.8576H124.679V31.5833H118.744V8.55176H130.273C135.383 8.55176 138.283 11.9362 138.283 16.218C138.283 20.2235 135.831 22.3659 133.691 23.1236L138.385 31.5833H131.586ZM132.241 16.1824C132.241 14.6283 130.928 13.731 129.376 13.731H124.679V18.6695H129.373C130.931 18.6695 132.244 17.8048 132.244 16.1824H132.241Z" fill="white"/>
<path d="M144.155 31.5833V8.55176H161.036V13.731H150.093V17.3234H160.794V22.5026H150.093V26.4041H161.036V31.5833H144.155Z" fill="white"/>
<path d="M182.716 31.5833L181.577 28.2701H172.497L171.358 31.5862H164.625L173.295 8.55469H180.752L189.453 31.5862L182.716 31.5833ZM177.021 14.4203L174.085 23.0879H179.954L177.021 14.4203Z" fill="white"/>
<path d="M193.728 31.5833V8.55176H199.666V26.4041H208.917V31.5833H193.728Z" fill="white"/>
<path d="M216.272 31.5833V13.731H209.817V8.55176H228.632V13.731H222.21V31.5833H216.272Z" fill="white"/>
<path d="M66.8035 49.4594V45.6976H62.4083V49.4594H60.426V40.4946H62.4083V44.0158H66.8065V40.4946H68.8037V49.4594H66.8035Z" fill="url(#paint0_linear_46_309)"/>
<path d="M75.0974 49.4594V40.4946H81.6752V42.1735H77.0797V44.0693H81.5885V45.76H77.0797V47.7895H81.6872V49.4683H75.1094L75.0974 49.4594Z" fill="url(#paint1_linear_46_309)"/>
<path d="M87.147 47.9262C88.0948 47.8043 88.6419 47.4418 88.92 45.0766L89.4642 40.4946H96.0808V47.7806H96.918V51.1086H94.9357V49.4565H89.1293V51.1086H87.147V47.9262ZM89.7572 47.7776H94.0865V42.1765H91.2521L90.8933 45.2133C90.7498 46.4226 90.3462 47.2457 89.7572 47.7806V47.7776Z" fill="url(#paint2_linear_46_309)"/>
<path d="M102.554 49.4594V40.4946H107.454C109.227 40.4946 110.145 41.5822 110.145 42.7797C110.168 43.2563 110.019 43.7253 109.724 44.1023C109.43 44.4793 109.01 44.7394 108.54 44.8359C109.053 44.9323 109.515 45.2069 109.844 45.6108C110.173 46.0147 110.346 46.5215 110.333 47.0407C110.333 48.3838 109.398 49.4594 107.625 49.4594H102.554ZM108.109 43.1154C108.109 42.5509 107.69 42.1349 107.021 42.1349H104.536V44.0841H107.021C107.684 44.0841 108.103 43.68 108.103 43.1154H108.109ZM108.291 46.7703C108.291 46.2057 107.873 45.7214 107.095 45.7214H104.542V47.8014H107.095C107.84 47.8073 108.285 47.4151 108.285 46.7703H108.291Z" fill="url(#paint3_linear_46_309)"/>
<path d="M116.271 49.4594V40.4946H118.254V46.2859L122.568 40.4946H124.607V49.4594H122.625V43.4512L118.185 49.4594H116.271Z" fill="url(#paint4_linear_46_309)"/>
<path d="M129.998 49.4594L133.936 44.7051L130.237 40.4976H132.68L135.64 44.099V40.4946H137.637V44.096L140.582 40.4946H143.04L139.33 44.7022L143.267 49.4565H140.839L138.02 45.867L137.628 46.3246V49.4565H135.631V46.3275L135.239 45.8699L132.42 49.4594H129.998Z" fill="url(#paint5_linear_46_309)"/>
<path d="M148.664 49.4594V40.4946H150.646V46.2859L154.961 40.4946H157V49.4594H155.018V43.4512L150.578 49.4594H148.664Z" fill="url(#paint6_linear_46_309)"/>
<path d="M171.408 49.4594V43.1838L168.783 49.4594H167.916L165.291 43.1838V49.4594H163.309V40.4946H166.086L168.347 45.9115L170.607 40.4946H173.414V49.4594H171.408Z" fill="url(#paint7_linear_46_309)"/>
<path d="M179.269 44.9846C179.269 42.2835 181.32 40.3491 184.128 40.3491C186.935 40.3491 189.001 42.2835 189.001 44.9846C189.001 47.6856 186.95 49.62 184.128 49.62C181.305 49.62 179.269 47.6856 179.269 44.9846ZM186.962 44.9846C186.962 43.3057 185.847 42.0428 184.128 42.0428C182.408 42.0428 181.308 43.3057 181.308 44.9846C181.308 46.6634 182.411 47.9263 184.128 47.9263C185.844 47.9263 186.962 46.6515 186.962 44.9846Z" fill="url(#paint8_linear_46_309)"/>
<path d="M194.419 44.9845C194.419 42.2299 196.584 40.349 199.376 40.349C200.164 40.323 200.944 40.5137 201.63 40.9002C202.316 41.2866 202.881 41.8537 203.263 42.539L201.559 43.3442C201.343 42.9533 201.026 42.6265 200.641 42.3972C200.256 42.168 199.816 42.0447 199.367 42.0398C198.598 42.0641 197.869 42.3848 197.333 42.9341C196.798 43.4834 196.498 44.2182 196.498 44.983C196.498 45.7478 196.798 46.4825 197.333 47.0318C197.869 47.5811 198.598 47.9019 199.367 47.9262C199.817 47.9241 200.257 47.8019 200.643 47.5724C201.028 47.3429 201.345 47.0145 201.559 46.6217L203.263 47.4151C202.881 48.1014 202.316 48.67 201.631 49.0588C200.945 49.4477 200.165 49.6418 199.376 49.6199C196.584 49.6229 194.419 47.739 194.419 44.9845Z" fill="url(#paint9_linear_46_309)"/>
<path d="M211.088 49.4594V42.1764H208.367V40.4976H215.794V42.1764H213.085V49.4594H211.088Z" fill="url(#paint10_linear_46_309)"/>
<path d="M223.501 40.4946V43.68H225.875C227.885 43.68 229.003 45.0112 229.003 46.5682C229.003 48.1253 227.9 49.4565 225.875 49.4565H221.519V40.4946H223.501ZM223.501 45.3589V47.7776H225.609C226.39 47.7776 226.979 47.32 226.979 46.5682C226.979 45.8165 226.381 45.3589 225.609 45.3589H223.501Z" fill="url(#paint11_linear_46_309)"/>
<path d="M66.8035 49.4594V45.6976H62.4083V49.4594H60.426V40.4946H62.4083V44.0158H66.8065V40.4946H68.8037V49.4594H66.8035Z" fill="#716D6D"/>
<path d="M75.0974 49.4594V40.4946H81.6752V42.1735H77.0797V44.0693H81.5885V45.76H77.0797V47.7895H81.6872V49.4683H75.1094L75.0974 49.4594Z" fill="#716D6D"/>
<path d="M87.147 47.9262C88.0948 47.8043 88.6419 47.4418 88.92 45.0766L89.4642 40.4946H96.0808V47.7806H96.918V51.1086H94.9357V49.4565H89.1293V51.1086H87.147V47.9262ZM89.7572 47.7776H94.0865V42.1765H91.2521L90.8933 45.2133C90.7498 46.4226 90.3462 47.2457 89.7572 47.7806V47.7776Z" fill="#716D6D"/>
<path d="M102.554 49.4594V40.4946H107.454C109.227 40.4946 110.145 41.5822 110.145 42.7797C110.168 43.2563 110.019 43.7253 109.724 44.1023C109.43 44.4793 109.01 44.7394 108.54 44.8359C109.053 44.9323 109.515 45.2069 109.844 45.6108C110.173 46.0147 110.346 46.5215 110.333 47.0407C110.333 48.3838 109.398 49.4594 107.625 49.4594H102.554ZM108.109 43.1154C108.109 42.5509 107.69 42.1349 107.021 42.1349H104.536V44.0841H107.021C107.684 44.0841 108.103 43.68 108.103 43.1154H108.109ZM108.291 46.7703C108.291 46.2057 107.873 45.7214 107.095 45.7214H104.542V47.8014H107.095C107.84 47.8073 108.285 47.4151 108.285 46.7703H108.291Z" fill="#716D6D"/>
<path d="M116.271 49.4594V40.4946H118.254V46.2859L122.568 40.4946H124.607V49.4594H122.625V43.4512L118.185 49.4594H116.271Z" fill="#716D6D"/>
<path d="M129.998 49.4594L133.936 44.7051L130.237 40.4976H132.68L135.64 44.099V40.4946H137.637V44.096L140.582 40.4946H143.04L139.33 44.7022L143.267 49.4565H140.839L138.02 45.867L137.628 46.3246V49.4565H135.631V46.3275L135.239 45.8699L132.42 49.4594H129.998Z" fill="#716D6D"/>
<path d="M148.664 49.4594V40.4946H150.646V46.2859L154.961 40.4946H157V49.4594H155.018V43.4512L150.578 49.4594H148.664Z" fill="#716D6D"/>
<path d="M171.408 49.4594V43.1838L168.783 49.4594H167.916L165.291 43.1838V49.4594H163.309V40.4946H166.086L168.347 45.9115L170.607 40.4946H173.414V49.4594H171.408Z" fill="#716D6D"/>
<path d="M179.269 44.9846C179.269 42.2835 181.32 40.3491 184.128 40.3491C186.935 40.3491 189.001 42.2835 189.001 44.9846C189.001 47.6856 186.95 49.62 184.128 49.62C181.305 49.62 179.269 47.6856 179.269 44.9846ZM186.962 44.9846C186.962 43.3057 185.847 42.0428 184.128 42.0428C182.408 42.0428 181.308 43.3057 181.308 44.9846C181.308 46.6634 182.411 47.9263 184.128 47.9263C185.844 47.9263 186.962 46.6515 186.962 44.9846Z" fill="#716D6D"/>
<path d="M194.419 44.9845C194.419 42.2299 196.584 40.349 199.376 40.349C200.164 40.323 200.944 40.5137 201.63 40.9002C202.316 41.2866 202.881 41.8537 203.263 42.539L201.559 43.3442C201.343 42.9533 201.026 42.6265 200.641 42.3972C200.256 42.168 199.816 42.0447 199.367 42.0398C198.598 42.0641 197.869 42.3848 197.333 42.9341C196.798 43.4834 196.498 44.2182 196.498 44.983C196.498 45.7478 196.798 46.4825 197.333 47.0318C197.869 47.5811 198.598 47.9019 199.367 47.9262C199.817 47.9241 200.257 47.8019 200.643 47.5724C201.028 47.3429 201.345 47.0145 201.559 46.6217L203.263 47.4151C202.881 48.1014 202.316 48.67 201.631 49.0588C200.945 49.4477 200.165 49.6418 199.376 49.6199C196.584 49.6229 194.419 47.739 194.419 44.9845Z" fill="#716D6D"/>
<path d="M211.088 49.4594V42.1764H208.367V40.4976H215.794V42.1764H213.085V49.4594H211.088Z" fill="#716D6D"/>
<path d="M223.501 40.4946V43.68H225.875C227.885 43.68 229.003 45.0112 229.003 46.5682C229.003 48.1253 227.9 49.4565 225.875 49.4565H221.519V40.4946H223.501ZM223.501 45.3589V47.7776H225.609C226.39 47.7776 226.979 47.32 226.979 46.5682C226.979 45.8165 226.381 45.3589 225.609 45.3589H223.501Z" fill="#716D6D"/>
</g>
<defs>
<linearGradient id="paint0_linear_46_309" x1="59.5021" y1="44.9785" x2="241.662" y2="44.9785" gradientUnits="userSpaceOnUse">
<stop stop-color="white"/>
<stop offset="1"/>
</linearGradient>
<linearGradient id="paint1_linear_46_309" x1="59.5021" y1="44.9785" x2="241.662" y2="44.9785" gradientUnits="userSpaceOnUse">
<stop stop-color="white"/>
<stop offset="1"/>
</linearGradient>
<linearGradient id="paint2_linear_46_309" x1="59.5023" y1="45.8046" x2="241.662" y2="45.8046" gradientUnits="userSpaceOnUse">
<stop stop-color="white"/>
<stop offset="1"/>
</linearGradient>
<linearGradient id="paint3_linear_46_309" x1="59.502" y1="44.9785" x2="241.662" y2="44.9785" gradientUnits="userSpaceOnUse">
<stop stop-color="white"/>
<stop offset="1"/>
</linearGradient>
<linearGradient id="paint4_linear_46_309" x1="59.5021" y1="44.9785" x2="241.662" y2="44.9785" gradientUnits="userSpaceOnUse">
<stop stop-color="white"/>
<stop offset="1"/>
</linearGradient>
<linearGradient id="paint5_linear_46_309" x1="59.502" y1="44.9785" x2="241.662" y2="44.9785" gradientUnits="userSpaceOnUse">
<stop stop-color="white"/>
<stop offset="1"/>
</linearGradient>
<linearGradient id="paint6_linear_46_309" x1="59.5021" y1="44.9785" x2="241.662" y2="44.9785" gradientUnits="userSpaceOnUse">
<stop stop-color="white"/>
<stop offset="1"/>
</linearGradient>
<linearGradient id="paint7_linear_46_309" x1="59.502" y1="44.9785" x2="241.662" y2="44.9785" gradientUnits="userSpaceOnUse">
<stop stop-color="white"/>
<stop offset="1"/>
</linearGradient>
<linearGradient id="paint8_linear_46_309" x1="59.5024" y1="44.9846" x2="241.662" y2="44.9846" gradientUnits="userSpaceOnUse">
<stop stop-color="white"/>
<stop offset="1"/>
</linearGradient>
<linearGradient id="paint9_linear_46_309" x1="59.5023" y1="44.9845" x2="241.663" y2="44.9845" gradientUnits="userSpaceOnUse">
<stop stop-color="white"/>
<stop offset="1"/>
</linearGradient>
<linearGradient id="paint10_linear_46_309" x1="59.5024" y1="44.9785" x2="241.662" y2="44.9785" gradientUnits="userSpaceOnUse">
<stop stop-color="white"/>
<stop offset="1"/>
</linearGradient>
<linearGradient id="paint11_linear_46_309" x1="59.5021" y1="44.9785" x2="241.662" y2="44.9785" gradientUnits="userSpaceOnUse">
<stop stop-color="white"/>
<stop offset="1"/>
</linearGradient>
<clipPath id="clip0_46_309">
<rect width="229" height="52" fill="white"/>
</clipPath>
</defs>
</svg>
