<svg width="180" height="48" viewBox="0 0 180 48" fill="none" xmlns="http://www.w3.org/2000/svg">
<g style="mix-blend-mode:luminosity">
<path fill-rule="evenodd" clip-rule="evenodd" d="M21.7444 4.11006C17.7004 3.67721 13.6238 4.5277 10.0748 6.54463C6.52586 8.56156 3.67877 11.6459 1.92491 15.3738C0.171054 19.1016 -0.403486 23.2899 0.280266 27.363C0.964018 31.4361 2.8725 35.194 5.74338 38.1202C8.61426 41.0465 12.3066 42.9973 16.3129 43.7047C20.3192 44.4121 24.4428 43.8412 28.1168 42.0706C31.7909 40.3 34.8351 37.4166 36.831 33.8166C38.8268 30.2166 39.6764 26.0769 39.263 21.9664C38.808 17.3973 36.8175 13.127 33.6266 9.87468C30.4358 6.62233 26.2395 4.58652 21.7444 4.11006ZM21.1066 34.584C18.9316 34.8805 16.7199 34.477 14.7823 33.4303C12.8446 32.3835 11.2785 30.7462 10.304 28.7483C9.32944 26.7504 8.9955 24.4924 9.34909 22.2917C9.70269 20.091 10.726 18.0582 12.2753 16.479C13.8246 14.8998 15.8219 13.8536 17.9866 13.4874C20.1512 13.1212 22.3744 13.4535 24.3436 14.4375C26.3128 15.4215 27.9291 17.0077 28.9653 18.9733C30.0015 20.9389 30.4055 23.1851 30.1205 25.396C29.8214 27.7216 28.7762 29.8821 27.1467 31.5431C25.5172 33.2041 23.3943 34.2729 21.1066 34.584ZM49.7903 4.90128C49.1077 4.90294 48.434 5.05923 47.8182 5.35877C47.2025 5.6583 46.6602 6.09356 46.2309 6.63285C45.8015 7.17215 45.4959 7.80193 45.3363 8.47636C45.1766 9.15079 45.1669 9.8529 45.3079 10.5316C45.7398 12.7304 47.761 14.2328 49.9628 14.2328H62.7403L42.8556 40.972C42.7085 41.1694 42.6185 41.4045 42.5955 41.651C42.5726 41.8974 42.6177 42.1456 42.7258 42.3675C42.8338 42.5894 43.0006 42.7763 43.2073 42.9073C43.4141 43.0383 43.6526 43.1082 43.8963 43.1092H75.0873C77.2877 43.1092 79.3103 41.6072 79.7422 39.408C79.8832 38.7294 79.8736 38.0274 79.7141 37.353C79.5546 36.6787 79.2491 36.0489 78.82 35.5096C78.3909 34.9703 77.8488 34.5349 77.2333 34.2352C76.6177 33.9355 75.9442 33.7789 75.2617 33.7769H59.6933L79.5627 7.05854C79.7112 6.85923 79.8021 6.6218 79.8252 6.37291C79.8483 6.12402 79.8027 5.87351 79.6935 5.64949C79.5843 5.42546 79.4159 5.23678 79.207 5.10463C78.9982 4.97247 78.7573 4.90205 78.5112 4.90128H49.7903ZM174.428 5.00892C173.395 5.25843 172.477 5.85858 171.826 6.71012C171.174 7.56167 170.828 8.61362 170.845 9.69205V25.2287L146.07 5.19474C145.875 5.03802 145.642 4.94022 145.395 4.91259C145.148 4.88496 144.899 4.92862 144.676 5.03854C144.453 5.14846 144.265 5.32019 144.133 5.53396C144.002 5.74773 143.932 5.99487 143.933 6.24693V38.3267C143.916 39.4052 144.262 40.4572 144.913 41.3087C145.565 42.1603 146.483 42.7604 147.516 43.0099C148.186 43.1598 148.881 43.1548 149.55 42.9954C150.218 42.8359 150.843 42.526 151.378 42.0885C151.912 41.651 152.344 41.097 152.64 40.4675C152.936 39.8381 153.089 39.1491 153.088 38.4514V22.7803L177.864 42.8146C178.058 42.9712 178.292 43.069 178.538 43.0966C178.785 43.1242 179.034 43.0805 179.257 42.9706C179.48 42.8608 179.668 42.6891 179.8 42.4755C179.931 42.2618 180.001 42.0148 180 41.7628V9.56591C180.001 8.8684 179.847 8.17961 179.551 7.55034C179.255 6.92107 178.824 6.36735 178.289 5.93002C177.754 5.49269 177.13 5.1829 176.461 5.02348C175.793 4.86406 175.098 4.85909 174.428 5.00892ZM109.919 13.3396C120.398 13.3396 128.228 18.9669 128.228 24.0005C128.228 29.0341 120.398 34.6614 109.919 34.6614C99.4396 34.6614 91.6095 29.0341 91.6095 24.0005C91.6095 18.9669 99.4396 13.3396 109.919 13.3396ZM109.919 4.00847C94.7505 4.00847 82.4543 12.9593 82.4543 24.0005C82.4543 35.0418 94.7505 43.9926 109.919 43.9926C125.087 43.9926 137.383 35.0418 137.383 24.0005C137.383 12.9593 125.087 4.00847 109.919 4.00847Z" fill="white"/>
</g>
</svg>
