<svg width="265" height="40" viewBox="0 0 265 40" fill="none" xmlns="http://www.w3.org/2000/svg">
<g clip-path="url(#clip0_46_349)">
<path fill-rule="evenodd" clip-rule="evenodd" d="M1.93111 0.491291C3.54042 -0.385902 5.50736 0.140414 7.00939 0.947431C11.8731 3.64919 16.7368 6.4562 21.6005 9.19305C21.8508 9.26322 22.3515 9.43866 22.6376 9.50883C25.7489 11.2983 28.8603 13.1229 32.0431 14.8071C33.3306 15.5088 34.3677 16.5264 35.226 17.6843C35.226 18.7018 35.226 19.7194 35.2617 20.7369C34.2962 21.9299 33.1875 23.0176 31.7928 23.7544C28.753 25.3334 25.8205 27.1229 22.8164 28.7369C22.3515 28.9123 21.8151 28.9474 21.3859 29.2632C16.8798 32.1053 12.0877 34.5615 7.4743 37.2632C5.82922 38.2457 3.68347 38.9825 1.89535 37.965C0.536376 37.193 -6.10392e-05 35.579 -6.10392e-05 34.1053C-6.10392e-05 24.2808 -6.10392e-05 14.4562 -6.10392e-05 4.63164C-0.0358235 3.08778 0.429089 1.29831 1.93111 0.491291Z" fill="#00BDFC"/>
<path fill-rule="evenodd" clip-rule="evenodd" d="M21.6721 3.64922C21.6721 2.07027 22.745 0.421146 24.4258 0.175532C26.1066 -0.280609 27.7875 0.491321 29.2537 1.29834C37.6937 6.17553 46.2052 10.8773 54.6451 15.7194C57.1842 17.1931 57.1485 21.2633 54.6451 22.7369C46.0621 27.6492 37.4076 32.4913 28.8246 37.4036C27.5014 38.1404 25.9278 38.7018 24.39 38.3159C22.745 38.0352 21.7079 36.4211 21.6721 34.8422C21.6006 32.9825 21.7436 31.1229 21.4575 29.2633C21.8509 28.9475 22.4231 28.9124 22.888 28.7369C25.9278 27.1229 28.8246 25.3685 31.8644 23.7545C33.2591 23.0176 34.3678 21.9299 35.3334 20.7369C35.2976 19.7194 35.2976 18.7018 35.2976 17.6843C34.4393 16.5264 33.4022 15.5089 32.1147 14.8071C28.9319 13.1229 25.8205 11.2983 22.7092 9.50887C22.4589 9.43869 21.9582 9.26325 21.6721 9.19308L21.6363 8.91237C21.4218 7.15799 21.6363 5.4036 21.6721 3.64922Z" fill="#6EE4FE"/>
<path fill-rule="evenodd" clip-rule="evenodd" d="M101.172 1.47368C101.1 0.631572 101.887 0.0350811 102.71 0.0350811C104.605 -6.61425e-06 106.536 0.0350811 108.467 0.0350811C109.433 -0.10527 110.685 0.315783 110.685 1.43859C110.72 6.31578 110.685 11.193 110.72 16.0351C112.473 16 114.261 16.0702 116.013 15.9649C116.764 15.9298 117.48 15.5439 117.909 14.9474C119.518 12.6316 120.984 10.2456 122.594 7.92982C123.416 6.66666 125.097 7.05262 126.384 7.01754C127.279 7.08771 128.459 6.77192 128.995 7.6842C129.317 8.80701 128.351 9.71929 127.815 10.5965C125.92 13.2632 124.346 16.1403 122.164 18.5965C122.987 19.2982 123.738 20.0702 124.346 20.9824C126.241 23.7544 128.244 26.4912 130.104 29.2982C130.712 30.0351 130.354 31.2281 129.353 31.3333C127.994 31.4035 126.635 31.4386 125.276 31.2982C124.525 31.2281 124.06 30.5965 123.667 30.0351C122.021 27.6491 120.376 25.2982 118.731 22.9123C118.266 22.2456 117.658 21.5789 116.764 21.5439C114.762 21.4386 112.723 21.5439 110.72 21.4737C110.685 24.2807 110.756 27.0877 110.685 29.8947C110.685 30.6667 110.077 31.2631 109.326 31.2982C108.11 31.3333 106.858 31.4737 105.678 31.1228C104.999 30.9123 104.963 30.1053 104.927 29.5438C104.927 21.9298 104.927 14.3158 104.927 6.70175C104.927 6.21052 104.891 5.75438 104.784 5.26315C103.675 5.26315 102.102 5.6842 101.351 4.59648C100.993 3.64912 101.1 2.52631 101.172 1.47368ZM73.1699 9.4035C75.8521 7.08771 79.6071 6.63157 83.0403 6.63157C86.6166 6.70175 90.3716 6.94736 93.5903 8.59648C95.1281 9.36841 94.8062 11.2982 94.842 12.7017C94.7704 13.5789 94.9492 14.9123 93.8406 15.2281C92.6604 15.3684 91.4445 15.4386 90.2644 15.1579C89.3345 14.7017 89.5491 13.5088 89.4061 12.6667C86.259 11.8947 82.9688 11.8246 79.786 12.2807C78.8204 12.5263 77.4972 12.7368 77.1038 13.7544C76.7461 14.7719 77.8905 15.3684 78.7131 15.614C83.5052 16.8421 88.8339 16.2807 93.2326 18.807C96.7374 20.8421 96.8804 26.3158 93.8406 28.807C91.0154 31.2281 87.0457 31.6491 83.4337 31.6842C79.321 31.614 74.958 30.9123 71.4891 28.5965C70.5235 28.0351 69.9155 26.8421 70.4877 25.7895C70.9526 24.8421 71.1672 23.614 72.2043 23.0877C73.2414 22.8772 74.0282 23.8246 74.8865 24.2105C78.2482 26 82.2536 26.421 86.0086 26.1754C87.4034 26 89.1557 25.8246 89.9425 24.4912C90.3716 23.5088 89.3703 22.5965 88.4405 22.421C84.3278 21.4737 80.0005 21.6842 76.0309 20.2456C74.1712 19.614 72.3474 18.4561 71.5606 16.6316C70.4519 14.3158 71.0957 11.193 73.1699 9.4035ZM170.801 10.0351C173.448 7.64912 177.131 6.66666 180.672 6.66666C184.391 6.63157 188.289 7.71929 191.043 10.2807C193.761 12.807 194.941 16.6667 194.655 20.2807C194.619 21.193 193.689 21.6842 192.867 21.5789C186.072 21.5439 179.277 21.614 172.518 21.5439C173.269 24.3509 176.13 26 178.92 26.386C182.567 26.8772 186.608 26.4561 189.648 24.2807C190.22 23.8246 191.115 23.4737 191.687 24.0702C192.402 24.8421 192.831 25.8596 193.26 26.807C193.618 27.6842 192.795 28.386 192.152 28.8421C189.255 30.8421 185.643 31.614 182.138 31.7193C178.133 31.8246 173.913 30.9123 170.873 28.2456C165.509 23.7193 165.509 14.5965 170.801 10.0351ZM176.559 12.6316C174.628 13.2982 173.055 14.8421 172.447 16.7719C178.025 16.807 183.604 16.7719 189.148 16.7719C188.575 15.0175 187.216 13.5789 185.5 12.8421C182.71 11.6842 179.42 11.614 176.559 12.6316ZM209.103 10.2105C213.073 7.01754 218.616 5.82455 223.551 7.22806C226.233 7.96491 228.522 9.89473 229.667 12.386C230.882 15.0175 230.847 17.9649 230.811 20.7719C230.811 23.7193 230.811 26.6316 230.811 29.5789C230.811 30.2807 230.596 31.193 229.738 31.2982C228.522 31.4737 227.27 31.4737 226.09 31.2982C225.232 31.193 224.982 30.3158 224.982 29.5789C224.946 25.7193 224.982 21.8246 224.982 17.9649C224.982 16.1754 224.159 14.3158 222.586 13.3684C220.905 12.3158 218.795 12.2456 216.899 12.5614C214.289 13.1228 211.857 14.386 209.997 16.2807C209.997 20.7017 209.997 25.1579 209.997 29.5789C209.997 30.1754 209.926 31.0175 209.175 31.2281C207.959 31.5438 206.635 31.4386 205.384 31.3333C204.49 31.2281 204.096 30.3509 204.168 29.5438C204.132 23.8246 204.204 18.0702 204.132 12.3158C202.988 12.2807 201.164 12.807 200.592 11.4737C200.341 10.386 200.449 9.26315 200.52 8.17543C200.592 7.43859 201.378 6.94736 202.094 7.01754C203.989 7.01754 205.92 6.98245 207.816 7.05262C209.389 7.26315 209.032 9.08771 209.103 10.2105ZM241.54 10.6316C243.721 8.31578 246.904 7.05263 250.087 6.73684C253.27 6.38596 256.739 6.77192 259.385 8.70175C259.886 7.92982 260.494 7.05262 261.531 7.01754C262.496 7.05262 263.569 6.80701 264.428 7.29824C265.071 7.85964 264.928 8.77192 265 9.54385C265 16.9123 265 24.2456 265 31.614C265.036 34.2105 263.319 36.5614 261.102 37.8596C257.418 40.0702 252.876 40.2456 248.692 39.7895C245.867 39.4035 242.899 38.5614 240.824 36.5263C239.752 35.2982 240.896 33.7895 241.432 32.5614C241.79 31.5439 243.113 31.4035 243.828 32.1403C246.654 34.6316 250.731 34.9474 254.378 34.5965C256.167 34.3158 258.277 33.7544 259.063 31.9649C259.314 30.9824 259.135 29.9298 259.171 28.9123C256.167 30.807 252.411 31.0175 248.942 30.4561C245.295 29.8947 241.754 27.8947 239.966 24.6316C237.606 20.2807 238.071 14.386 241.54 10.6316ZM245.795 14.8421C243.864 17.2982 244.079 21.193 246.439 23.2982C248.156 24.8772 250.623 25.3333 252.876 25.193C255.201 25.1579 257.561 24.3509 259.171 22.6316C259.135 20.0351 259.171 17.4386 259.171 14.807C257.49 12.8421 254.772 12.1403 252.233 12.1754C249.872 12.1403 247.297 12.9474 245.795 14.8421ZM134.61 7.19298C135.754 6.87719 136.97 7.1228 138.15 7.05262C139.116 6.98245 140.189 7.33333 140.546 8.28069C142.656 12.5263 144.802 16.7719 146.876 21.0175C147.449 22.1053 147.842 23.2982 148.557 24.3158C148.951 24.1053 148.986 23.614 149.201 23.2631C151.561 18.1754 154.172 13.1579 156.64 8.14034C157.247 6.77192 159 7.08771 160.252 7.05262C161.324 7.08771 163.077 6.77192 163.327 8.21052C163.184 9.4035 162.362 10.3509 161.861 11.4386C157.927 18.7368 154.029 26.0351 150.095 33.3333C149.308 34.807 148.271 36.2807 146.698 37.0175C144.552 38.0351 142.12 37.6842 139.867 37.7544C138.866 37.8596 138.115 36.9123 138.258 36C138.365 34.9123 137.9 33.5789 138.794 32.7017C140.439 31.9649 142.335 32.7368 144.015 32.2105C144.766 31.8596 145.231 31.1228 145.446 30.386C141.727 23.3684 137.864 16.3509 134.145 9.33333C133.716 8.59648 133.68 7.43859 134.61 7.19298Z" fill="white"/>
</g>
<defs>
<clipPath id="clip0_46_349">
<rect width="265" height="40" fill="white"/>
</clipPath>
</defs>
</svg>
