<svg width="217" height="62" viewBox="0 0 217 62" fill="none" xmlns="http://www.w3.org/2000/svg">
<path fill-rule="evenodd" clip-rule="evenodd" d="M66.7132 28.9996L67.5902 26.1166L64.6874 26.2114C64.4437 26.2114 62.6597 26.1567 60.9325 24.8711C61.0624 24.882 61.1887 24.9021 61.3239 24.9021C63.1025 24.9021 64.8261 23.8007 65.5145 22.2251L66.763 19.3804C65.1978 19.4023 63.7659 19.2 63.7659 19.2C63.7535 19.2 62.6259 19.0486 61.322 17.6791C60.3865 16.6999 59.2286 16.1801 57.9747 16.1801C57.4782 16.1822 56.985 16.2628 56.5125 16.419C56.5783 16.1893 56.6406 15.954 56.6779 15.7133C57.0746 13.051 55.4079 11.0232 55.4079 11.0232L53.2255 8.24783L51.8718 11.5083C51.8666 11.5192 51.5251 12.2851 50.915 12.6571C50.73 11.6979 50.2764 10.6202 49.3088 9.58994C47.4821 7.6497 45.2605 7.35794 44.0972 7.35794C43.5583 7.35794 43.1723 7.41994 43.0798 7.43453L40.4456 7.967C40.5968 7.36341 40.9223 6.30759 41.5129 5.36117L42.9677 3.03617L39.3091 3.4647L38.144 0.922706L35.8868 2.11711L33.8004 0L31.7194 2.1153L29.4587 0.922706L28.2954 3.46289L24.6383 3.03436L26.0952 5.363C26.6874 6.30941 27.0094 7.35977 27.1607 7.96336L24.6473 7.45277L24.5601 7.44C24.213 7.38394 23.8621 7.3565 23.5107 7.35794C22.3474 7.35794 20.1258 7.6497 18.3044 9.58994C17.335 10.6184 16.8798 11.6979 16.6947 12.6571C16.0882 12.2869 15.7485 11.5356 15.7485 11.5356L14.3931 8.2533L12.1751 11.0506C11.9048 11.4098 10.569 13.3172 10.93 15.7189C10.9692 15.9577 11.0296 16.1911 11.0955 16.4209C10.6244 16.264 10.1323 16.1834 9.63694 16.182C8.38118 16.182 7.22325 16.7017 6.28589 17.681C4.98744 19.045 3.8651 19.2 3.87398 19.2C3.87398 19.2 2.68759 19.4187 0.850214 19.3823L2.09352 22.227C2.78365 23.8026 4.50898 24.904 6.2841 24.904C6.41929 24.904 6.54557 24.8839 6.6772 24.873C4.95186 26.1603 3.16963 26.2133 2.95441 26.2133L0 26.1166L0.89468 28.9977C1.34647 30.4857 2.85124 32.9457 5.73271 33.2101C5.41967 34.5596 4.7242 36.073 3.19808 36.7259L0.996066 37.6559L2.19668 39.804C2.87437 40.962 4.46629 42.3169 6.73055 42.3169C7.2197 42.3169 7.69282 42.264 8.14995 42.1654C8.26556 42.6943 8.41142 43.2231 8.58395 43.752C9.25629 45.8126 8.67644 47.2494 8.66932 47.2659L7.58432 49.6037L10.0087 50.2601C10.0389 50.271 10.7735 50.479 11.6895 50.479C12.1057 50.479 12.5042 50.4333 12.8777 50.3421C13.1587 50.2747 13.4291 50.1836 13.6906 50.076C14.0054 50.654 14.386 51.1829 14.8307 51.6551C16.3852 53.2944 18.5909 54.1241 21.3798 54.1241H21.3888L23.3808 54.0969L19.265 55.8547L22.3901 57.4066C23.5267 57.9754 24.8715 58.6466 26.2446 59.1607L25.8532 60.2567L26.9294 60.7619C27.0253 60.8074 29.0994 61.7574 32.5412 61.9599C32.5412 61.9599 33.3718 62 33.8289 62C34.2877 62 35.1095 61.958 35.1095 61.958C38.5282 61.7501 40.5843 60.8074 40.6804 60.7619L41.7601 60.2567L41.367 59.159C42.7757 58.6301 44.1719 57.9299 45.2623 57.3847L48.3287 55.8529L44.2254 54.0969L46.2263 54.1241C49.0189 54.1241 51.2244 53.2927 52.7772 51.6533C53.2202 51.1829 53.599 50.6559 53.9157 50.076C54.5506 50.3451 55.2315 50.4815 55.9184 50.4771C56.8202 50.4771 57.5619 50.2729 57.5814 50.2656L60.0183 49.6037L58.9564 47.3079C58.9315 47.2494 58.3516 45.8126 59.024 43.7483C59.1965 43.2231 59.3407 42.6924 59.458 42.1654C59.9151 42.264 60.3936 42.315 60.8863 42.3169C63.7714 42.3169 65.1552 40.2326 65.4219 39.7803L66.6119 37.654L64.4099 36.7259C62.8802 36.0749 62.1865 34.5613 61.8771 33.2137C64.7212 32.9584 66.2455 30.4967 66.7151 29.0014L66.7132 28.9996Z" fill="#FFFFFE"/>
<path fill-rule="evenodd" clip-rule="evenodd" d="M33.801 8.8313C31.4708 8.83311 29.7223 9.61724 29.3418 10.5418L33.801 12.3471L38.2619 10.5418C37.8847 9.61724 36.1363 8.83311 33.801 8.8313ZM33.8489 56.679H33.76C32.3477 56.6879 30.4001 56.3908 29.4645 56.1081L28.3367 59.2428C29.0803 59.5145 31.5989 60.0359 33.8062 60.0359C36.01 60.0359 38.5305 59.5145 39.2721 59.2428L38.1462 56.11C37.2052 56.3908 35.2612 56.6879 33.8489 56.679ZM42.3813 53.5607C41.5418 54.0494 39.6688 54.7824 38.5785 55.1215L39.4927 57.7109C41.179 57.237 42.5716 56.6844 43.7206 56.0917L41.821 55.4444L42.3813 53.5607ZM25.2259 53.5607L25.7879 55.4444L23.8865 56.0917C25.0337 56.6844 26.4318 57.237 28.1126 57.7092L29.0287 55.1198C27.9401 54.7805 26.0637 54.0494 25.2259 53.5607ZM33.801 5.83524C35.56 5.83524 37.2818 6.26741 38.6087 7.02418C38.7296 6.60841 38.8986 6.10147 39.128 5.57082L38.6264 5.63282L38.1017 5.68752L37.8795 5.197L37.2071 3.74365L35.9869 4.39647L35.5101 4.64447L35.1296 4.26152L33.801 2.91211L32.4757 4.26152L32.0969 4.64447L31.622 4.39647L30.3947 3.74365L29.7313 5.197L29.5053 5.68935L28.9789 5.63282L28.4809 5.57082C28.7103 6.10147 28.8775 6.60841 29.0001 7.02418C30.3307 6.26741 32.0524 5.83524 33.8027 5.83524H33.801ZM60.6324 22.6427C60.8618 22.723 61.093 22.7594 61.3226 22.7594C62.3186 22.7594 63.2792 22.0975 63.6082 21.3425C63.6082 21.3425 61.785 21.2295 59.8248 19.1852C59.2024 18.5252 58.5407 18.3264 57.9751 18.3264C57.0947 18.3264 56.433 18.8024 56.433 18.8024C58.8021 20.0971 59.2842 22.1758 60.6324 22.6427ZM6.28458 22.7575C6.51581 22.7575 6.74704 22.723 6.96937 22.641C8.32117 22.1741 8.80854 20.0971 11.1724 18.8042C11.1724 18.8042 10.5107 18.3264 9.63562 18.3264C9.06644 18.3264 8.40655 18.5234 7.78045 19.1871C5.82212 21.2295 4.00073 21.3444 4.00073 21.3444C4.32801 22.0975 5.29029 22.7594 6.28458 22.7594V22.7575Z" fill="#FFFFFE"/>
<path fill-rule="evenodd" clip-rule="evenodd" d="M59.9187 37.5556C58.0866 36.6256 56.9304 34.1639 56.6494 33.2776C56.347 38.161 54.0259 41.5492 51.3134 44.8096C49.9048 46.5019 49.4137 48.1466 49.4137 48.1466C49.4137 48.1466 49.6859 46.283 50.9025 44.7659C53.4336 41.6441 55.8383 37.7562 56.0179 33.2593C56.1407 30.1229 55.3564 27.579 54.1291 25.482C54.8156 27.6648 54.7178 30.3399 52.3896 32.8363C52.3896 32.8363 57.0265 27.1323 50.5451 21.2825C47.9517 19.0578 45.1129 17.6828 43.6525 16.709C48.93 18.4779 51.509 16.5303 51.509 16.5303C49.8229 18.031 47.6404 18.0056 46.2869 17.7886C46.655 17.9728 47.0374 18.166 47.4464 18.3903C51.8985 20.874 55.897 24.9605 56.5801 30.617V30.5733C57.6135 36.1296 59.9187 37.5556 59.9187 37.5556ZM61.274 31.082C61.3149 31.0858 61.3506 31.0858 61.3915 31.0858C63.8727 31.0858 64.7122 28.3559 64.7122 28.3559H64.6642C64.2089 28.3559 60.5199 28.2465 57.9124 24.842C56.1976 22.6045 54.7907 20.6369 52.0124 19.8638L51.7386 19.8126L51.6798 19.5263C51.6034 19.0906 51.8932 18.682 52.5549 18.2426C56.3879 15.6642 53.7822 12.3745 53.7822 12.3745C53.7822 12.3745 52.6901 15.0041 50.2408 15.0041L50.0576 15.0004C49.7801 14.9858 49.5115 14.9767 49.2412 14.9165L48.7894 14.8253C48.7894 14.8253 49.4884 12.8742 47.8023 11.0853C46.5341 9.73221 44.9883 9.50244 44.0972 9.50244C43.6472 9.50244 43.3627 9.56263 43.3627 9.56263C44.2093 10.6987 44.8212 12.586 43.8429 13.7494C42.9981 14.7487 40.9347 14.798 40.9347 16.2896C40.9347 16.9206 41.5093 17.6573 42.5409 18.3192C45.6429 20.325 48.7218 22.9875 50.0026 26.556C51.6034 31.0055 49.7997 33.9596 47.2277 35.6536C47.2277 35.6536 48.0353 36.4159 49.2038 36.5143C49.4422 36.538 49.6752 36.549 49.8922 36.549C52.3629 36.549 53.6399 35.3583 53.6399 35.3583C53.6399 35.3583 53.4282 37.003 52.1459 38.5293C50.9577 39.9372 49.4013 40.7686 47.0267 40.8033C47.0267 40.8033 46.952 41.9339 48.0032 42.915C48.6773 43.5332 50.2303 43.7356 50.2303 43.7356C50.2303 43.7356 47.3203 44.3392 46.9983 48.7539C46.824 51.1463 46.2299 51.976 46.2299 51.976H46.2815C53.0334 51.976 52.8609 46.0278 52.8609 46.0278C52.8609 46.0278 53.3304 47.7893 55.2141 48.2487C55.4417 48.3107 55.6855 48.3345 55.9166 48.3345C56.5214 48.3345 57.0496 48.1886 57.0496 48.1886C57.0496 48.1886 56.0624 46.0515 57.0408 43.0626C57.8536 40.5809 57.722 38.7428 57.722 38.7428C57.722 38.7428 58.6309 40.156 60.8881 40.1688H60.9111C61.4443 40.1771 61.971 40.0475 62.4424 39.7919C62.9137 39.5364 63.3146 39.163 63.6077 38.7063C59.1059 36.786 59.5506 30.5916 59.5506 30.5916C59.5506 30.5916 60.134 31.0402 61.274 31.0839V31.082ZM16.2928 44.8096C13.5803 41.5492 11.2591 38.161 10.9532 33.2776C10.6739 34.1656 9.51955 36.6275 7.68927 37.5556C7.68927 37.5556 9.9909 36.1296 11.0243 30.5733V30.617C11.7091 24.9605 15.7076 20.874 20.1596 18.3922C20.5688 18.1642 20.9529 17.9728 21.3176 17.7903C19.9657 18.0056 17.7816 18.031 16.0971 16.5322C16.0971 16.5322 18.6763 18.4779 23.9519 16.709C22.4933 17.6828 19.6545 19.0578 17.063 21.2825C10.5797 27.1323 15.2167 32.8363 15.2167 32.8363C12.8866 30.338 12.7906 27.6666 13.4771 25.482C12.2498 27.579 11.4636 30.1229 11.5917 33.2612C11.7678 37.7562 14.1708 41.644 16.6966 44.7676C17.9203 46.2812 18.1959 48.1449 18.1959 48.1449C18.1959 48.1449 17.6979 46.5019 16.2928 44.8096ZM17.3778 43.7338C17.3778 43.7338 18.9306 43.5332 19.6047 42.9132C20.6541 41.9339 20.5812 40.8033 20.5812 40.8033C18.2049 40.7686 16.6503 39.9372 15.4568 38.5293C14.1797 37.003 13.9663 35.3583 13.9663 35.3583C13.9663 35.3583 15.2434 36.549 17.7105 36.549C17.9327 36.549 18.164 36.538 18.4005 36.5143C19.1304 36.4387 19.8211 36.1386 20.3821 35.6536C17.8064 33.9596 16.0028 31.0055 17.602 26.5543C18.8826 22.9893 21.9596 20.325 25.0652 18.3173C26.0952 17.6573 26.6679 16.9206 26.6679 16.2896C26.6679 14.798 24.6081 14.7487 23.7632 13.7494C22.785 12.586 23.3987 10.6987 24.2436 9.56263C24.2436 9.56263 23.9607 9.50244 23.5089 9.50244C22.6196 9.50244 21.074 9.73221 19.8039 11.0853C18.1142 12.876 18.8167 14.8272 18.8167 14.8272L18.365 14.9183C18.0964 14.9749 17.8242 14.9858 17.5468 15.0022L17.3689 15.0041C14.9143 15.0041 13.824 12.3763 13.824 12.3763C13.824 12.3763 11.2218 15.6642 15.0548 18.2426C15.713 18.682 16.0028 19.0923 15.9264 19.5263L15.8677 19.8109L15.5884 19.8619C12.8155 20.6369 11.4085 22.6045 9.69031 24.842C7.08274 28.2465 3.39731 28.3559 2.94018 28.3559H2.89038C2.89038 28.3559 3.73169 31.0858 6.21474 31.0858C6.25388 31.0858 6.28945 31.0858 6.33214 31.082C7.47227 31.0402 8.05746 30.5916 8.05746 30.5916C8.05746 30.5916 8.49858 36.786 3.99849 38.7063C3.99849 38.7063 4.81847 40.1706 6.69676 40.1706H6.71811C8.97705 40.156 9.88418 38.7428 9.88418 38.7428C9.88418 38.7428 9.75256 40.5826 10.5619 43.0626C11.5401 46.0533 10.5583 48.1867 10.5583 48.1867C10.5583 48.1867 11.083 48.3326 11.6895 48.3326C11.9243 48.3326 12.1645 48.3107 12.3903 48.2487C14.2722 47.7893 14.7436 46.0278 14.7436 46.0278C14.7436 46.0278 14.571 51.976 21.3248 51.976H21.3745C21.3745 51.976 20.7823 51.1463 20.6096 48.7539C20.2895 44.341 17.376 43.7338 17.376 43.7338H17.3778ZM32.2778 21.8149H35.4617V22.9363C35.0881 22.4659 34.3589 22.5626 34.3589 22.5626V24.18C34.3589 24.18 34.3838 24.975 34.6577 25.3198H33.0818C33.3576 24.975 33.3807 24.18 33.3807 24.18V22.5626C33.3807 22.5626 32.655 22.4659 32.2778 22.9363V21.8149ZM28.8094 21.9826C28.9198 22.1049 29.0283 22.238 29.1332 22.371C29.158 22.402 29.1811 22.4295 29.206 22.4659C29.3039 22.5972 29.4017 22.7395 29.4961 22.8816L29.5601 22.9783C29.6721 23.1533 29.7788 23.3339 29.8856 23.5218C30.8602 25.2486 32.4184 26.2808 33.8004 26.2826C35.186 26.2808 36.7423 25.2486 37.7188 23.5218C37.8273 23.3303 37.9358 23.1443 38.0497 22.9692C38.1796 22.7652 38.3185 22.5674 38.4659 22.3766C38.5744 22.238 38.6865 22.103 38.8004 21.979C38.8199 21.9608 38.8359 21.9408 38.8554 21.9243C39.3534 21.4028 39.9423 21.0053 40.7177 20.7846L40.3727 20.5786H40.3549L38.9817 19.7616L37.5748 18.9319L33.8111 21.0363L33.8004 21.0272L33.7951 21.0363L30.0314 18.9319L28.6226 19.7616L27.2495 20.5786H27.2335L26.8866 20.7846C27.6604 21.0035 28.2509 21.3973 28.749 21.9206C28.7703 21.9389 28.7846 21.9645 28.8094 21.9826Z" fill="#FFFFFE"/>
<path fill-rule="evenodd" clip-rule="evenodd" d="M32.6031 14.6849V15.7426L32.4056 15.6477C32.3968 15.6404 32.1051 15.5747 31.6016 15.1626C30.7674 14.4989 30.7515 13.8862 30.7515 13.8862L32.6012 14.6849H32.6031ZM33.4747 19.6394V13.071L29.405 11.6523L30.4793 18.0164L33.4764 19.6394H33.4747ZM35.0044 14.6849L36.8541 13.8862C36.8541 13.8862 36.8399 14.4989 36.0021 15.1626C35.4988 15.573 35.2088 15.6404 35.2 15.6477L35.0044 15.7407V14.6849ZM37.1263 18.0183L38.1953 11.6542L34.1274 13.071V19.6394L37.1263 18.0164V18.0183ZM27.7187 34.8659C28.1154 35.0117 28.5957 35.0427 28.8429 35.0427C28.8518 35.0117 28.866 34.9734 28.8784 34.926C28.8981 34.8531 28.9194 34.7766 28.9355 34.6963C29.0048 34.3316 29.0279 33.9213 29.035 33.655C28.8076 33.5164 28.6222 33.3157 28.4996 33.0751C28.3485 32.7487 28.1332 32.5956 27.8184 32.5956C27.4094 32.5956 26.9699 32.8509 26.7796 32.9676C26.6302 33.8757 27.283 34.6999 27.7187 34.864V34.8659ZM36.7225 31.3811C35.9683 32.2254 34.4867 33.697 34.4155 33.7699L34.3265 33.8611L29.6486 33.7863C29.6448 34.1831 29.5945 34.578 29.4992 34.9626L29.4619 35.1139L35.0239 36.1423C35.6019 35.7266 37.1939 34.5321 37.8128 34.0636C37.3628 33.3889 37.3202 32.5883 37.4216 32.0266C37.1545 31.8537 36.9181 31.6353 36.7225 31.3811Z" fill="#FFFFFE"/>
<path fill-rule="evenodd" clip-rule="evenodd" d="M37.3576 25.6042C36.2796 26.702 35.2462 27.1086 34.3232 27.2034C34.1541 27.2222 33.9844 27.232 33.8145 27.2326H33.7912C33.4518 27.2326 33.1131 27.1959 32.7809 27.1232C32.7205 27.3693 32.6441 27.8854 32.8628 28.3742C33.0585 28.8173 33.4552 29.1473 34.035 29.368L34.2307 29.4463L34.2324 29.6616C34.2324 29.7253 34.2787 31.1222 35.7621 31.5106C36.004 31.2553 36.2246 31.0237 36.3847 30.8286C36.0823 30.0973 36.2424 29.3497 36.6817 28.9832C36.6638 29.0616 36.4682 30.8943 37.9001 31.5763L38.1367 31.6912L38.0655 31.9483C38.0424 32.0266 37.5656 33.801 39.2999 34.461L39.6059 34.5814L39.4689 34.886C39.4387 34.9534 38.7591 36.5636 40.36 37.479H43.8303V34.647C42.5959 34.492 42.0746 33.4727 41.9394 32.7506C41.365 32.6503 40.922 32.3969 40.6179 31.9829C39.8886 30.9982 40.5147 30.0956 40.5237 30.0463C40.5218 30.0536 40.5237 31.0127 41.0999 31.6073C41.3862 31.8917 41.7243 32.1142 42.2383 32.1634L42.4891 32.1872L42.5104 32.4516C42.5157 32.508 42.6527 33.8083 43.8303 34.0124L43.8284 28.2319C43.8284 27.3347 44.0828 26.4339 44.3887 25.6023H37.3576V25.6042ZM28.0141 28.2537L27.9217 31.9336L28.3307 31.9993L29.3268 28.4672L28.8199 27.3803L28.0159 28.2537H28.0141ZM30.1734 41.8829C30.1461 41.8819 30.1191 41.8753 30.0945 41.8635C30.0697 41.8516 30.0475 41.8345 30.0294 41.8136C30.0112 41.7925 29.9975 41.768 29.9888 41.7414C29.9802 41.7147 29.9771 41.6865 29.9796 41.6586C29.9812 41.6308 29.9882 41.6039 29.9999 41.5789C30.0119 41.5541 30.0285 41.532 30.0489 41.5138C30.0692 41.4955 30.0929 41.4817 30.1187 41.4732C30.1444 41.4645 30.1714 41.4611 30.1983 41.4634C30.3157 41.4689 30.3975 41.5729 30.3939 41.6859C30.3899 41.7418 30.3645 41.7939 30.3231 41.8308C30.2819 41.8677 30.2281 41.8863 30.1734 41.8829ZM38.9992 45.1414C39.0295 45.1414 39.0651 45.1452 39.0972 45.1543C39.7197 45.3366 39.8744 47.6306 40.9612 47.8349C41.0679 47.8586 41.1675 47.864 41.2529 47.864C41.5677 47.864 41.7545 47.7273 41.9573 47.481C41.9573 47.481 41.4095 46.6003 41.0003 46.004C40.4578 45.2236 40.0363 44.2807 39.0242 44.2807C38.9992 44.2807 38.9709 44.2807 38.9442 44.2844C38.7514 44.2924 38.5649 44.357 38.407 44.4704C38.0692 44.2414 37.6737 44.1178 37.2687 44.1149C36.6372 44.1149 36.1427 44.4139 35.8955 44.4139H35.8865L33.6277 44.1842C33.2737 44.1476 32.9944 43.783 32.893 43.6407L32.8539 43.5787C32.8539 43.5149 32.8539 43.451 32.8504 43.3946C32.7738 41.4963 31.3438 40.6847 30.8334 40.6702C30.8334 40.6702 30.8938 40.3092 30.7568 40.1723L30.2588 40.7923L28.6224 39.9499L29.7893 41.3503L28.8021 42.49C28.6776 42.6196 28.6936 42.7946 28.7452 42.8693L29.1721 43.256L29.7127 42.9186C29.7394 42.8986 29.7893 42.8913 29.8497 42.8913C29.9992 42.8913 30.2233 42.9313 30.4242 42.9313C30.6466 42.9313 30.8369 42.884 30.86 42.6706C30.7924 43.3744 30.1557 44.598 30.5736 45.559L30.8831 46.2849L28.8856 45.9895L27.9501 47.6106C27.6619 48.1503 27.6157 48.7339 27.8932 49.0512L28.2436 49.5016C28.2436 49.5016 28.7345 48.9673 28.843 48.6153L28.6848 48.4366C28.5513 48.2853 28.5584 48.1503 28.6403 47.988L29.2271 46.9887L31.5839 47.5594L31.7085 47.3406C31.8685 47.0672 32.0997 46.9869 32.3524 46.9869C32.4573 46.9869 32.5639 46.9996 32.6743 47.0179C33.1119 47.1073 33.8322 47.2257 34.5526 47.2257C35.344 47.2257 36.1285 47.0799 36.5465 46.6003C37.4003 47.9004 39.1327 48.1066 38.9957 48.7684L38.5404 50.9969C38.8428 50.9823 39.1327 50.9622 39.4084 50.9239L39.8424 48.6062C39.8776 48.4093 39.9085 48.2118 39.9348 48.0136C39.7677 47.8384 39.3639 47.472 39.1345 47.0252C38.8303 46.4216 38.9957 46.1062 38.7111 45.322C38.7111 45.322 38.8001 45.1396 38.9992 45.1396V45.1414Z" fill="#FFFFFE"/>
<path fill-rule="evenodd" clip-rule="evenodd" d="M26.9526 47.2476C26.9526 47.2476 27.7353 46.9195 27.8065 46.6824L27.6997 46.4162C27.6267 46.2411 27.6356 46.0515 27.7796 45.9494L28.6228 45.3494L30.0333 45.6284C30.0333 45.6284 29.7771 45.3002 29.8021 44.8625L28.4575 44.5708L27.1874 45.3639C26.9657 45.5324 26.8056 45.7722 26.7325 46.0449C26.6593 46.3175 26.6773 46.6075 26.7836 46.8684L26.9526 47.2495V47.2476ZM36.9257 51.0261C37.1765 51.0151 37.4575 51.0115 37.7616 51.0115C37.7616 51.0115 38.4874 48.8324 38.5283 48.7631C37.9893 48.5053 37.4634 48.2198 36.9524 47.9078C37.1677 48.2396 37.6905 48.6172 37.5874 48.9089L36.9257 51.0261Z" fill="#FFFFFE"/>
<path fill-rule="evenodd" clip-rule="evenodd" d="M43.8304 38.1028H23.7758V45.851C23.7758 49.0203 26.0079 51.0024 29.3038 51.0024C32.0555 51.0024 32.7813 51.1118 33.8039 52.1567C34.5101 51.4328 35.0935 51.1647 36.2942 51.0625L36.3208 50.9441L36.9521 48.9364C36.9167 48.8908 35.885 47.6854 35.885 47.6854C35.4759 47.8258 35.1309 47.8495 34.551 47.8495C33.9586 47.8495 33.2881 47.7765 32.5607 47.638C32.4925 47.6214 32.4226 47.6129 32.3525 47.6125C32.2636 47.6125 32.2583 47.6198 32.2333 47.6654L32.1089 47.8787L31.8776 48.269L31.4455 48.165L29.5208 47.7L29.2558 48.1468L29.2967 48.196L29.5298 48.4604L29.4266 48.8068C29.2843 49.2572 28.8253 49.7842 28.6849 49.9301L28.2046 50.459L27.7653 49.8918L27.4362 49.467C27.0893 49.0695 27.0094 48.4604 27.205 47.8221C27.1992 47.8264 27.1926 47.8289 27.1854 47.8295L26.6429 48.0611L26.3993 47.514L26.2268 47.1292C26.0611 46.7355 26.0313 46.2958 26.1421 45.8824C26.2531 45.469 26.4982 45.1068 26.8368 44.8552L28.3842 43.9562L29.8606 44.2535C29.8961 44.1077 29.9496 43.5898 29.9905 43.4567C29.962 43.453 29.9353 43.4475 29.9068 43.4475L29.0566 43.7721L28.2384 43.1923C28.2384 43.1923 27.9183 42.875 28.2081 42.5577L28.9997 41.3231L26.9898 38.7337L30.0793 40.0357L30.2858 39.775L30.7019 39.2607L31.175 39.7238C31.2995 39.8486 31.3859 40.0076 31.4241 40.1815C32.2742 40.5225 33.8004 41.5274 33.9355 43.1613L33.4589 43.3564V43.3691C33.5674 43.5023 33.6581 43.557 33.6866 43.5624L35.8921 43.7848C35.949 43.774 36.0166 43.7484 36.0948 43.7265C36.3706 43.6298 36.7815 43.4895 37.2688 43.4895C37.6673 43.4895 38.0514 43.5842 38.4197 43.763C38.5566 43.7082 38.7219 43.67 38.9177 43.6572L39.0243 43.6535C40.2037 43.6535 40.7906 44.5598 41.2619 45.2838C41.3402 45.4097 41.4185 45.5264 41.5003 45.6431C41.9129 46.2411 42.4519 47.1147 42.4732 47.153L42.7169 47.5414L42.4181 47.8988C42.1905 48.1722 41.8436 48.4914 41.2531 48.4914C41.1193 48.4903 40.9859 48.4762 40.8547 48.4495C40.7337 48.4257 40.6156 48.3883 40.5024 48.3383C40.4844 48.4669 40.4637 48.5952 40.4403 48.723L40.0543 50.7964C42.3666 50.2128 43.8357 48.4185 43.8357 45.851L43.8304 38.1028ZM23.7758 37.4791H39.3748C38.5958 36.6513 38.6082 35.6064 38.8056 34.9261C38.5951 34.8226 38.3995 34.69 38.2239 34.5322C37.6138 34.9937 35.7534 36.385 35.2678 36.7351L35.1628 36.8081L29.0406 35.6701H28.9162C28.7703 35.6701 28.555 35.6647 28.3202 35.6337C28.2951 35.749 28.2379 35.8542 28.1556 35.9369C28.0733 36.0195 27.9694 36.0759 27.8566 36.0993C27.7436 36.1227 27.6264 36.112 27.5193 36.0685C27.4122 36.0251 27.3198 35.9507 27.253 35.8544C27.2062 35.7887 27.1726 35.714 27.1543 35.6348C27.1358 35.5556 27.1332 35.4733 27.1464 35.393L27.1695 35.2563C26.5397 34.8004 25.9546 33.7791 26.2142 32.7032L26.2392 32.5903L26.3281 32.5245C26.4179 32.4618 26.5104 32.4033 26.6056 32.3495L26.1609 32.2765C26.082 32.2627 26.0113 32.2178 25.9642 32.1513C25.9171 32.085 25.8969 32.0023 25.9084 31.921C25.9368 31.7495 26.0916 31.6293 26.257 31.6603L27.3153 31.8317L27.4131 28.0004L28.989 26.2862L29.9744 28.4144L28.9357 32.1015L29.8713 32.2528C29.9511 32.2663 30.0226 32.3117 30.07 32.379C30.1173 32.4463 30.1366 32.5301 30.1238 32.6121C30.1123 32.6848 30.0759 32.7508 30.0212 32.7983C29.9663 32.8457 29.8967 32.8716 29.8249 32.8711L29.777 32.8693L29.014 32.7415C29.0247 32.7671 29.0388 32.7798 29.0495 32.8054C29.1344 32.9564 29.2623 33.0773 29.4159 33.1518L34.0814 33.2302C34.2789 33.0315 34.768 32.5391 35.2732 32.0177C34.8335 31.8521 34.4475 31.5645 34.1584 31.1866C33.8694 30.8088 33.6888 30.3559 33.6367 29.8787C32.9964 29.5978 32.5517 29.1784 32.3063 28.6314C32.0075 27.953 32.1141 27.2747 32.1943 26.9445C31.5716 26.713 30.9171 26.2862 30.2484 25.6042H23.219C23.5214 26.4358 23.7758 27.3367 23.7758 28.232V37.4772V37.4791Z" fill="#FFE52B"/>
<path fill-rule="evenodd" clip-rule="evenodd" d="M30.1987 41.4635C30.1716 41.4612 30.1445 41.4646 30.1186 41.4734C30.0928 41.4821 30.069 41.496 30.0487 41.5145C30.0282 41.5328 30.0116 41.5552 29.9998 41.5804C29.9881 41.6053 29.9812 41.6326 29.9799 41.6603C29.9777 41.6882 29.9811 41.7161 29.9898 41.7426C29.9985 41.769 30.0122 41.7935 30.0304 41.8143C30.0485 41.835 30.0705 41.8518 30.0952 41.8637C30.1198 41.8755 30.1466 41.882 30.1738 41.8829C30.2282 41.8865 30.2816 41.8679 30.3229 41.8315C30.3641 41.795 30.3898 41.7434 30.3943 41.6878C30.3973 41.6315 30.3784 41.5763 30.3416 41.5342C30.305 41.4922 30.2536 41.4667 30.1987 41.4635ZM39.4941 57.711L38.578 55.1216C39.6684 54.7806 41.5415 54.0476 42.3826 53.5608L41.8225 55.4445L43.7203 56.0918C42.5713 56.6826 41.1803 57.2352 39.4941 57.7093V57.711ZM33.8059 60.036C31.5985 60.036 29.0799 59.5146 28.3364 59.2429L29.4642 56.1101C30.3997 56.3909 32.3456 56.6881 33.7597 56.6791H33.8485C35.2609 56.6881 37.2049 56.3891 38.1459 56.1101L39.2718 59.2429C38.5283 59.5163 36.0097 60.036 33.8059 60.036ZM23.8879 56.0918L25.7876 55.4445L25.2255 53.5608C26.0633 54.0476 27.9416 54.7825 29.0283 55.1216L28.1123 57.711C26.4314 57.2371 25.0352 56.6826 23.8879 56.0918ZM43.8057 55.5173L42.6496 55.0615L42.9696 53.836L43.3201 52.4995C43.3201 52.4995 41.2745 53.6411 38.3878 54.4962C37.5696 54.7369 36.9507 54.8482 36.9507 54.8482V55.7581C36.9507 55.7581 35.4067 56.0316 33.8485 56.0316H33.7597C32.1979 56.0316 30.6577 55.7581 30.6577 55.7581V54.8463C30.6577 54.8463 30.0369 54.7369 29.2186 54.4962C26.3353 53.6392 24.29 52.4995 24.29 52.4995L24.635 53.836L24.9622 55.0615L23.8025 55.5173L22.5166 56.0098C23.9893 56.7411 26.0312 57.8041 27.8988 58.3293L27.4596 59.5656C27.4596 59.5656 29.8287 60.6743 33.7756 60.6853V60.6871H33.829V60.6853C37.7813 60.6743 40.1505 59.5656 40.1505 59.5656L39.7058 58.3293C41.5752 57.8041 43.6206 56.7428 45.0863 56.0098L43.8057 55.5173ZM28.9803 5.63112L29.5049 5.68946L29.7309 5.19712L30.3926 3.74376L31.6199 4.39657L32.0965 4.6464L33.8006 2.9104L35.1293 4.25982L35.5098 4.6464L35.9866 4.39657L37.2067 3.74376L37.8791 5.19712L38.1014 5.68946L38.6261 5.63112L39.1276 5.57093C38.8982 6.10157 38.7293 6.6067 38.6065 7.02612C37.2814 6.2657 35.5597 5.83534 33.8023 5.83534C32.052 5.83534 30.3303 6.2657 28.9998 7.02612C28.8564 6.53047 28.683 6.04447 28.4805 5.57093L28.9786 5.63112H28.9803ZM33.8006 6.59212C36.1538 6.59212 38.0338 7.39446 39.0743 8.24604C39.0743 8.24604 39.3839 6.33682 40.4368 4.6537L38.5425 4.87252L37.5518 2.71165L35.6487 3.72004L33.8006 1.84546L31.9597 3.72004L30.0529 2.71165L29.064 4.87434L27.1695 4.65187C28.2243 6.33682 28.532 8.24423 28.532 8.24423C29.5779 7.39264 31.4527 6.59212 33.8006 6.59212ZM63.6077 38.7063C63.6077 38.7063 62.7896 40.1706 60.9113 40.1706H60.8882C58.6328 40.1561 57.7221 38.7428 57.7221 38.7428C57.7221 38.7428 57.8538 40.5809 57.0427 43.0626C56.0643 46.0533 57.0498 48.1868 57.0498 48.1868C57.0498 48.1868 56.5233 48.3345 55.9168 48.3345C55.6855 48.3345 55.4436 48.3108 55.2142 48.2488C53.3306 47.791 52.861 46.0296 52.861 46.0296C52.861 46.0296 53.0353 51.9761 46.2817 51.9761H46.2282C46.2282 51.9761 46.8242 51.1463 47.0002 48.7539C47.3203 44.3411 50.2303 43.7338 50.2303 43.7338C50.2303 43.7338 48.6775 43.5332 48.0034 42.9151C46.9522 41.9358 47.025 40.8033 47.025 40.8033C49.4014 40.7686 50.9596 39.9391 52.1459 38.5293C52.9104 37.6275 53.4262 36.5328 53.64 35.3583C53.64 35.3583 52.3629 36.5491 49.8924 36.5491C49.6754 36.5491 49.4441 36.5381 49.2057 36.5143C48.0353 36.4178 47.2278 35.6536 47.2278 35.6536C49.7999 33.9596 51.6034 31.0036 50.0045 26.5543C48.7237 22.9893 45.6431 20.3251 42.5428 18.3192C41.5111 17.6573 40.9348 16.9206 40.9348 16.2878C40.9348 14.798 42.9981 14.7506 43.8448 13.7495C44.8231 12.586 44.2095 10.6987 43.3627 9.56264C43.3627 9.56264 43.6473 9.50246 44.0974 9.50246C44.9902 9.50246 46.5342 9.73223 47.8041 11.0853C49.4886 12.876 48.7896 14.8272 48.7896 14.8272L49.2414 14.9183C49.5117 14.9749 49.7803 14.9876 50.0595 15.0022L50.241 15.004C52.6901 15.004 53.7841 12.3745 53.7841 12.3745C53.7841 12.3745 56.3881 15.6642 52.555 18.2426C51.8951 18.6821 51.6034 19.0923 51.6799 19.5263L51.7405 19.8126L52.0125 19.8619C54.7909 20.6369 56.1978 22.6063 57.9143 24.8421C60.5218 28.2465 64.2108 28.3559 64.6644 28.3559H64.7141C64.7141 28.3559 63.8728 31.0858 61.3915 31.0858C61.3506 31.0858 61.3151 31.0858 61.2742 31.0821C60.1357 31.0402 59.5489 30.5916 59.5489 30.5916C59.5489 30.5916 59.1059 36.786 63.6077 38.7063ZM61.3915 31.9209C64.4331 31.9209 65.4505 28.7425 65.4931 28.6076L65.8312 27.4861L64.6927 27.5226H64.6893C64.2855 27.5226 60.9309 27.4313 58.5527 24.3259L58.3269 24.0378C56.7722 22.0082 55.2977 20.0771 52.6618 19.1963C52.767 19.1018 52.8795 19.0158 52.998 18.9392C54.3959 17.9946 55.2106 16.8476 55.4133 15.5146C55.714 13.5106 54.4671 11.9132 54.4137 11.8475L53.5671 10.7716L53.037 12.0481C53.0015 12.1265 52.1121 14.1689 50.241 14.1689H50.1023C49.9741 14.1634 49.8515 14.1579 49.7304 14.147C49.7963 13.2352 49.6345 11.8275 48.3894 10.5036C46.8935 8.91164 45.0578 8.67276 44.0974 8.67276C43.5851 8.67276 43.2437 8.7384 43.2063 8.74204L41.9274 9.00282L42.7153 10.0696C43.3343 10.8938 43.8964 12.4128 43.2311 13.206C43.0177 13.4613 42.5801 13.6638 42.1621 13.8698C41.3012 14.2765 40.1238 14.8454 40.1238 16.2878C40.1238 17.2215 40.8299 18.2006 42.1106 19.0303C45.8956 21.4758 48.2328 24.0286 49.2414 26.8461C50.803 31.1788 48.7665 33.6515 46.7868 34.9535L45.901 35.5388L46.6783 36.2719C46.7832 36.3666 47.7312 37.2256 49.1346 37.3496C49.4014 37.3678 49.6557 37.3823 49.8941 37.3823C50.7923 37.3823 51.559 37.2365 52.1814 37.0432C51.9954 37.3761 51.7786 37.69 51.534 37.9805C50.4045 39.3263 49.0137 39.9391 47.0126 39.9718L46.2691 39.9828L46.2122 40.7486C46.2051 40.9036 46.1499 42.3242 47.4573 43.5313C47.6582 43.7173 47.9002 43.8723 48.1545 43.9963C47.2651 44.8169 46.3652 46.2466 46.1908 48.6938C46.0433 50.736 45.5684 51.4929 45.5629 51.5021L44.7413 52.7893L46.2265 52.8095C48.6792 52.8095 50.5575 52.1165 51.8578 50.7379C52.5313 50.0137 53.0338 49.1411 53.327 48.1868C54.0493 48.8182 54.9676 49.1648 55.9168 49.1642C56.6104 49.1642 57.1903 49.0129 57.2543 48.9983L58.2024 48.7393L57.7844 47.8312C57.7523 47.7583 56.9626 45.9348 57.8129 43.3326C58.1793 42.2075 58.3659 41.2009 58.4568 40.4149C59.0543 40.7359 59.853 40.9985 60.8864 41.002C63.2343 41.002 64.2677 39.2023 64.3139 39.1275L64.7764 38.2996L63.9191 37.9386C61.1229 36.7461 60.504 33.5439 60.3795 31.8115C60.6339 31.8608 60.922 31.9063 61.2475 31.9155L61.3915 31.9209Z" fill="#1A1919"/>
<path fill-rule="evenodd" clip-rule="evenodd" d="M57.9746 18.3265C58.5402 18.3265 59.2019 18.5254 59.8245 19.1873C61.7847 21.2297 63.6078 21.3446 63.6078 21.3446C63.2768 22.0977 62.3165 22.7595 61.3221 22.7595C61.0927 22.7595 60.8596 22.7231 60.6338 22.6411C59.2837 22.1743 58.8017 20.0973 56.4342 18.8044C56.4342 18.8044 57.0923 18.3265 57.9746 18.3265ZM56.0483 19.5411C57.1813 20.1611 57.843 20.9944 58.4229 21.7311C58.992 22.4514 59.531 23.1444 60.3794 23.4326C60.6783 23.5383 60.9966 23.5893 61.3221 23.5893C62.5903 23.5893 63.8657 22.7905 64.3494 21.6855L64.8351 20.5806L63.6594 20.5076C63.6042 20.5076 62.0905 20.3636 60.4079 18.5983C59.7142 17.8726 58.8764 17.4933 57.9746 17.4933C56.8718 17.4933 56.0537 18.0586 55.9647 18.1168L54.8833 18.8993L56.0483 19.5411ZM56.5801 30.5753V30.6173C55.8971 24.9605 51.8986 20.8758 47.4465 18.3923C47.0375 18.1661 46.6551 17.9728 46.2868 17.7906C47.6404 18.0057 49.8228 18.0313 51.5091 16.5323C51.5091 16.5323 48.93 18.478 43.6526 16.7091C45.1112 17.6828 47.9517 19.0578 50.545 21.2826C57.0248 27.1324 52.3895 32.8364 52.3895 32.8364C54.7196 30.34 54.8157 27.6667 54.1291 25.4821C55.3563 27.5793 56.1391 30.123 56.018 33.2613C55.8402 37.7563 53.4336 41.6441 50.9026 44.7678C49.686 46.2813 49.4157 48.145 49.4157 48.145C49.4157 48.145 49.9065 46.502 51.3135 44.8116C54.026 41.5474 56.3471 38.1611 56.6495 33.2777C56.9305 34.1658 58.0867 36.6276 59.9188 37.5557C59.9188 37.5557 57.6153 36.1297 56.5801 30.5753ZM21.3266 51.9763C14.5728 51.9763 14.7454 46.0297 14.7454 46.0297C14.7454 46.0297 14.2723 47.7913 12.3922 48.2488C12.1625 48.3082 11.9264 48.337 11.6896 48.3345C11.0848 48.3345 10.5583 48.1887 10.5583 48.1887C10.5583 48.1887 11.542 46.0515 10.5619 43.0628C9.75438 40.5828 9.88601 38.7428 9.88601 38.7428C9.88601 38.7428 8.9771 40.1561 6.71994 40.1707H6.69682C4.82031 40.1707 4.00033 38.7064 4.00033 38.7064C8.50041 36.7863 8.0593 30.5917 8.0593 30.5917C8.0593 30.5917 7.47233 31.0403 6.33396 31.084H6.2148C3.73175 31.084 2.89042 28.356 2.89042 28.356H2.94201C3.40091 28.356 7.08457 28.2465 9.69035 24.8421C11.4068 22.6045 12.8155 20.637 15.5885 19.8638L15.8678 19.8128L15.9265 19.5266C16.0046 19.0926 15.7129 18.6823 15.0549 18.2427C11.2218 15.6643 13.824 12.3764 13.824 12.3764C13.824 12.3764 14.9126 15.0041 17.3689 15.0041L17.5469 15.0023C17.8243 14.9877 18.0964 14.975 18.365 14.9166L18.8168 14.8273C18.8168 14.8273 18.116 12.8761 19.8057 11.0854C21.0758 9.73232 22.6179 9.50255 23.509 9.50255C23.9625 9.50255 24.2418 9.56272 24.2418 9.56272C23.3988 10.6988 22.7868 12.5861 23.7616 13.7496C24.6082 14.7507 26.6697 14.7981 26.6697 16.2878C26.6697 16.9207 26.0951 17.6574 25.0653 18.3193C21.9616 20.3253 18.8827 22.9875 17.6019 26.5563C16.0046 31.0055 17.8082 33.9597 20.382 35.6555C20.382 35.6555 19.5727 36.4178 18.4023 36.5146C18.1729 36.5372 17.9428 36.5487 17.7123 36.5491C15.2434 36.5491 13.9663 35.3603 13.9663 35.3603C13.9663 35.3603 14.1798 37.0033 15.4569 38.5313C16.6487 39.9391 18.2049 40.7688 20.5795 40.8034C20.5795 40.8034 20.656 41.934 19.6048 42.9151C18.9306 43.5351 17.3778 43.7357 17.3778 43.7357C17.3778 43.7357 20.2896 44.3411 20.6097 48.754C20.7841 51.1466 21.3746 51.9763 21.3746 51.9763H21.3266ZM22.0433 51.5021C22.0416 51.493 21.5702 50.7363 21.4191 48.6938C21.2411 46.2467 20.3411 44.817 19.45 43.9964C19.7079 43.8724 19.948 43.7174 20.1473 43.5314C21.4546 42.3243 21.3994 40.9055 21.3906 40.7487L21.3408 39.9828L20.5919 39.9718C18.5962 39.9391 17.2036 39.3264 16.0741 37.9805C15.8306 37.6893 15.6139 37.3754 15.4266 37.0433C16.0491 37.2384 16.8105 37.3826 17.7123 37.3826C17.9524 37.3826 18.205 37.3678 18.4699 37.3497C19.3777 37.2567 20.2361 36.8813 20.9299 36.2738L21.7072 35.5388L20.8214 34.9554C18.8363 33.6516 16.8069 31.1807 18.3668 26.8461C19.3753 24.0288 21.7072 21.4777 25.4993 19.0306C26.7799 18.2008 27.4808 17.2215 27.4808 16.2878C27.4808 14.8455 26.3069 14.2766 25.446 13.8699C25.0263 13.6639 24.5887 13.4596 24.377 13.2061C23.71 12.4129 24.2703 10.8939 24.8911 10.0697L25.6844 9.00291L24.3983 8.74214C24.3627 8.73666 24.0248 8.67285 23.509 8.67285C22.5503 8.67285 20.7165 8.91172 19.2223 10.5037C17.9755 11.8276 17.8118 13.2371 17.8759 14.1471C17.7549 14.158 17.634 14.1635 17.506 14.169H17.3689C15.4907 14.169 14.6049 12.1266 14.5711 12.0482L14.0428 10.7717L13.189 11.8476C13.141 11.9132 11.8906 13.5107 12.1965 15.5147C12.3975 16.8458 13.2122 17.9947 14.6102 18.9393C14.7632 19.0395 14.8681 19.1253 14.9446 19.1964C12.305 20.0773 10.834 22.0083 9.27948 24.0378L9.05536 24.326C6.67904 27.4316 3.31554 27.5246 2.91355 27.5246L1.76807 27.488L2.11669 28.6077C2.15761 28.7425 3.17145 31.921 6.2148 31.921L6.36065 31.9155C6.68259 31.9064 6.97252 31.8608 7.22865 31.8098C7.10414 33.5421 6.4816 36.7461 3.68549 37.9368L2.83172 38.3015L3.2942 39.1275C3.33688 39.2024 4.37563 41.0023 6.72706 41.0023C7.56866 41.0108 8.39982 40.8105 9.14963 40.4187C9.24034 41.2028 9.42888 42.2076 9.7953 43.3327C10.6455 45.933 9.854 47.7584 9.82376 47.8313L9.40399 48.7394L10.352 48.9965C10.4161 49.0148 10.9995 49.1643 11.6896 49.1643C12.6391 49.1667 13.5581 48.82 14.2794 48.1868C14.5373 49.002 14.9802 49.9228 15.7467 50.738C17.0523 52.1148 18.9289 52.8095 21.3799 52.8095L22.8651 52.7896L22.0433 51.5021Z" fill="#1A1919"/>
<path fill-rule="evenodd" clip-rule="evenodd" d="M7.78032 19.1872C8.40641 18.5253 9.06631 18.3248 9.63548 18.3248C10.5106 18.3248 11.1741 18.8043 11.1741 18.8043C8.8084 20.099 8.32104 22.1742 6.96923 22.6428C6.74907 22.721 6.51744 22.7599 6.28443 22.7578C5.29015 22.7578 4.32788 22.0976 4.0006 21.3445C4.0006 21.3445 5.82197 21.2296 7.78032 19.1872ZM6.28443 23.5892C6.60993 23.5892 6.92831 23.5382 7.2307 23.4325C8.07736 23.1443 8.61808 22.4532 9.18725 21.731C9.76889 20.9962 10.4234 20.1628 11.5582 19.5428L12.7251 18.899L11.6401 18.115C11.5511 18.0585 10.7383 17.495 9.63548 17.495C8.73191 17.495 7.89237 17.8725 7.20046 18.5982C5.51605 20.3652 4.00593 20.5075 3.95079 20.5093L2.77686 20.5805L3.25711 21.6873C3.74447 22.7905 5.01802 23.5892 6.28443 23.5892ZM11.5903 33.2612C11.4658 30.1229 12.2484 27.579 13.4757 25.482C12.7927 27.6666 12.8851 30.3399 15.2188 32.8382C15.2188 32.8382 10.58 27.1305 17.0634 21.2843C19.6567 19.0578 22.4936 17.6828 23.9522 16.709C18.6766 18.4779 16.0993 16.5303 16.0993 16.5303C17.7836 18.031 19.966 18.0075 21.3197 17.7886C20.9532 17.9728 20.5692 18.1642 20.16 18.3922C15.7079 20.874 11.7112 24.9605 11.0246 30.617V30.5752C9.99122 36.1296 7.6896 37.5556 7.6896 37.5556C9.52165 36.6256 10.6742 34.1639 10.9553 33.2776C11.2612 38.161 13.5806 41.5492 16.2913 44.8115C17.7001 46.5019 18.1946 48.1449 18.1946 48.1449C18.1946 48.1449 17.9207 46.283 16.6986 44.7678C14.1729 41.644 11.7681 37.7562 11.5903 33.2612ZM32.2782 21.8149V22.9382C32.6553 22.4659 33.381 22.5626 33.381 22.5626V24.18C33.381 24.18 33.3579 24.975 33.0821 25.3198H34.658C34.3841 24.975 34.3575 24.18 34.3575 24.18V22.5626C34.3575 22.5626 35.0868 22.4659 35.4603 22.9382V21.8149H32.2765H32.2782ZM31.6024 15.1627C32.1056 15.573 32.3974 15.6423 32.4062 15.6478L32.602 15.7408V14.6849L30.752 13.8862C30.752 13.8862 30.7682 14.4989 31.6024 15.1627ZM36.0028 15.1627C36.8387 14.4989 36.8566 13.8862 36.8566 13.8862L35.0049 14.6849V15.7426L35.2005 15.6478C35.2095 15.6423 35.4994 15.573 36.0028 15.1627Z" fill="#1A1919"/>
<path fill-rule="evenodd" clip-rule="evenodd" d="M33.8026 12.349L29.3434 10.54C29.7222 9.61732 31.4708 8.8332 33.8026 8.83137C36.1363 8.8332 37.8847 9.61732 38.2635 10.54L33.8026 12.349ZM37.1269 18.0183L34.1298 19.6413V13.0693L38.1978 11.6506L37.1269 18.0147V18.0183ZM38.9839 19.7616L40.3535 20.5786H40.373L40.7181 20.7846C39.9445 21.0034 39.3521 21.4027 38.8559 21.9243L38.8024 21.979C38.6854 22.107 38.5733 22.2396 38.4662 22.3766L38.4041 22.4604C38.2973 22.6009 38.1959 22.7449 38.1017 22.8944L38.0501 22.9692C37.9347 23.1497 37.825 23.334 37.721 23.5217C36.7428 25.2486 35.1864 26.2807 33.8026 26.2845C32.4187 26.2807 30.8607 25.2486 29.8859 23.5217C29.7824 23.3376 29.6737 23.1564 29.5604 22.9783L29.4964 22.8817C29.4034 22.7408 29.3073 22.6023 29.2082 22.4659C29.1833 22.4294 29.1602 22.402 29.1352 22.371C29.0309 22.238 28.9223 22.1086 28.8097 21.9827C28.7866 21.9644 28.7707 21.9407 28.7493 21.9207C28.2412 21.3751 27.5972 20.9822 26.8871 20.7846L27.2357 20.5786H27.25L28.6248 19.7616L30.0317 18.9319L33.7955 21.0363L33.8026 21.029L33.8133 21.0363L37.5751 18.9319L38.9839 19.7616ZM44.3911 25.6042C44.0834 26.4357 43.8291 27.3366 43.8291 28.2319L43.8326 34.0124C42.657 33.8119 42.5164 32.5099 42.5128 32.4534L42.4914 32.189L42.2371 32.1653C41.8059 32.1262 41.4027 31.9288 41.1023 31.609C40.5243 31.0164 40.5243 30.0573 40.5243 30.0482C40.5172 30.0975 39.891 30.9965 40.6167 31.981C40.9227 32.3969 41.3674 32.654 41.9401 32.7543C42.0752 33.4746 42.5982 34.4939 43.8326 34.6507V37.4772H40.3623C38.7615 36.5636 39.4393 34.9553 39.4712 34.886L39.6064 34.5796L39.3004 34.461C37.5663 33.801 38.0448 32.0249 38.0679 31.9483L38.139 31.6893L37.9006 31.5763C36.4706 30.8943 36.6645 29.0597 36.684 28.9832C36.2429 29.3497 36.0847 30.0956 36.3871 30.8304C36.2234 31.0237 36.0028 31.2553 35.7627 31.5106C35.3448 31.4171 34.9687 31.1851 34.6923 30.8506C34.4158 30.5161 34.2544 30.0976 34.233 29.6597L34.2313 29.4446L34.0356 29.368C33.4576 29.1492 33.0609 28.8173 32.8634 28.3742C32.6446 27.8836 32.7212 27.3712 32.7816 27.1214C33.1141 27.192 33.4524 27.2287 33.7919 27.2307H33.815C33.9875 27.2307 34.1566 27.2199 34.3237 27.2034C35.2486 27.1086 36.2803 26.702 37.3581 25.6042H44.3911ZM40.0547 50.7963L40.4425 48.7229L40.5046 48.34C40.744 48.4361 40.9983 48.4873 41.2553 48.4913C41.8458 48.4913 42.1909 48.1704 42.4203 47.8987L42.7156 47.543L42.4738 47.1529C42.4524 47.1146 41.9134 46.241 41.5008 45.643C41.4188 45.5248 41.3399 45.4045 41.2641 45.2819C40.7928 44.5597 40.2041 43.6534 39.023 43.6534L38.9181 43.6572C38.748 43.6665 38.5802 43.7015 38.42 43.761C38.0606 43.5849 37.6677 43.4927 37.2693 43.4912C36.8685 43.5011 36.4723 43.58 36.0971 43.7246C36.0188 43.7483 35.9476 43.7739 35.8926 43.7847L33.687 43.5623C33.6584 43.555 33.5696 43.5003 33.4593 43.369V43.3563L33.936 43.1612C33.8026 41.5273 32.2748 40.5224 31.4244 40.1814C31.3868 40.0068 31.3003 39.8471 31.1755 39.722L30.7023 39.2606L30.2861 39.773L30.0815 40.0356L26.9902 38.7317L29.0001 41.323L28.2086 42.5576C27.9169 42.873 28.2389 43.1922 28.2389 43.1922L29.0571 43.772L29.9073 43.4456C29.9356 43.4456 29.9606 43.4529 29.9908 43.4566C29.9499 43.5897 29.8966 44.1094 29.8609 44.2534L28.3864 43.9562L26.8391 44.8552C26.0403 45.457 25.9318 46.449 26.229 47.1292L26.3996 47.5157L26.6433 48.061L27.1858 47.8312C27.1948 47.8276 27.2019 47.8257 27.2072 47.8203C27.0116 48.4603 27.0916 49.0676 27.4384 49.4669L27.7675 49.8917L28.2051 50.4607L28.6853 49.93C28.8276 49.7842 29.2865 49.2572 29.4269 48.805L29.5302 48.4603L29.2972 48.1959L29.258 48.1467L29.5213 47.6999L31.4458 48.1667L31.8798 48.2689L32.1111 47.8767L32.2355 47.6653C32.2586 47.6197 32.2641 47.6124 32.3529 47.6124C32.4223 47.6124 32.4899 47.6197 32.5629 47.6379C33.2192 47.7707 33.886 47.8409 34.555 47.8476C35.1295 47.8476 35.4763 47.8257 35.8855 47.6853C35.8855 47.6853 36.9189 48.8889 36.9544 48.9363L36.3212 50.9422L36.2928 51.0624C35.0958 51.1627 34.5123 51.4327 33.8062 52.1566C32.7816 51.1136 32.0578 51.0023 29.306 51.0023C26.0101 51.0023 23.7761 49.0202 23.7761 45.849V38.1027H43.8326L43.8362 45.849C43.8362 48.4184 42.367 50.2109 40.0547 50.7963ZM27.7016 46.4162L27.8066 46.6842C27.7354 46.9176 26.9528 47.2494 26.9528 47.2494L26.7856 46.8685C26.6788 46.6073 26.6607 46.3168 26.7338 46.0438C26.807 45.7707 26.9674 45.5306 27.1894 45.3622L28.4576 44.5689L29.8041 44.8607C29.7774 45.3002 30.0336 45.6284 30.0336 45.6284L28.6248 45.3512L27.7799 45.9493C27.6376 46.0514 27.6269 46.241 27.7016 46.4162ZM39.8412 48.6045L39.4089 50.922C39.1315 50.9622 38.8398 50.984 38.5409 50.995L38.9963 48.7703C39.1315 48.1066 37.4026 47.9004 36.5472 46.6003C36.1291 47.0817 35.3447 47.2257 34.555 47.2257C33.8328 47.2257 33.1142 47.1073 32.675 47.0179C32.5691 46.9991 32.4621 46.9887 32.3547 46.9869C32.1004 46.9869 31.871 47.0672 31.7109 47.3424L31.5864 47.5613L29.2278 46.9906L28.6408 47.988C28.5589 48.1503 28.552 48.2853 28.6853 48.4366L28.8454 48.6153C28.7352 48.9673 28.2441 49.5016 28.2441 49.5016L27.8938 49.0512C27.6162 48.7339 27.6626 48.1503 27.9507 47.6106L28.8863 45.9876L30.8838 46.2849L30.5742 45.5573C30.1562 44.5963 30.7931 43.3744 30.8607 42.6706C30.8374 42.884 30.6473 42.9314 30.4267 42.9314C30.2238 42.9314 29.9998 42.893 29.8504 42.893C29.7917 42.893 29.74 42.8986 29.7134 42.9186L29.1726 43.256L28.7457 42.8694C28.6943 42.7964 28.6781 42.6196 28.8028 42.4883L29.7917 41.3504L28.6248 39.9499L30.2576 40.7942L30.7575 40.1724C30.8945 40.311 30.8339 40.6702 30.8339 40.6702C31.3444 40.6847 32.7763 41.4963 32.851 43.3927C32.8563 43.451 32.8563 43.5149 32.8563 43.5787L32.8937 43.6407C32.995 43.7847 33.2743 44.1513 33.6282 44.1842L35.8872 44.4139H35.8962C36.1451 44.4139 36.6378 44.1149 37.2693 44.1149C37.6161 44.1149 37.9984 44.206 38.4076 44.4704C38.4076 44.4704 38.6139 44.3027 38.9466 44.2844C38.9714 44.2807 38.9999 44.2807 39.023 44.2807C40.0368 44.2807 40.4584 45.2217 41.0026 46.004C41.4118 46.5984 41.9579 47.481 41.9579 47.481C41.7569 47.7273 41.5684 47.864 41.2534 47.864C41.1556 47.8645 41.0578 47.8546 40.9617 47.8349C39.8767 47.6287 39.7185 45.3366 39.0996 45.1543C39.067 45.1455 39.0335 45.1411 38.9999 45.1414C38.8007 45.1414 38.7136 45.3239 38.7136 45.3239C38.9982 46.1062 38.8309 46.4216 39.1369 47.0252C39.3646 47.472 39.7682 47.8384 39.9355 48.0136C39.9355 48.0136 39.891 48.3527 39.8412 48.6062V48.6045ZM37.7619 51.0114C37.4595 51.0114 37.1785 51.015 36.926 51.026L37.5877 48.9089C37.6908 48.6153 37.1678 48.2379 36.9527 47.906C37.2782 48.1174 38.1231 48.5807 38.5304 48.763C38.2663 49.5096 38.0102 50.2592 37.7619 51.0114ZM27.9222 31.9337L28.0164 28.2537L28.8204 27.3803L29.3256 28.4672L28.3295 31.9993L27.9205 31.9354L27.9222 31.9337ZM28.5003 33.0752C28.6223 33.3149 28.8071 33.515 29.0339 33.6533C29.0277 34.003 28.995 34.3517 28.9361 34.6963C28.9182 34.7766 28.9006 34.8513 28.8775 34.926C28.8668 34.9734 28.8525 35.0117 28.8437 35.0427C28.5963 35.0427 28.1144 35.0117 27.7213 34.864C27.2838 34.7 26.6309 33.8757 26.7822 32.9676C26.9707 32.849 27.4082 32.5956 27.8191 32.5956C28.1339 32.5956 28.3491 32.7487 28.5003 33.0752ZM37.8135 34.0636C37.1963 34.5322 35.6026 35.7266 35.0246 36.1424L29.4607 35.1139L29.4999 34.9626C29.5711 34.6653 29.6475 34.2604 29.6511 33.7846L34.3273 33.8612L34.4162 33.77C34.4874 33.697 35.969 32.2254 36.7233 31.3812C36.9029 31.6127 37.1269 31.8316 37.4221 32.0249C37.3226 32.5902 37.3636 33.3889 37.8135 34.0636ZM30.2487 25.6042C30.9193 26.2862 31.5721 26.711 32.1946 26.9444C32.1146 27.2727 32.0078 27.9547 32.3067 28.6313C32.5522 29.1783 32.9969 29.5977 33.6389 29.8786C33.7101 30.5533 34.1245 31.569 35.2754 32.0176C34.7703 32.539 34.2792 33.0314 34.0836 33.2285L29.4164 33.1536C29.2622 33.0781 29.1343 32.9558 29.05 32.8034C29.041 32.7797 29.025 32.767 29.0143 32.7414L29.7774 32.8692L29.8254 32.871C29.8972 32.8715 29.9668 32.8456 30.0215 32.7982C30.0764 32.7507 30.1128 32.6847 30.1243 32.612C30.1371 32.5303 30.1179 32.4468 30.071 32.3795C30.024 32.3122 29.953 32.2667 29.8735 32.2527L28.9361 32.0996L29.9749 28.4143L28.9912 26.2862L27.4135 28.0003L27.3175 31.8316L26.2573 31.6583C26.0938 31.6254 25.9373 31.7494 25.907 31.919C25.8951 32.0012 25.9151 32.0847 25.9627 32.1518C26.0103 32.2191 26.0816 32.2645 26.1614 32.2783L26.6059 32.3476C26.446 32.4406 26.341 32.5154 26.3285 32.5244L26.2397 32.5902L26.2147 32.7032C25.9568 33.779 26.5402 34.8003 27.1698 35.2562L27.1467 35.3929C27.1218 35.557 27.1574 35.7212 27.2534 35.8543C27.3081 35.9351 27.3812 36.0011 27.4665 36.0462C27.5519 36.0913 27.6466 36.1144 27.7426 36.1132C27.8774 36.1121 28.0079 36.0643 28.1128 35.9775C28.2178 35.8907 28.2909 35.7703 28.3207 35.6354C28.5554 35.6627 28.7707 35.67 28.9165 35.67H29.0429L35.1633 36.8062L35.2683 36.735C35.7556 36.3849 37.6161 34.9936 38.2244 34.5322C38.3934 34.6799 38.5802 34.8149 38.806 34.926C38.6087 35.6063 38.5961 36.6512 39.3751 37.479H23.7761V28.2337C23.7761 27.3366 23.5217 26.4357 23.2193 25.6042H30.2487ZM29.4057 11.6542L33.4771 13.0711V19.6394L30.48 18.0164L29.4057 11.6524V11.6542ZM39.3378 10.861C39.3378 9.25809 36.7107 7.81567 33.8114 7.81567H33.7938C30.8945 7.81567 28.2691 9.25809 28.2691 10.861L28.326 11.2548L29.484 18.0803L28.3207 18.7733L25.3129 20.5786H25.3236C25.3236 20.5786 24.6477 20.936 24.3329 21.1547C23.1874 21.9717 22.9438 23.1643 23.6089 23.6567C23.7725 22.6847 24.5213 21.669 25.9212 21.669C26.9314 21.669 27.6999 22.2052 28.3224 23.0057C28.4825 23.208 28.6336 23.425 28.7742 23.6567C28.9486 23.9503 29.1247 24.2092 29.2972 24.4572H21.5457C22.1148 25.6335 22.6573 26.8789 22.6573 28.2319V45.8509C22.6573 50.1143 25.85 52.1493 29.3043 52.1493C31.9741 52.1493 32.3333 52.0253 33.8062 53.5316C35.2718 52.0253 35.6328 52.1493 38.3044 52.1493C41.7604 52.1493 44.9479 50.1143 44.9479 45.8509V28.2319C44.9479 26.8789 45.4904 25.6335 46.0631 24.4572H38.308C38.4823 24.2092 38.6566 23.9503 38.8309 23.6567C38.9732 23.425 39.1244 23.208 39.2809 23.0057C39.9071 22.2014 40.6754 21.669 41.6857 21.669C43.0855 21.669 43.8326 22.6847 43.998 23.6567C44.6633 23.1643 44.4232 21.9717 43.2687 21.1547C42.9628 20.936 42.2834 20.5786 42.2834 20.5786H42.2958L39.2809 18.7733L38.1248 18.0803L39.2809 11.2548L39.3378 10.861Z" fill="#1A1919"/>
<path d="M89.1483 39.7164H94.4843V26.9883H101.813V22.3564H81.8201V26.9883H89.1483V39.7164ZM109.283 39.7164V22.3564H103.947V39.7164H109.283ZM117.956 22.3564H113.189V39.7164H118.098V30.1247L127.241 39.7164H131.794V22.3564H126.885V31.8753L117.956 22.3564ZM140.858 33.1517H142.281L148.436 39.7164H155.301L146.728 30.6717L154.981 22.3564H148.507L142.281 28.8847H140.858V22.3564H135.7V39.7164H140.858V33.1517Z" fill="white"/>
<path d="M165.915 21.8823C158.979 21.8823 154.817 25.8942 154.817 31.073C154.817 36.2518 158.979 40.2636 165.915 40.2636C172.817 40.2636 176.979 36.2518 176.979 31.073C176.979 25.8942 172.817 21.8823 165.915 21.8823ZM165.915 36.033C162.465 36.033 160.259 33.9178 160.259 31.073C160.259 28.2283 162.465 26.1495 165.915 26.1495C169.331 26.1495 171.573 28.2283 171.573 31.073C171.573 33.9178 169.331 36.033 165.915 36.033ZM196.398 26.7695V22.3565H179.428V39.7165H184.587V33.553H195.97V29.9059H184.587V26.7695H196.398ZM215.47 26.7695V22.3565H198.501V39.7165H203.659V33.553H215.044V29.9059H203.659V26.7695H215.47Z" fill="white"/>
</svg>
