<svg width="265" height="48" viewBox="0 0 265 48" fill="none" xmlns="http://www.w3.org/2000/svg">
<path d="M0 23.25C0 12.2895 0 6.81 3.28716 3.405C6.57432 0 11.8642 0 22.4454 0H23.8934C34.4746 0 39.7645 0 43.0516 3.405C46.3388 6.81 46.3388 12.2895 46.3388 23.25V24.75C46.3388 35.7105 46.3388 41.19 43.0516 44.595C39.7645 48 34.4746 48 23.8934 48H22.4454C11.8642 48 6.57432 48 3.28716 44.595C0 41.19 0 35.7105 0 24.75V23.25Z" fill="#2787F5"/>
<path fill-rule="evenodd" clip-rule="evenodd" d="M38.2264 16.32C38.4465 15.5595 38.2264 15 37.1765 15H33.7069C32.8236 15 32.4181 15.483 32.198 16.0155C32.198 16.0155 30.4328 20.469 27.9334 23.361C27.1254 24.198 26.7576 24.465 26.3173 24.465C26.0958 24.465 25.7772 24.198 25.7772 23.4375V16.32C25.7772 15.4065 25.5209 15 24.7853 15H19.3332C18.7829 15 18.4499 15.4245 18.4499 15.825C18.4499 16.692 19.701 16.89 19.8299 19.326V24.6165C19.8299 25.776 19.6272 25.986 19.1855 25.986C18.0097 25.986 15.1482 21.5145 13.4511 16.3965C13.1195 15.402 12.7864 15 11.9002 15H8.42911C7.43862 15 7.24023 15.483 7.24023 16.0155C7.24023 16.9665 8.41608 21.6855 12.7169 27.927C15.5841 32.19 19.6243 34.5 23.2981 34.5C25.5035 34.5 25.7772 33.987 25.7772 33.1035V29.88C25.7772 28.854 25.9857 28.65 26.6837 28.65C27.1992 28.65 28.0811 28.9155 30.1388 30.9705C32.492 33.408 32.8801 34.5 34.2036 34.5H37.6732C38.6652 34.5 39.1604 33.987 38.8752 32.9745C38.5624 31.965 37.4387 30.4995 35.9486 28.764C35.1391 27.774 33.927 26.709 33.5592 26.1765C33.0452 25.4925 33.1914 25.1865 33.5592 24.579C33.5592 24.579 37.7862 18.414 38.2279 16.32H38.2264Z" fill="white"/>
<path d="M79.1323 23.5891C80.8888 22.7401 82.0198 21.3241 82.0198 19.1431C82.0198 15.8281 79.0947 13.4836 74.8807 13.4836H65.1641V34.5001H75.3094C79.6782 34.5001 82.7221 32.0356 82.7221 28.6801C82.7329 27.544 82.3894 26.4347 81.7426 25.5172C81.0958 24.5996 80.1803 23.9229 79.1323 23.5876V23.5891ZM69.6531 17.3236H74.8807C76.4418 17.3236 77.5336 18.2941 77.5336 19.6276C77.5336 20.9626 76.4418 21.8911 74.8807 21.8911H69.6531V17.3236ZM75.3108 30.6616H69.6531V25.5286H75.3108C77.0659 25.5286 78.2359 26.5786 78.2359 28.1146C78.2359 29.6506 77.0659 30.6616 75.3108 30.6616ZM99.4099 34.5001H105.301L95.975 23.5861L104.52 13.4821H99.1767L92.3852 21.6466H91.2933V13.4851H86.8072V34.5001H91.2933V26.1346H92.3867L99.4099 34.5001ZM116.754 34.9036C123.114 34.9036 127.601 30.3766 127.601 23.9911C127.601 17.6056 123.114 13.0786 116.755 13.0786C110.395 13.0786 105.907 17.6056 105.907 23.9911C105.907 30.3766 110.395 34.9036 116.754 34.9036ZM116.754 30.6586C113.087 30.6586 110.589 27.9511 110.589 23.9911C110.589 20.0311 113.087 17.3221 116.754 17.3221C120.422 17.3221 122.92 20.0296 122.92 23.9911C122.92 27.9511 120.422 30.6601 116.754 30.6601V30.6586ZM145.08 13.4836V21.7681H135.989V13.4836H131.502V34.5001H135.989V26.0131H145.08V34.5001H149.567V13.4851L145.08 13.4836ZM159.704 34.5001H164.19V17.7301H171.213V13.4851H152.681V17.7301H159.704V34.5001ZM181.841 13.0801C177.899 13.0801 174.427 15.1816 173.411 18.8191L177.549 19.5466C178.173 18.2536 179.577 17.0416 181.606 17.0416C184.064 17.0416 185.507 18.8596 185.703 21.6076H181.333C175.364 21.6076 172.398 24.3151 172.398 28.1956C172.398 32.1166 175.324 34.9051 179.46 34.9051C182.776 34.9051 185.001 32.9251 185.977 31.1866L186.912 34.5016H190.23V22.6996C190.23 16.5961 187.029 13.0801 181.841 13.0801ZM180.513 30.9841C178.329 30.9841 176.925 29.8126 176.925 27.9931C176.925 26.3776 178.056 25.2451 181.489 25.2451H185.742C185.742 28.6801 183.635 30.9841 180.513 30.9841ZM207.699 34.5016H213.592L204.266 23.5876L212.811 13.4836H207.465L200.676 21.6481H199.584V13.4851H195.097V34.5001H199.584V26.1346H200.676L207.699 34.5016ZM221.203 34.5016H225.689V17.7271H232.712V13.4821H214.179V17.7271H221.203V34.5016ZM254.966 23.7496C254.966 17.6881 250.596 13.0801 244.431 13.0801C238.267 13.0801 233.897 17.6476 233.897 23.9926C233.897 30.3376 238.267 34.9051 244.431 34.9051C248.645 34.9051 252.625 32.8441 254.147 28.8421L249.933 28.1146C248.958 29.6101 247.084 30.6616 244.705 30.6616C241.272 30.6616 239.008 28.4791 238.578 25.2466H254.888C254.927 24.8011 254.966 24.3166 254.966 23.7496ZM244.431 17.1211C247.241 17.1211 249.348 18.9811 250.089 21.6076H238.852C239.593 18.9001 241.7 17.1226 244.431 17.1226V17.1211Z" fill="white"/>
</svg>
