<svg width="52" height="52" viewBox="0 0 52 52" fill="none" xmlns="http://www.w3.org/2000/svg">
<path fill-rule="evenodd" clip-rule="evenodd" d="M40.1689 7.384C40.4543 7.16213 40.8053 7.04169 41.1667 7.04169H45.5C46.3974 7.04169 47.125 7.76923 47.125 8.66669V39C47.125 39.8975 46.3974 40.625 45.5 40.625H41.1667C40.8053 40.625 40.4543 40.5046 40.1689 40.2827L30.8592 33.0417H13C8.51268 33.0417 4.875 29.4041 4.875 24.9167V22.75C4.875 18.2627 8.51268 14.625 13 14.625H15.1667C16.0641 14.625 16.7917 15.3526 16.7917 16.25C16.7917 17.1475 16.0641 17.875 15.1667 17.875H13C10.3076 17.875 8.125 20.0576 8.125 22.75V24.9167C8.125 27.609 10.3076 29.7917 13 29.7917H31.4167C31.7781 29.7917 32.1291 29.9122 32.4144 30.134L41.7242 37.375H43.875V10.2917H41.7242L32.4144 17.5327C32.1291 17.7546 31.7781 17.875 31.4167 17.875H23.8333C22.9359 17.875 22.2083 17.1475 22.2083 16.25C22.2083 15.3526 22.9359 14.625 23.8333 14.625H30.8592L40.1689 7.384Z" fill="#E1E1FF"/>
<path fill-rule="evenodd" clip-rule="evenodd" d="M11.7086 30.4304C12.016 30.0279 12.4935 29.7917 13 29.7917H21.6667C22.3994 29.7917 23.0416 30.2822 23.2345 30.9892L25.365 38.8007C26.2106 41.9018 23.876 44.9584 20.6616 44.9584H18.7324C16.534 44.9584 14.6076 43.487 14.0291 41.366L11.4323 31.8442C11.299 31.3556 11.4012 30.8328 11.7086 30.4304ZM15.1275 33.0417L17.1646 40.5108C17.3574 41.2178 17.9996 41.7084 18.7324 41.7084H20.6616C21.7332 41.7084 22.5112 40.6896 22.2294 39.6559L20.4255 33.0417H15.1275Z" fill="#E1E1FF"/>
</svg>
