<svg width="52" height="52" viewBox="0 0 52 52" fill="none" xmlns="http://www.w3.org/2000/svg">
<path d="M39.78 3.93641C38.7535 3.93378 37.7679 4.33869 37.0396 5.06221L36.075 6.03201C36.0357 6.0653 35.9984 6.1009 35.9632 6.13861L35.4796 6.62221C35.391 6.70724 35.3148 6.80441 35.2534 6.91081L33.098 9.26381C33.0846 9.27996 33.0716 9.29644 33.059 9.31321L26.0052 16.367L14.4352 4.79701C13.947 4.32253 13.2908 4.06076 12.61 4.06901C11.9275 4.05938 11.2691 4.32125 10.7796 4.79701L4.53963 11.0396C4.06797 11.5323 3.80469 12.188 3.80469 12.87C3.80469 13.552 4.06797 14.2078 4.53963 14.7004L4.54483 14.7056L16.224 26.143L9.04543 33.3216C8.83223 33.3748 8.63598 33.4811 8.47502 33.6307C8.31407 33.7803 8.19365 33.9683 8.12503 34.177L4.22503 46.137C4.15098 46.365 4.14141 46.6091 4.19739 46.8421C4.25337 47.0752 4.3727 47.2883 4.54221 47.4578C4.71172 47.6273 4.9248 47.7467 5.1579 47.8027C5.391 47.8586 5.63503 47.8491 5.86303 47.775L17.823 43.875C18.0913 43.7857 18.3232 43.6114 18.4834 43.3784L25.974 35.8878L37.2944 47.4552L37.2996 47.4604C37.7923 47.9321 38.448 48.1954 39.13 48.1954C39.8121 48.1954 40.4678 47.9321 40.9604 47.4604L47.2004 41.2204C47.6725 40.7285 47.9361 40.0731 47.9361 39.3913C47.9361 38.7095 47.6725 38.0541 47.2004 37.5622L35.75 26.1118L43.1886 18.6732C43.3187 18.5433 43.4197 18.3874 43.485 18.2156L45.0892 16.7414C45.091 16.7397 45.0927 16.738 45.0944 16.7362C45.1993 16.6778 45.2955 16.6052 45.3804 16.5204L45.8614 16.0368C45.9048 15.9988 45.9457 15.958 45.9836 15.9146L46.9378 14.9604C47.6587 14.2305 48.0629 13.2459 48.0629 12.22C48.0629 11.1941 47.6587 10.2096 46.9378 9.47961L42.5178 5.06221C42.1583 4.704 41.7316 4.42018 41.2623 4.22701C40.793 4.03383 40.2902 3.93508 39.7826 3.93641H39.78ZM39.7774 6.46361C40.0816 6.46361 40.391 6.61181 40.6796 6.90041L45.0996 11.3204C45.6794 11.9002 45.6794 12.5424 45.0996 13.1222L44.1194 14.1076C44.1142 14.1128 44.109 14.118 44.1038 14.1232L44.0414 14.1778L42.2084 15.8548L36.1452 9.79161L37.8768 7.89621L38.8778 6.90041C39.169 6.61181 39.4706 6.46361 39.7774 6.46361ZM12.6074 6.64561L24.167 18.2052L18.0674 24.3048L16.1642 22.4328L20.6102 17.9868L18.0362 15.4128L13.5616 19.89L10.8836 17.264L12.688 15.4622L10.114 12.8934L8.28623 14.7212L6.39083 12.8674L12.61 6.64821L12.6074 6.64561ZM34.0652 11.9834L35.6902 13.6084L13.0104 36.2882L11.3854 34.6632L34.0652 11.9834ZM38.2642 16.185L40.1336 18.0518L17.4538 40.7316L15.5844 38.8622L38.2642 16.185ZM33.9118 27.95L45.3518 39.39L39.1326 45.6118L37.492 43.94L41.8782 39.5538L39.3042 36.9798L34.9466 41.34L32.1438 38.4774L33.9586 36.6652L31.3846 34.0912L29.601 35.8722L27.8122 34.0496L33.9118 27.95ZM9.93983 36.998L15.002 42.0628L8.34603 44.2312L7.76883 43.6514L9.93723 36.998H9.93983Z" fill="#E1E1FF"/>
</svg>
