<svg width="52" height="52" viewBox="0 0 52 52" fill="none" xmlns="http://www.w3.org/2000/svg">
<path d="M45.4999 4.33331H6.49992C5.92528 4.33331 5.37418 4.56159 4.96785 4.96791C4.56153 5.37424 4.33325 5.92534 4.33325 6.49998V36.8333C4.33325 37.408 4.56153 37.9591 4.96785 38.3654C5.37418 38.7717 5.92528 39 6.49992 39H17.3333V43.3333H15.1666C14.5919 43.3333 14.0409 43.5616 13.6345 43.9679C13.2282 44.3742 12.9999 44.9253 12.9999 45.5C12.9999 46.0746 13.2282 46.6257 13.6345 47.032C14.0409 47.4384 14.5919 47.6666 15.1666 47.6666H36.8333C37.4079 47.6666 37.959 47.4384 38.3653 47.032C38.7716 46.6257 38.9999 46.0746 38.9999 45.5C38.9999 44.9253 38.7716 44.3742 38.3653 43.9679C37.959 43.5616 37.4079 43.3333 36.8333 43.3333H34.6666V39H45.4999C46.0746 39 46.6257 38.7717 47.032 38.3654C47.4383 37.9591 47.6666 37.408 47.6666 36.8333V6.49998C47.6666 5.92534 47.4383 5.37424 47.032 4.96791C46.6257 4.56159 46.0746 4.33331 45.4999 4.33331ZM30.3333 43.3333H21.6666V39H30.3333V43.3333ZM43.3333 34.6666H8.66659V8.66665H43.3333V34.6666Z" fill="#E1E1FF"/>
<path d="M15.1667 30.3333C15.7413 30.3333 16.2924 30.105 16.6987 29.6987C17.1051 29.2924 17.3333 28.7413 17.3333 28.1666V21.6666C17.3333 21.092 17.1051 20.5409 16.6987 20.1346C16.2924 19.7283 15.7413 19.5 15.1667 19.5C14.592 19.5 14.0409 19.7283 13.6346 20.1346C13.2283 20.5409 13 21.092 13 21.6666V28.1666C13 28.7413 13.2283 29.2924 13.6346 29.6987C14.0409 30.105 14.592 30.3333 15.1667 30.3333ZM26 30.3333C26.5746 30.3333 27.1257 30.105 27.5321 29.6987C27.9384 29.2924 28.1667 28.7413 28.1667 28.1666V17.3333C28.1667 16.7587 27.9384 16.2076 27.5321 15.8012C27.1257 15.3949 26.5746 15.1666 26 15.1666C25.4254 15.1666 24.8743 15.3949 24.4679 15.8012C24.0616 16.2076 23.8333 16.7587 23.8333 17.3333V28.1666C23.8333 28.7413 24.0616 29.2924 24.4679 29.6987C24.8743 30.105 25.4254 30.3333 26 30.3333ZM36.8333 30.3333C37.408 30.3333 37.9591 30.105 38.3654 29.6987C38.7717 29.2924 39 28.7413 39 28.1666V13C39 12.4253 38.7717 11.8742 38.3654 11.4679C37.9591 11.0616 37.408 10.8333 36.8333 10.8333C36.2587 10.8333 35.7076 11.0616 35.3013 11.4679C34.8949 11.8742 34.6667 12.4253 34.6667 13V28.1666C34.6667 28.7413 34.8949 29.2924 35.3013 29.6987C35.7076 30.105 36.2587 30.3333 36.8333 30.3333Z" fill="#E1E1FF"/>
</svg>
