<svg width="52" height="52" viewBox="0 0 52 52" fill="none" xmlns="http://www.w3.org/2000/svg">
<g clip-path="url(#clip0_175_545)">
<path d="M43.3077 -0.00187171C42.8558 0.00532977 42.4245 0.18875 42.1059 0.509288L38.639 3.97569C38.477 4.13674 38.3485 4.3282 38.2607 4.53908C38.173 4.74996 38.1278 4.97611 38.1278 5.2045V11.4163L37.1798 12.3641C33.1106 8.88146 27.9232 6.93094 22.5302 6.93094C10.1052 6.93094 -0.00439453 17.0393 -0.00439453 29.4626C-0.00439453 41.8859 10.1052 51.9941 22.5302 51.9942C34.9552 51.9942 45.0615 41.8859 45.0615 29.4626C45.0615 25.3273 43.9259 21.2747 41.7741 17.7431C41.6617 17.5369 41.5087 17.3556 41.3241 17.2103C41.1396 17.065 40.9275 16.9587 40.7006 16.8979C40.4737 16.837 40.2369 16.8229 40.0044 16.8564C39.7719 16.8899 39.5486 16.9703 39.3482 17.0926C39.1477 17.215 38.9742 17.3768 38.8382 17.5683C38.7021 17.7598 38.6065 17.9769 38.5569 18.2065C38.5074 18.436 38.505 18.6733 38.55 18.9038C38.5949 19.1343 38.6863 19.3533 38.8184 19.5474C40.6394 22.5359 41.5946 25.9632 41.5946 29.4626C41.5946 40.0126 33.0816 48.5278 22.5302 48.5278C11.9788 48.5278 3.46247 40.0125 3.46247 29.4626C3.46247 18.9126 11.9788 10.4007 22.5302 10.4007C27.0043 10.4007 31.3103 11.9827 34.7218 14.8217L32.2605 17.2828C29.5097 15.0859 26.085 13.8671 22.5302 13.8671C13.9347 13.8671 6.92937 20.8682 6.92934 29.4626C6.92934 38.057 13.9347 45.058 22.5302 45.058C31.1257 45.058 38.1278 38.057 38.1278 29.4626C38.1278 27.2522 37.6652 25.0661 36.7566 23.0511C36.6653 22.8391 36.5327 22.6474 36.3665 22.4873C36.2003 22.3272 36.0037 22.2019 35.7885 22.1186C35.5732 22.0354 35.3435 21.996 35.1128 22.0026C34.882 22.0093 34.655 22.0619 34.4448 22.1574C34.2347 22.2528 34.0457 22.3893 33.889 22.5587C33.7322 22.7281 33.6109 22.9271 33.532 23.144C33.4531 23.3608 33.4183 23.5913 33.4296 23.8218C33.4409 24.0523 33.4981 24.2782 33.5978 24.4864C34.3045 26.0537 34.6575 27.7434 34.6575 29.4626C34.6575 36.1836 29.2521 41.6051 22.5302 41.6051C15.8083 41.6051 10.3962 36.1836 10.3962 29.4626C10.3963 22.7416 15.8083 17.3335 22.5302 17.3335C25.1612 17.3335 27.6974 18.202 29.7822 19.7573L27.304 22.2352C25.8969 21.3076 24.241 20.7999 22.5302 20.7999C17.764 20.7999 13.8665 24.697 13.8665 29.4626C13.8665 34.2281 17.764 38.1387 22.5302 38.1387C27.2964 38.1387 31.1906 34.2281 31.1906 29.4626C31.2122 29.2228 31.1835 28.9813 31.1065 28.7532C31.0295 28.5251 30.9059 28.3156 30.7435 28.1379C30.581 27.9603 30.3834 27.8184 30.1631 27.7213C29.9428 27.6243 29.7047 27.5741 29.464 27.5741C29.2232 27.5741 28.9851 27.6243 28.7648 27.7213C28.5446 27.8184 28.3469 27.9603 28.1845 28.1379C28.022 28.3156 27.8984 28.5251 27.8214 28.7532C27.7444 28.9813 27.7158 29.2228 27.7373 29.4626C27.7373 32.3548 25.4228 34.6689 22.5302 34.6689C19.6377 34.6689 17.3333 32.3548 17.3333 29.4626C17.3333 26.5704 19.6377 24.2698 22.5302 24.2697C23.3076 24.2697 24.06 24.4583 24.7512 24.7843L21.3013 28.2338C21.1341 28.3936 21.0005 28.5852 20.9084 28.7973C20.8163 29.0095 20.7675 29.2379 20.7648 29.4691C20.7621 29.7004 20.8057 29.9299 20.8929 30.1441C20.9801 30.3583 21.1092 30.5529 21.2726 30.7166C21.4361 30.8802 21.6306 31.0096 21.8447 31.0971C22.0588 31.1846 22.2883 31.2284 22.5196 31.2261C22.7508 31.2237 22.9793 31.1752 23.1916 31.0834C23.4039 30.9916 23.5957 30.8583 23.7558 30.6914L28.3569 26.0909C28.6064 25.9429 28.8148 25.7345 28.9629 25.485L33.2592 21.1892C33.5088 21.0411 33.7172 20.8328 33.8653 20.5833L38.3478 16.1013C38.4303 16.0329 38.5062 15.957 38.5747 15.8745L40.5823 13.8671H46.8017C47.2584 13.8635 47.6951 13.6798 48.0171 13.356L51.4874 9.88618C51.8103 9.56141 51.9915 9.12208 51.9915 8.66414C51.9915 8.2062 51.8103 7.76687 51.4874 7.4421L48.2135 4.16526C48.107 4.01732 47.9779 3.88707 47.8309 3.77935L44.5638 0.509288C44.3995 0.34406 44.2036 0.213638 43.9878 0.125812C43.772 0.0379871 43.5407 -0.00544138 43.3077 -0.00187171ZM43.3348 4.18219L44.3505 5.19773L41.5946 7.95326V5.92216L43.3348 4.18219ZM46.8016 7.64859L47.8139 8.66075L46.0873 10.4007H44.0491L46.8016 7.64859Z" fill="#E1E1FF"/>
</g>
<defs>
<clipPath id="clip0_175_545">
<rect width="52" height="52" fill="white"/>
</clipPath>
</defs>
</svg>
