<svg width="52" height="52" viewBox="0 0 52 52" fill="none" xmlns="http://www.w3.org/2000/svg">
<path d="M48.3031 1.22693H3.69688C1.6575 1.22693 0 2.88443 0 4.9238V47.0844C0 49.1238 1.6575 50.7813 3.69688 50.7813H48.3031C50.3425 50.7813 52 49.1238 52 47.0844V4.9238C52 2.88443 50.3425 1.22693 48.3031 1.22693ZM49.6681 47.0763C49.6681 47.8319 49.0588 48.4413 48.3031 48.4413H3.69688C2.94125 48.4413 2.33187 47.8319 2.33187 47.0763V10.8307H49.6763V47.0763H49.6681ZM49.6681 8.4988H2.33187V4.9238C2.33187 4.16818 2.94125 3.5588 3.69688 3.5588H48.3031C49.0588 3.5588 49.6681 4.16818 49.6681 4.9238V8.4988Z" fill="#E1E1FF"/>
<path d="M5.41121 4.86682C4.76121 4.86682 4.24121 5.38682 4.24121 6.0287C4.24121 6.67057 4.76934 7.19057 5.41121 7.19057C5.71936 7.19057 6.01489 7.06816 6.23278 6.85027C6.45067 6.63237 6.57309 6.33684 6.57309 6.0287C6.57309 5.72055 6.45067 5.42502 6.23278 5.20713C6.01489 4.98923 5.71936 4.86682 5.41121 4.86682ZM9.52246 4.86682C8.87246 4.86682 8.35246 5.38682 8.35246 6.0287C8.35246 6.67057 8.88059 7.19057 9.52246 7.19057C9.83061 7.19057 10.1261 7.06816 10.344 6.85027C10.5619 6.63237 10.6843 6.33684 10.6843 6.0287C10.6843 5.72055 10.5619 5.42502 10.344 5.20713C10.1261 4.98923 9.83061 4.86682 9.52246 4.86682ZM13.6337 4.86682C12.9837 4.86682 12.4637 5.38682 12.4637 6.0287C12.4637 6.67057 12.9918 7.19057 13.6337 7.19057C14.2756 7.19057 14.7956 6.67057 14.7956 6.0287C14.8037 5.38682 14.2837 4.86682 13.6337 4.86682ZM22.7825 33.4749H31.4437C32.0856 33.4749 32.6056 32.9549 32.6056 32.3131V23.6437C32.6056 23.0018 32.0856 22.4818 31.4437 22.4818H22.7825C22.1406 22.4818 21.6206 23.0018 21.6206 23.6437V32.3049C21.6206 32.9468 22.1406 33.4749 22.7825 33.4749ZM23.9443 24.8137H30.2737V31.1431H23.9443V24.8137ZM36.1481 33.4749H44.8093C45.4512 33.4749 45.9712 32.9549 45.9712 32.3131V23.6437C45.9712 23.0018 45.4512 22.4818 44.8093 22.4818H36.1481C35.5062 22.4818 34.9862 23.0018 34.9862 23.6437V32.3049C34.9862 32.9468 35.5062 33.4749 36.1481 33.4749ZM37.3181 24.8137H43.6475V31.1431H37.3181V24.8137ZM31.6631 34.8968H22.5631C22.2549 34.8968 21.9594 35.0192 21.7415 35.2371C21.5236 35.455 21.4012 35.7505 21.4012 36.0587C21.4012 36.3668 21.5236 36.6624 21.7415 36.8803C21.9594 37.0982 22.2549 37.2206 22.5631 37.2206H31.655C32.2968 37.2206 32.8168 36.7006 32.8168 36.0587C32.8168 35.4168 32.305 34.8968 31.6631 34.8968ZM31.6631 39.1706H22.5631C22.2549 39.1706 21.9594 39.293 21.7415 39.5109C21.5236 39.7288 21.4012 40.0243 21.4012 40.3324C21.4012 40.6406 21.5236 40.9361 21.7415 41.154C21.9594 41.3719 22.2549 41.4943 22.5631 41.4943H31.655C32.2968 41.4943 32.8168 40.9743 32.8168 40.3324C32.8168 39.6906 32.305 39.1706 31.6631 39.1706ZM31.6631 43.4443H22.5631C22.2549 43.4443 21.9594 43.5667 21.7415 43.7846C21.5236 44.0025 21.4012 44.298 21.4012 44.6062C21.4012 44.9143 21.5236 45.2099 21.7415 45.4278C21.9594 45.6457 22.2549 45.7681 22.5631 45.7681H31.655C32.2968 45.7681 32.8168 45.2481 32.8168 44.6062C32.8168 43.9643 32.305 43.4443 31.6631 43.4443ZM45.0287 34.8968H35.9287C35.6206 34.8968 35.325 35.0192 35.1071 35.2371C34.8892 35.455 34.7668 35.7505 34.7668 36.0587C34.7668 36.3668 34.8892 36.6624 35.1071 36.8803C35.325 37.0982 35.6206 37.2206 35.9287 37.2206H45.0206C45.6625 37.2206 46.1825 36.7006 46.1825 36.0587C46.1825 35.4168 45.6706 34.8968 45.0287 34.8968ZM45.0287 39.1706H35.9287C35.6206 39.1706 35.325 39.293 35.1071 39.5109C34.8892 39.7288 34.7668 40.0243 34.7668 40.3324C34.7668 40.6406 34.8892 40.9361 35.1071 41.154C35.325 41.3719 35.6206 41.4943 35.9287 41.4943H45.0206C45.6625 41.4943 46.1825 40.9743 46.1825 40.3324C46.1825 39.6906 45.6706 39.1706 45.0287 39.1706ZM45.0287 43.4443H35.9287C35.6206 43.4443 35.325 43.5667 35.1071 43.7846C34.8892 44.0025 34.7668 44.298 34.7668 44.6062C34.7668 44.9143 34.8892 45.2099 35.1071 45.4278C35.325 45.6457 35.6206 45.7681 35.9287 45.7681H45.0206C45.6625 45.7681 46.1825 45.2481 46.1825 44.6062C46.1825 43.9643 45.6706 43.4443 45.0287 43.4443ZM12.1062 34.8237C8.88059 34.8237 6.25621 37.4481 6.25621 40.6737C6.25621 43.8993 8.88059 46.5237 12.1062 46.5237C15.3318 46.5237 17.9562 43.8993 17.9562 40.6737C17.9562 37.4481 15.3318 34.8237 12.1062 34.8237ZM12.1062 44.1918C10.1643 44.1918 8.58809 42.6156 8.58809 40.6737C8.58809 38.7318 10.1643 37.1556 12.1062 37.1556C13.04 37.1556 13.9357 37.526 14.5968 38.1855C15.2578 38.8451 15.6303 39.7399 15.6325 40.6737C15.6288 41.607 15.2559 42.501 14.5951 43.1602C13.9344 43.8194 13.0396 44.1903 12.1062 44.1918ZM5.02121 31.2731C5.02934 31.3137 5.03746 31.3462 5.04559 31.3787C5.05371 31.4112 5.06184 31.4518 5.07809 31.4843C5.09434 31.5168 5.11059 31.5574 5.12684 31.5899C5.14309 31.6224 5.15934 31.6549 5.18371 31.6874C5.20809 31.7199 5.23246 31.7524 5.25684 31.7768C5.28121 31.8012 5.29746 31.8337 5.32996 31.8581C5.36246 31.8906 5.39496 31.9231 5.43559 31.9474C5.45184 31.9637 5.46809 31.9799 5.49246 31.9962C5.49246 31.9962 5.50059 31.9962 5.50059 32.0043C5.60818 32.0778 5.72586 32.1353 5.84996 32.1749C5.94746 32.1993 6.05309 32.2237 6.15871 32.2237H18.2812C18.4094 32.2239 18.5363 32.1991 18.655 32.1506C18.7606 32.1181 18.8581 32.0693 18.9393 32.0043C18.9393 32.0043 18.9475 32.0043 18.9475 31.9962C18.9718 31.9799 18.9881 31.9637 19.0043 31.9474C19.0368 31.9149 19.0775 31.8906 19.11 31.8581C19.1341 31.833 19.1558 31.8058 19.175 31.7768C19.1993 31.7443 19.2237 31.7199 19.2481 31.6793C19.2643 31.6468 19.2806 31.6143 19.305 31.5818C19.3212 31.5493 19.3375 31.5168 19.3537 31.4762C19.37 31.4437 19.3781 31.4031 19.3862 31.3706C19.3943 31.3381 19.4106 31.2974 19.4187 31.2649C19.4268 31.2243 19.4268 31.1756 19.435 31.1349C19.435 31.1106 19.4431 31.0781 19.4431 31.0537V14.2187C19.4431 14.1943 19.435 14.1618 19.435 14.1374C19.4322 14.0567 19.4157 13.977 19.3862 13.9018C19.3781 13.8693 19.37 13.8287 19.3537 13.7962C19.3375 13.7637 19.3212 13.7312 19.305 13.6906C19.2891 13.6564 19.27 13.6237 19.2481 13.5931C19.2237 13.5606 19.1993 13.5281 19.175 13.5037C19.1506 13.4793 19.1343 13.4468 19.1018 13.4224C19.0705 13.3884 19.035 13.3584 18.9962 13.3331C18.979 13.3149 18.96 13.2985 18.9393 13.2843C18.9312 13.2843 18.9312 13.2762 18.9231 13.2762L18.8012 13.2031C18.7768 13.1868 18.7525 13.1706 18.72 13.1624C18.6875 13.1462 18.6468 13.1381 18.6062 13.1218C18.5737 13.1137 18.5331 13.0974 18.5006 13.0893C18.4681 13.0812 18.4356 13.0812 18.4031 13.0731C18.3603 13.0637 18.3168 13.0582 18.2731 13.0568H6.14246C6.10184 13.0568 6.05309 13.0649 6.01246 13.0731C5.97996 13.0812 5.94746 13.0812 5.91496 13.0893C5.88246 13.0974 5.84996 13.1137 5.81746 13.1218C5.77684 13.1381 5.73621 13.1462 5.70371 13.1624C5.67934 13.1706 5.65496 13.1868 5.63059 13.2031C5.58996 13.2274 5.54121 13.2518 5.50059 13.2762C5.49246 13.2762 5.49246 13.2843 5.48434 13.2843C5.45996 13.3006 5.44371 13.3168 5.42746 13.3331C5.39496 13.3656 5.35434 13.3899 5.32184 13.4224C5.29746 13.4468 5.27309 13.4793 5.24871 13.5037C5.22434 13.5362 5.19996 13.5606 5.17559 13.5931C5.15934 13.6256 5.14309 13.6581 5.11871 13.6906C5.10246 13.7231 5.08621 13.7556 5.06996 13.7962C5.05371 13.8287 5.04559 13.8693 5.03746 13.9018C5.02934 13.9343 5.01309 13.9749 5.01309 14.0074C5.00496 14.0481 5.00496 14.0968 4.99684 14.1374C4.99684 14.1618 4.98871 14.1862 4.98871 14.2187V31.0618C4.98871 31.0862 4.99684 31.1187 4.99684 31.1431L5.02121 31.2731ZM8.43371 29.8999L12.22 24.6349L16.0062 29.8999H8.43371ZM17.1193 27.4543L13.6581 22.6443L17.1193 17.8343V27.4543ZM16.0143 15.3806L12.2281 20.6456L8.44184 15.3806H16.0143ZM7.32871 17.8262L10.79 22.6362L7.32871 27.4462V17.8262ZM22.7825 15.0799H45.0287C45.3369 15.0799 45.6324 14.9575 45.8503 14.7396C46.0682 14.5217 46.1906 14.2262 46.1906 13.9181C46.1906 13.6099 46.0682 13.3144 45.8503 13.0965C45.6324 12.8786 45.3369 12.7562 45.0287 12.7562H22.7825C22.4743 12.7562 22.1788 12.8786 21.9609 13.0965C21.743 13.3144 21.6206 13.6099 21.6206 13.9181C21.6206 14.2262 21.743 14.5217 21.9609 14.7396C22.1788 14.9575 22.4743 15.0799 22.7825 15.0799ZM22.3518 19.7112H32.0368C32.1894 19.7112 32.3405 19.6811 32.4815 19.6228C32.6224 19.5644 32.7505 19.4788 32.8584 19.3709C32.9663 19.263 33.0519 19.1349 33.1103 18.994C33.1687 18.853 33.1987 18.7019 33.1987 18.5493C33.1987 18.3967 33.1687 18.2457 33.1103 18.1047C33.0519 17.9637 32.9663 17.8356 32.8584 17.7278C32.7505 17.6199 32.6224 17.5343 32.4815 17.4759C32.3405 17.4175 32.1894 17.3874 32.0368 17.3874H22.3518C21.71 17.3874 21.19 17.9074 21.19 18.5493C21.19 19.1912 21.7018 19.7112 22.3518 19.7112ZM36.1481 17.3793C35.8399 17.3793 35.5444 17.5017 35.3265 17.7196C35.1086 17.9375 34.9862 18.233 34.9862 18.5412C34.9862 18.8493 35.1086 19.1449 35.3265 19.3628C35.5444 19.5807 35.8399 19.7031 36.1481 19.7031H45.8412C46.1494 19.7031 46.4449 19.5807 46.6628 19.3628C46.8807 19.1449 47.0031 18.8493 47.0031 18.5412C47.0031 18.233 46.8807 17.9375 46.6628 17.7196C46.4449 17.5017 46.1494 17.3793 45.8412 17.3793H36.1481ZM44.8093 4.86682H36.6518C36.3437 4.86682 36.0482 4.98923 35.8303 5.20713C35.6124 5.42502 35.49 5.72055 35.49 6.0287C35.49 6.33684 35.6124 6.63237 35.8303 6.85027C36.0482 7.06816 36.3437 7.19057 36.6518 7.19057H44.8175C45.4593 7.19057 45.9793 6.67057 45.9793 6.0287C45.9712 5.38682 45.4512 4.86682 44.8093 4.86682Z" fill="#E1E1FF"/>
</svg>
