<svg width="52" height="40" viewBox="0 0 52 40" fill="none" xmlns="http://www.w3.org/2000/svg">
<g clip-path="url(#clip0_175_554)">
<path d="M47.9375 0.5H10.5625C9.48545 0.501264 8.45287 0.929682 7.69128 1.69128C6.92968 2.45287 6.50126 3.48545 6.5 4.5625C6.5 4.99348 6.67121 5.4068 6.97595 5.71155C7.2807 6.01629 7.69402 6.1875 8.125 6.1875C8.55598 6.1875 8.9693 6.01629 9.27405 5.71155C9.57879 5.4068 9.75 4.99348 9.75 4.5625C9.75022 4.34708 9.83589 4.14054 9.98821 3.98821C10.1405 3.83589 10.3471 3.75022 10.5625 3.75H47.9375C48.1529 3.75022 48.3595 3.83589 48.5118 3.98821C48.6641 4.14054 48.7498 4.34708 48.75 4.5625V10.25H45.3846C45.2056 9.55409 44.8007 8.93726 44.2334 8.49615C43.6661 8.05505 42.9686 7.81461 42.25 7.8125H3.25C2.38833 7.81342 1.56221 8.15612 0.952917 8.76542C0.343623 9.37471 0.000918365 10.2008 0 11.0625L0 36.25C0.000918365 37.1117 0.343623 37.9378 0.952917 38.5471C1.56221 39.1564 2.38833 39.4991 3.25 39.5H42.25C43.1117 39.4991 43.9378 39.1564 44.5471 38.5471C45.1564 37.9378 45.4991 37.1117 45.5 36.25V32.1875H47.9375C49.0146 32.1862 50.0471 31.7578 50.8087 30.9962C51.5703 30.2346 51.9987 29.2021 52 28.125V4.5625C51.9987 3.48545 51.5703 2.45287 50.8087 1.69128C50.0471 0.929682 49.0146 0.501264 47.9375 0.5ZM48.75 19.1875H45.5V13.5H48.75V19.1875ZM3.25 36.25V11.0625H42.25L42.2524 36.25H3.25ZM47.9375 28.9375H45.5V22.4375H48.75V28.125C48.7498 28.3404 48.6641 28.547 48.5118 28.6993C48.3595 28.8516 48.1529 28.9373 47.9375 28.9375Z" fill="#E1E1FF"/>
<path d="M8.125 26.5H15.9247C16.3557 26.5 16.769 26.3288 17.0737 26.024C17.3784 25.7193 17.5497 25.306 17.5497 24.875V18.375C17.5497 17.944 17.3784 17.5307 17.0737 17.226C16.769 16.9212 16.3557 16.75 15.9247 16.75H8.125C7.69403 16.75 7.28072 16.9212 6.97598 17.226C6.67123 17.5307 6.50002 17.944 6.5 18.375V24.875C6.50002 25.306 6.67123 25.7193 6.97598 26.024C7.28072 26.3288 7.69403 26.5 8.125 26.5ZM9.75 20H14.2997V23.25H9.75V20ZM26.8125 29.75H8.125C7.69402 29.75 7.2807 29.9212 6.97595 30.226C6.67121 30.5307 6.5 30.944 6.5 31.375C6.5 31.806 6.67121 32.2193 6.97595 32.524C7.2807 32.8288 7.69402 33 8.125 33H26.8125C27.2435 33 27.6568 32.8288 27.9615 32.524C28.2663 32.2193 28.4375 31.806 28.4375 31.375C28.4375 30.944 28.2663 30.5307 27.9615 30.226C27.6568 29.9212 27.2435 29.75 26.8125 29.75Z" fill="#E1E1FF"/>
<path d="M37.375 17.5625C38.2725 17.5625 39 16.835 39 15.9375C39 15.04 38.2725 14.3125 37.375 14.3125C36.4775 14.3125 35.75 15.04 35.75 15.9375C35.75 16.835 36.4775 17.5625 37.375 17.5625Z" fill="#E1E1FF"/>
<path d="M37.375 29.75H33.3125C32.8815 29.75 32.4682 29.9212 32.1635 30.226C31.8587 30.5307 31.6875 30.944 31.6875 31.375C31.6875 31.806 31.8587 32.2193 32.1635 32.524C32.4682 32.8288 32.8815 33 33.3125 33H37.375C37.806 33 38.2193 32.8288 38.524 32.524C38.8288 32.2193 39 31.806 39 31.375C39 30.944 38.8288 30.5307 38.524 30.226C38.2193 29.9212 37.806 29.75 37.375 29.75Z" fill="#E1E1FF"/>
</g>
<defs>
<clipPath id="clip0_175_554">
<rect width="52" height="40" fill="white"/>
</clipPath>
</defs>
</svg>
